<svg xmlns="http://www.w3.org/2000/svg" xmlns:xlink="http://www.w3.org/1999/xlink" width="200" zoomAndPan="magnify" viewBox="0 0 150 60" height="80" preserveAspectRatio="xMidYMid meet" version="1.0"><defs><filter x="0%" y="0%" width="100%" height="100%" id="fafa5ef155"><feColorMatrix values="0 0 0 0 1 0 0 0 0 1 0 0 0 0 1 0 0 0 1 0" color-interpolation-filters="sRGB"/></filter><g/><clipPath id="de987d69af"><path d="M 0 5.371094 L 15.75 5.371094 L 15.75 24.121094 L 0 24.121094 Z M 0 5.371094 " clip-rule="nonzero"/></clipPath><mask id="1099a3225e"><g filter="url(#fafa5ef155)"><rect x="-15" width="180" fill="#000000" y="-6" height="72" fill-opacity="0.33"/></g></mask><clipPath id="b0b01bd4d7"><path d="M 0.0546875 0 L 95.304688 0 L 95.304688 47 L 0.0546875 47 Z M 0.0546875 0 " clip-rule="nonzero"/></clipPath><clipPath id="31d0a7cae2"><path d="M 54 18 L 83 18 L 83 48.75 L 54 48.75 Z M 54 18 " clip-rule="nonzero"/></clipPath><clipPath id="f041558954"><path d="M 92 39 L 95.304688 39 L 95.304688 42 L 92 42 Z M 92 39 " clip-rule="nonzero"/></clipPath><clipPath id="ac412a60d5"><rect x="0" width="96" y="0" height="49"/></clipPath><clipPath id="f116f9e007"><rect x="0" width="88" y="0" height="40"/></clipPath><mask id="3ae8ae3e1a"><g filter="url(#fafa5ef155)"><rect x="-15" width="180" fill="#000000" y="-6" height="72" fill-opacity="0.84"/></g></mask><clipPath id="6f04112af9"><path d="M 0.878906 0.28125 L 100 0.28125 L 100 18.519531 L 0.878906 18.519531 Z M 0.878906 0.28125 " clip-rule="nonzero"/></clipPath><clipPath id="c6ae4b0932"><rect x="0" width="100" y="0" height="19"/></clipPath><clipPath id="ab46b2d9ca"><rect x="0" width="100" y="0" height="19"/></clipPath></defs><g clip-path="url(#de987d69af)"><path fill="#0f766e" d="M 6.1875 24.238281 C 2.777344 24.238281 0 21.460938 0 18.046875 L 0 5.371094 L 4.835938 5.371094 L 4.835938 18.128906 C 4.835938 18.828125 5.40625 19.398438 6.109375 19.398438 L 12.730469 19.398438 L 15.910156 24.238281 Z M 10.523438 17.222656 L 10.523438 5.371094 L 15.363281 5.371094 L 15.363281 17.222656 Z M 10.523438 17.222656 " fill-opacity="1" fill-rule="nonzero"/></g><g mask="url(#1099a3225e)"><g transform="matrix(1, 0, 0, 1, 12, -0.000000000000001479)"><g clip-path="url(#ac412a60d5)"><g clip-path="url(#b0b01bd4d7)"><path fill="#000000" d="M 94.695312 37.03125 C 94.886719 37.164062 95.097656 36.9375 95.058594 36.746094 C 94.601562 34.5625 92.355469 33.703125 90.871094 32.457031 C 89.941406 31.675781 89.425781 30.488281 88.398438 29.761719 C 87.886719 29.398438 87.410156 29.472656 86.859375 29.300781 C 86.667969 29.246094 86.4375 29.300781 86.285156 29.453125 C 85.964844 29.78125 85.5625 30.066406 85.183594 30.316406 C 84.363281 30.871094 84.023438 30.773438 83.050781 30.335938 C 82.425781 30.046875 82.214844 29.953125 81.550781 30.066406 C 80.671875 30.238281 80.027344 30.792969 79.207031 30.144531 C 78.390625 29.511719 77.859375 28.25 76.773438 28.097656 C 75.972656 27.980469 75.667969 28.480469 75.003906 27.941406 C 74.453125 27.503906 74.300781 26.8125 73.785156 26.316406 C 73.480469 25.113281 72.910156 24.5 71.730469 23.734375 C 71.121094 23.332031 71.199219 23.542969 71.007812 22.777344 C 70.914062 22.414062 70.988281 22.089844 70.796875 21.746094 C 70.550781 21.265625 70.039062 20.84375 69.65625 20.5 C 69.066406 19.964844 67.867188 19.5625 67.621094 18.742188 C 67.449219 18.148438 67.714844 17.839844 67.355469 17.265625 C 66.9375 16.617188 66.0625 16.175781 65.507812 15.660156 C 64.746094 14.953125 64.214844 14.109375 63.511719 13.34375 C 63.167969 12.960938 62.75 12.367188 62.332031 12.101562 C 61.761719 11.738281 61.34375 11.777344 60.847656 11.203125 C 60.027344 10.265625 59.535156 8.886719 58.203125 8.734375 C 57.839844 8.695312 57.785156 8.886719 57.535156 8.753906 C 57.230469 8.582031 57.078125 7.605469 57.003906 7.316406 C 56.851562 6.800781 56.792969 6.035156 56.28125 5.710938 C 55.9375 5.5 55.652344 5.632812 55.367188 5.367188 C 54.96875 4.984375 55.101562 4.160156 54.722656 3.683594 C 54.625 3.550781 54.417969 3.53125 54.265625 3.566406 C 53.941406 3.644531 53.691406 3.914062 53.40625 3.96875 C 53.292969 3.988281 53.179688 3.796875 53.027344 3.835938 C 52.496094 3.949219 52.113281 4.085938 51.734375 4.503906 C 50.894531 5.386719 50.742188 6.570312 49.449219 6.152344 C 49.316406 6.113281 49.164062 6.152344 49.070312 6.246094 C 48.707031 6.609375 48.460938 7.125 48.15625 7.527344 C 48.097656 7.453125 48.042969 7.375 47.984375 7.261719 C 47.738281 6.78125 47.738281 6.265625 47.414062 5.824219 C 47.128906 5.441406 46.328125 4.503906 45.890625 4.371094 C 45.605469 4.277344 45.285156 4.5625 45.09375 4.503906 C 44.996094 4.488281 44.273438 3.183594 44.066406 2.9375 C 43.53125 2.246094 42.695312 0.0078125 41.457031 0.390625 C 40.375 0.738281 40.109375 2.421875 39.632812 3.28125 C 39.25 3.988281 39.804688 3.988281 38.566406 4.066406 C 38.414062 4.085938 38.167969 3.914062 37.996094 3.949219 C 37.539062 4.085938 37.273438 4.277344 37.042969 4.695312 C 36.738281 5.214844 36.796875 5.921875 36.703125 6.496094 C 36.550781 7.394531 36.246094 8.273438 35.675781 8.984375 C 35.199219 9.574219 34.246094 10.074219 34.09375 10.859375 C 33.980469 10.761719 33.789062 10.800781 33.734375 10.953125 C 33.488281 11.699219 32.898438 12.160156 32.554688 12.828125 C 32.269531 13.402344 32.324219 13.957031 31.945312 14.53125 C 31.296875 15.488281 30.6875 16.003906 30.234375 17.113281 C 30.042969 17.554688 30.0625 17.9375 29.929688 18.359375 C 29.777344 18.914062 29.433594 19.105469 29.070312 19.601562 C 28.425781 20.480469 27.835938 21.761719 27.550781 22.777344 C 27.511719 22.910156 27.472656 23.046875 27.453125 23.179688 C 27.265625 22.683594 27.113281 22.183594 26.847656 21.726562 C 26.75 21.570312 26.597656 21.476562 26.425781 21.476562 C 25.800781 20.632812 25.230469 19.964844 24.296875 19.351562 C 23.210938 18.625 22.660156 17.707031 21.839844 16.675781 C 21.726562 16.539062 21.5 16.484375 21.347656 16.539062 C 21.003906 16.789062 20.699219 16.710938 20.453125 16.308594 C 20.300781 16.121094 20.015625 16.136719 19.804688 16.234375 C 19.101562 16.578125 19.234375 17.34375 18.605469 17.726562 C 18.4375 17.820312 18.453125 17.957031 18.417969 17.957031 C 18.359375 17.976562 18.226562 17.804688 18.132812 17.839844 C 17.828125 17.957031 17.730469 17.878906 17.445312 18.148438 C 17.140625 18.433594 17.121094 19.140625 16.835938 19.351562 C 16.820312 19.371094 16.246094 19.332031 15.980469 19.410156 C 15.144531 19.640625 14.839844 20.519531 14.421875 21.265625 C 13.964844 22.070312 13.773438 23.027344 13.261719 23.792969 C 12.691406 24.632812 11.929688 24.765625 11.226562 25.378906 C 10.957031 25.609375 10.710938 25.875 10.558594 26.222656 C 10.464844 26.488281 10.484375 27.140625 10.445312 27.3125 C 10.234375 28.289062 10.214844 27.867188 9.035156 28.707031 C 8.867188 28.824219 8.617188 28.804688 8.425781 28.976562 C 8.046875 29.339844 8.027344 30.21875 7.914062 30.660156 C 7.703125 31.484375 7.230469 32.230469 6.960938 33.03125 C 6.960938 33.050781 6.960938 33.050781 6.945312 33.050781 C 6.792969 33.261719 6.621094 33.453125 6.449219 33.644531 C 5.515625 34.695312 4.316406 35.460938 3.328125 36.417969 C 2.851562 36.878906 2.492188 37.320312 1.957031 37.757812 C 1.617188 38.066406 1.214844 38.3125 0.855469 38.601562 C 0.304688 39.078125 0.265625 39.613281 0.09375 40.285156 C 0.0546875 40.457031 0.285156 40.550781 0.378906 40.398438 C 0.417969 40.320312 0.472656 40.226562 0.511719 40.148438 C 0.511719 40.132812 0.53125 40.113281 0.53125 40.113281 C 0.589844 40.09375 0.609375 40.074219 0.589844 40.074219 C 0.625 40.015625 0.664062 39.957031 0.703125 39.902344 C 0.875 39.671875 1.082031 39.5 1.332031 39.347656 C 1.691406 39.15625 2.089844 39.078125 2.472656 38.847656 C 3.347656 38.3125 4.394531 37.453125 5.097656 36.707031 C 5.820312 35.960938 6.296875 34.945312 6.867188 34.046875 C 6.886719 34.046875 6.925781 34.046875 6.945312 34.046875 C 7.304688 33.914062 7.570312 33.492188 7.78125 33.03125 C 7.800781 33.011719 7.820312 32.996094 7.820312 32.976562 C 8.160156 32.496094 8.464844 32.402344 8.941406 32.09375 C 9.589844 31.675781 9.378906 31.195312 9.757812 30.699219 C 9.96875 30.429688 10.367188 30.375 10.636719 30.144531 C 10.9375 29.875 11.128906 29.472656 11.394531 29.167969 C 11.414062 29.148438 11.453125 29.109375 11.472656 29.089844 C 11.527344 29.070312 11.585938 29.035156 11.644531 28.996094 C 11.757812 28.898438 11.851562 28.804688 11.910156 28.726562 C 12.253906 28.5 12.613281 28.289062 12.859375 28 C 13.566406 27.714844 14.324219 27.636719 14.972656 27.3125 C 15.085938 27.695312 15.316406 28.382812 15.296875 28.363281 C 15.449219 29.015625 15.066406 29.914062 14.914062 30.582031 C 14.761719 31.234375 14.59375 31.847656 14.421875 32.476562 C 14.324219 32.839844 14.269531 33.261719 14.210938 33.664062 C 13.945312 34.199219 13.640625 34.695312 13.261719 35.117188 C 13.144531 35.253906 13.296875 35.460938 13.449219 35.367188 C 13.699219 35.234375 13.925781 35.023438 14.136719 34.773438 C 14.15625 34.773438 14.15625 34.773438 14.171875 34.753906 C 14.34375 34.5625 14.476562 34.351562 14.59375 34.125 C 14.839844 33.703125 15.066406 33.28125 15.296875 32.9375 C 15.828125 32.152344 16.398438 31.40625 16.820312 30.566406 C 17.65625 28.863281 19.597656 27.273438 18.417969 25.417969 C 18.207031 25.167969 18.035156 24.921875 17.863281 24.632812 C 18.035156 24.613281 18.1875 24.59375 18.339844 24.574219 C 18.605469 24.347656 19.332031 23.886719 19.597656 23.734375 C 20.109375 23.445312 20.414062 23.503906 20.644531 22.949219 C 20.949219 22.242188 20.699219 20.558594 20.679688 19.851562 C 20.660156 19.277344 20.261719 18.148438 20.585938 17.59375 C 20.605469 17.574219 20.605469 17.535156 20.605469 17.515625 C 20.71875 17.535156 20.851562 17.574219 21.003906 17.628906 C 21.082031 17.667969 21.136719 17.667969 21.15625 17.667969 C 21.195312 17.707031 21.234375 17.746094 21.308594 17.820312 C 21.539062 18.03125 21.765625 18.433594 21.957031 18.664062 C 22.355469 19.160156 22.773438 19.695312 23.289062 20.0625 C 23.800781 20.425781 24.410156 20.578125 24.867188 21.074219 C 25.230469 21.476562 25.4375 21.972656 25.800781 22.355469 C 25.875 22.433594 25.988281 22.492188 26.121094 22.507812 C 26.425781 23.101562 26.636719 23.8125 27.265625 24.019531 C 27.1875 24.347656 27.054688 24.671875 26.789062 25.015625 C 26.410156 25.511719 26.105469 25.875 25.761719 26.46875 C 25.09375 27.675781 24.601562 28.707031 23.515625 29.417969 C 22.128906 30.335938 21.613281 31.921875 19.996094 32.613281 C 19.160156 32.976562 18.742188 33.414062 18.1875 34.179688 C 18.054688 34.371094 18.285156 34.679688 18.492188 34.582031 C 19.691406 34.105469 21.023438 33.625 21.992188 32.726562 C 22.945312 31.847656 23.382812 30.871094 24.488281 30.164062 C 25.058594 29.800781 25.457031 29.472656 25.855469 28.878906 C 25.988281 28.691406 26.105469 28.480469 26.199219 28.269531 C 26.503906 28.078125 26.828125 27.941406 27.167969 27.769531 C 28.347656 27.214844 28.75 26.316406 29.757812 25.53125 C 29.910156 25.398438 30.804688 24.9375 31.050781 24.671875 C 31.183594 25.035156 31.582031 25.761719 31.582031 25.742188 C 31.734375 26.183594 31.753906 26.257812 31.699219 26.757812 C 31.582031 27.65625 30.9375 28.382812 30.898438 29.300781 C 30.878906 29.914062 31.394531 30.46875 31.375 31.101562 C 31.355469 31.710938 31.070312 32.074219 30.824219 32.59375 C 30.652344 32.957031 30.480469 33.378906 30.328125 33.722656 C 30.234375 33.933594 30.195312 34.125 30.15625 34.332031 C 30.003906 34.601562 29.832031 34.871094 29.699219 35.15625 C 29.644531 35.253906 29.757812 35.386719 29.851562 35.308594 C 29.890625 35.289062 29.949219 35.253906 29.984375 35.234375 C 30.003906 35.289062 30.082031 35.328125 30.136719 35.289062 C 30.421875 35.042969 30.707031 34.753906 30.957031 34.429688 C 31.660156 33.703125 32.097656 32.859375 32.667969 31.882812 C 33.238281 30.890625 34.152344 30.105469 34.226562 28.957031 C 34.285156 28.039062 33.789062 26.183594 34.246094 25.417969 C 34.648438 24.730469 35.710938 24.078125 36.285156 23.445312 C 36.644531 23.0625 36.890625 22.699219 37.292969 22.316406 C 37.3125 22.300781 37.347656 22.28125 37.367188 22.28125 C 37.328125 22.492188 37.292969 22.71875 37.253906 22.949219 C 37.140625 23.675781 37.464844 24.308594 37.195312 24.996094 C 36.96875 25.609375 36.890625 26.164062 36.738281 26.796875 C 36.738281 26.832031 36.777344 26.832031 36.777344 26.8125 C 37.101562 26.375 37.3125 25.648438 37.519531 25.148438 C 37.75 24.613281 37.730469 24.136719 37.84375 23.582031 C 37.996094 22.835938 38.375 22.375 38.300781 21.609375 C 38.261719 21.363281 38.222656 21.113281 38.167969 20.84375 C 38.394531 19.851562 38.394531 18.722656 38.71875 17.839844 C 38.984375 17.09375 39.519531 16.40625 39.957031 15.753906 C 40.203125 15.390625 40.886719 14.894531 40.886719 14.398438 C 40.90625 13.480469 39.367188 13.171875 38.851562 12.734375 C 38.015625 11.988281 38.796875 11.8125 39.554688 11.242188 C 40.242188 10.742188 41.019531 10.457031 41.707031 9.976562 C 41.878906 9.863281 41.953125 9.671875 41.914062 9.480469 C 41.441406 7.699219 41.59375 6.398438 41.820312 4.542969 C 41.820312 4.503906 41.839844 4.449219 41.839844 4.410156 C 42.03125 4.027344 42.105469 3.625 42.085938 3.148438 C 42.085938 2.820312 42.164062 2.515625 42.164062 2.191406 C 42.164062 2.074219 42.164062 1.960938 42.144531 1.828125 C 42.960938 2.746094 43.398438 4.140625 44.371094 4.984375 C 44.980469 5.519531 45.453125 5.214844 46.023438 5.652344 C 47.015625 6.398438 47.089844 7.71875 47.964844 8.542969 C 48.25 8.808594 48.535156 9.097656 48.839844 9.382812 C 48.957031 9.9375 49.261719 10.648438 49.546875 11.144531 C 49.851562 11.71875 50.402344 11.96875 50.726562 12.503906 C 51.046875 13.058594 51.296875 14.28125 51.789062 14.992188 C 51.65625 15.046875 51.523438 15.105469 51.429688 15.144531 C 51.125 15.277344 50.894531 15.355469 50.609375 15.582031 C 50.515625 15.660156 50.402344 15.738281 50.304688 15.8125 C 50.25 15.832031 50.210938 15.832031 50.152344 15.851562 C 49.109375 16.195312 48.097656 16.730469 47.070312 17.152344 C 46.445312 17.402344 45.703125 17.59375 45.054688 17.878906 C 45.285156 17.554688 45.433594 17.210938 45.511719 16.847656 C 45.511719 16.808594 45.472656 16.789062 45.453125 16.828125 C 45.207031 17.34375 44.882812 17.554688 44.371094 17.785156 C 44.199219 17.859375 44.046875 17.898438 43.875 18.03125 C 43.476562 18.339844 43.226562 18.816406 43.226562 19.3125 C 43.226562 19.410156 43.285156 19.503906 43.363281 19.542969 C 43.265625 19.488281 42.808594 20.597656 42.847656 20.84375 C 42.847656 20.882812 42.90625 20.863281 42.90625 20.84375 C 43.074219 20.386719 43.476562 20.023438 43.683594 19.582031 C 43.800781 19.371094 43.914062 19.105469 44.179688 18.855469 C 44.21875 18.835938 44.238281 18.796875 44.273438 18.777344 C 44.273438 18.796875 44.292969 18.796875 44.292969 18.816406 C 44.273438 19.007812 44.253906 19.199219 44.273438 19.429688 C 44.292969 19.582031 44.3125 19.695312 44.351562 19.8125 C 44.273438 20.058594 44.238281 20.308594 44.238281 20.460938 C 44.292969 21.535156 44.710938 21.457031 43.933594 22.164062 C 43.550781 22.507812 43.09375 22.699219 43.039062 23.253906 C 43 23.582031 43.132812 23.734375 43.265625 23.886719 C 43.191406 24 43.09375 24.136719 43.019531 24.25 C 42.621094 24.785156 42.183594 25.074219 41.972656 25.761719 C 41.78125 26.394531 41.78125 26.699219 41.269531 27.160156 C 41.136719 27.273438 41.003906 27.332031 40.886719 27.484375 C 40.527344 27.980469 40.679688 28.421875 40.242188 28.878906 C 40.144531 28.976562 40.125 29.148438 40.203125 29.246094 C 40.242188 29.28125 40.261719 29.339844 40.296875 29.359375 C 40.640625 29.492188 41.304688 28.996094 41.515625 28.804688 C 41.992188 28.363281 41.878906 27.886719 42.066406 27.332031 C 42.199219 26.890625 42.484375 26.527344 42.734375 26.144531 C 43.132812 25.972656 43.4375 25.589844 43.683594 25.1875 C 43.683594 25.304688 43.703125 25.4375 43.722656 25.609375 C 43.855469 26.335938 44.390625 26.832031 44.292969 27.636719 C 44.21875 28.441406 43.761719 29.054688 43.914062 29.894531 C 43.96875 30.144531 44.253906 30.375 44.523438 30.355469 C 44.769531 30.335938 44.980469 30.257812 45.207031 30.238281 C 45.285156 30.238281 45.339844 30.21875 45.378906 30.21875 C 45.398438 30.582031 45.207031 31.101562 45.1875 31.347656 C 45.113281 32.191406 45.300781 32.515625 46.082031 32.785156 C 46.234375 32.839844 46.425781 32.613281 46.539062 32.648438 C 46.996094 32.804688 47.054688 33.070312 47.242188 33.414062 C 47.546875 33.96875 47.527344 34.660156 47.566406 35.289062 C 47.660156 36.746094 47.015625 37.929688 46.75 39.308594 C 46.480469 39.957031 46.101562 40.589844 45.796875 41.183594 C 45.417969 41.949219 45.550781 41.546875 44.84375 41.46875 C 44.425781 41.414062 43.96875 41.585938 43.628906 41.832031 C 42.980469 42.292969 43.171875 42.789062 42.714844 43.308594 C 42.449219 43.613281 42.734375 43.382812 42.183594 43.152344 C 41.496094 42.867188 41.304688 43.210938 40.699219 43.441406 C 39.632812 43.863281 38.566406 43.882812 38.433594 45.296875 C 38.433594 45.355469 38.507812 45.375 38.546875 45.335938 C 39.269531 44.683594 39.976562 44.761719 40.851562 44.472656 C 41.402344 44.300781 41.515625 44.246094 42.03125 44.320312 C 42.164062 44.339844 42.335938 44.453125 42.503906 44.472656 C 43.988281 44.664062 43.78125 41.605469 45.113281 42.828125 C 45.265625 42.960938 45.492188 43.058594 45.703125 42.980469 C 45.949219 42.886719 46.140625 42.753906 46.3125 42.578125 C 46.160156 42.945312 46.273438 43.324219 46.597656 43.804688 C 46.882812 44.226562 47.128906 44.722656 47.355469 45.199219 C 47.453125 45.410156 47.507812 45.527344 47.699219 45.601562 C 47.910156 45.8125 48.175781 45.964844 48.328125 46.195312 C 48.480469 46.425781 48.613281 47 49.011719 46.808594 C 49.089844 46.769531 49.070312 46.675781 49.011719 46.65625 C 48.652344 46.425781 48.632812 45.8125 48.421875 45.46875 C 48.195312 45.085938 47.910156 44.683594 47.546875 44.417969 C 47.546875 44.246094 47.546875 44.070312 47.585938 43.898438 C 47.660156 43.515625 47.546875 43.363281 47.453125 43 C 47.375 42.675781 47.492188 42.351562 47.375 42.007812 C 47.320312 41.816406 47.203125 41.625 47.089844 41.433594 C 47.109375 41.414062 47.148438 41.375 47.167969 41.335938 C 48.042969 39.195312 48.402344 36.820312 48.859375 34.5625 C 49.011719 33.875 49.316406 33.167969 49.414062 32.476562 C 49.546875 31.503906 48.992188 30.601562 48.746094 29.683594 C 48.421875 28.421875 48.382812 27.714844 49.261719 26.777344 C 49.46875 26.546875 49.734375 26.316406 49.964844 26.066406 C 50.058594 26.222656 50.152344 26.375 50.191406 26.585938 C 50.230469 26.796875 50.171875 27.023438 50.25 27.214844 C 50.402344 27.617188 50.707031 27.980469 50.839844 28.402344 C 50.859375 28.441406 50.894531 28.441406 50.894531 28.402344 C 50.914062 27.542969 51.277344 26.738281 50.914062 25.914062 C 50.761719 25.609375 50.574219 25.285156 50.363281 24.996094 C 50.363281 24.671875 50.230469 24.382812 50.039062 24.039062 C 49.164062 22.566406 47.8125 21.4375 46.578125 20.234375 C 47.089844 19.238281 47.929688 19.390625 48.765625 18.816406 C 49.296875 18.453125 49.375 17.917969 49.753906 17.4375 C 50.003906 17.152344 50.402344 16.867188 50.78125 16.617188 C 50.894531 16.578125 51.011719 16.558594 51.125 16.519531 C 51.734375 16.386719 52.324219 16.292969 52.78125 16.101562 C 52.722656 16.136719 52.53125 16.214844 52.511719 16.292969 C 52.324219 16.828125 52.742188 17.6875 53.21875 18.109375 C 53.066406 18.28125 52.835938 18.414062 52.816406 18.742188 C 52.816406 19.160156 53.066406 19.410156 53.425781 19.601562 C 53.542969 19.660156 53.730469 19.695312 53.84375 19.601562 C 53.730469 19.695312 54.054688 20.058594 54.09375 20.117188 C 54.113281 20.136719 54.148438 20.136719 54.167969 20.136719 L 54.246094 20.117188 C 54.300781 20.117188 54.300781 20.042969 54.265625 20.003906 C 54.378906 20.078125 54.113281 19.179688 54.09375 19.140625 C 53.902344 18.722656 53.691406 18.625 53.980469 18.148438 C 54.035156 18.050781 54.035156 17.898438 53.980469 17.785156 C 53.789062 17.476562 53.597656 17.210938 53.425781 16.882812 C 53.179688 16.464844 53.253906 16.636719 53.273438 16.214844 C 53.273438 16.0625 53.292969 15.890625 53.273438 15.738281 C 53.503906 15.449219 53.578125 15.046875 53.351562 14.398438 C 53.027344 13.402344 52.761719 12.445312 52.511719 11.429688 C 52.132812 9.957031 52.246094 10.609375 53.046875 9.539062 C 53.523438 8.90625 53.332031 8.410156 53.371094 7.699219 C 53.425781 6.742188 53.882812 5.863281 54.167969 4.964844 C 54.246094 4.675781 53.84375 4.5625 53.730469 4.832031 C 53.710938 4.832031 53.691406 4.8125 53.65625 4.8125 C 53.636719 4.8125 53.636719 4.8125 53.636719 4.8125 C 53.617188 4.792969 53.617188 4.753906 53.597656 4.734375 C 54.359375 4.601562 54.054688 4.371094 54.339844 5.234375 C 54.398438 5.386719 54.492188 5.691406 54.625 5.863281 C 55.214844 6.570312 55.671875 6.015625 56.128906 6.917969 C 56.453125 7.546875 56.375 8.675781 56.851562 9.210938 C 57.269531 9.691406 57.367188 9.421875 57.898438 9.5 C 59.382812 9.730469 59.742188 11.316406 60.867188 12.082031 C 61.304688 12.367188 61.796875 12.40625 62.21875 12.734375 C 63.128906 13.421875 63.664062 14.53125 64.445312 15.355469 C 65.222656 16.195312 66.746094 17.019531 66.972656 18.167969 C 67.089844 18.703125 66.839844 19.257812 67.257812 19.714844 C 67.753906 20.269531 68.535156 20.214844 69.164062 20.808594 C 69.867188 21.496094 69.90625 22.203125 70.054688 23.121094 C 70.152344 23.734375 70.074219 23.945312 70.644531 24.328125 C 71.179688 24.691406 71.75 24.671875 72.28125 25.1875 C 72.777344 25.667969 73.140625 26.277344 73.519531 26.851562 C 73.578125 26.929688 73.652344 26.949219 73.730469 26.929688 C 74.128906 27.960938 74.414062 28.878906 75.613281 29.128906 C 76.753906 29.359375 77.152344 29.511719 77.953125 30.355469 C 77.992188 30.390625 78.027344 30.449219 78.066406 30.488281 C 77.875 30.390625 77.667969 30.316406 77.457031 30.296875 C 77.402344 30.296875 77.382812 30.355469 77.402344 30.390625 C 77.6875 30.890625 78.066406 31.484375 78.523438 31.847656 C 79.039062 32.25 79.78125 32.457031 80.199219 32.996094 C 80.464844 33.339844 80.445312 33.492188 80.902344 33.722656 C 81.300781 33.933594 81.703125 34.105469 82.121094 34.316406 C 82.15625 34.332031 82.214844 34.316406 82.214844 34.257812 C 82.195312 33.835938 81.625 33.664062 81.453125 33.300781 C 81.246094 32.898438 81.300781 32.574219 80.941406 32.25 C 80.730469 32.058594 80.503906 31.882812 80.273438 31.730469 C 80.863281 31.539062 81.398438 31.121094 82.023438 31.195312 C 82.863281 31.3125 83.546875 32.074219 84.460938 32.113281 C 85.089844 32.132812 85.410156 31.902344 85.847656 31.464844 C 86.117188 31.195312 86.476562 30.929688 86.707031 30.660156 C 86.914062 30.429688 87.332031 30.199219 86.722656 30.257812 C 87.085938 30.21875 87.371094 29.914062 87.277344 29.53125 C 87.351562 29.800781 88.324219 30.21875 88.644531 30.527344 C 89.082031 30.945312 89.3125 31.347656 89.671875 31.808594 C 90.109375 32.363281 90.683594 32.859375 91.214844 33.300781 C 92.566406 34.5625 93.382812 36.015625 94.695312 37.03125 Z M 46.160156 19.945312 C 46.140625 19.925781 46.121094 19.90625 46.101562 19.886719 C 46.140625 19.871094 46.175781 19.8125 46.160156 19.753906 C 46.140625 19.679688 46.101562 19.582031 46.0625 19.46875 C 46.082031 19.46875 46.082031 19.46875 46.101562 19.488281 C 46.160156 19.503906 46.214844 19.503906 46.292969 19.503906 C 46.234375 19.640625 46.195312 19.792969 46.160156 19.945312 Z M 46.160156 19.945312 " fill-opacity="1" fill-rule="nonzero"/></g><g clip-path="url(#31d0a7cae2)"><path fill="#000000" d="M 80.40625 40.53125 C 79.683594 39.882812 79.949219 39.882812 79.609375 39.175781 C 79.324219 38.582031 78.65625 38.140625 78.199219 37.683594 C 76.488281 36 74.984375 33.96875 73.023438 32.574219 C 72.644531 32 72.148438 31.40625 71.558594 31.136719 C 71.066406 30.929688 70.78125 31.003906 70.378906 30.699219 C 69.695312 30.164062 69.277344 29.226562 68.554688 28.671875 C 67.601562 27.925781 67.03125 27.292969 66.289062 26.316406 C 65.871094 25.742188 65.527344 25.53125 64.882812 25.148438 C 64.214844 24.765625 64.292969 24.9375 63.910156 24.210938 C 63.683594 23.773438 63.777344 23.542969 63.339844 23.238281 C 63.28125 23.199219 63.246094 23.179688 63.1875 23.140625 C 63.054688 22.890625 62.921875 22.683594 62.769531 22.507812 C 62.351562 22.03125 62.027344 21.726562 61.628906 21.152344 C 61.457031 20.921875 61.398438 20.789062 61.191406 20.558594 C 60.769531 20.097656 60.316406 19.601562 59.894531 19.140625 C 59.589844 18.816406 59.914062 19.007812 59.554688 18.757812 C 59.535156 18.757812 59.515625 18.757812 59.515625 18.777344 C 59.535156 19.296875 59.726562 19.792969 60.011719 20.214844 C 60.164062 20.40625 60.316406 20.597656 60.484375 20.789062 C 60.5625 20.941406 60.601562 21.09375 60.617188 21.246094 C 60.617188 21.246094 60.617188 21.246094 60.617188 21.265625 C 60.582031 21.324219 60.601562 21.378906 60.636719 21.417969 C 60.65625 21.570312 60.636719 21.726562 60.617188 21.898438 C 60.695312 22.222656 60.789062 22.527344 60.980469 22.796875 C 61.226562 23.140625 61.570312 23.351562 61.796875 23.695312 C 61.835938 23.734375 61.855469 23.792969 61.875 23.828125 C 61.683594 24.519531 61.039062 27.675781 61.019531 27.941406 C 61 28.308594 61.191406 28.898438 60.960938 29.015625 C 60.65625 29.167969 59.515625 28.726562 59.078125 28.746094 C 58.773438 28.765625 58.601562 29.070312 58.734375 29.339844 C 59.058594 29.953125 59.230469 29.933594 59.078125 30.738281 C 58.964844 31.3125 58.792969 31.867188 58.640625 32.441406 C 58.488281 32.996094 58.355469 33.394531 58.429688 33.988281 C 58.488281 34.410156 58.734375 34.277344 58.640625 34.679688 C 58.507812 35.253906 58.070312 35.460938 57.898438 35.789062 C 57.59375 35.460938 57.367188 35.0625 57.0625 34.714844 C 56.777344 34.410156 56.507812 33.96875 56.128906 33.796875 C 55.9375 33.703125 55.804688 33.757812 55.613281 33.566406 C 55.539062 33.492188 55.519531 33.378906 55.445312 33.300781 C 55.292969 33.167969 55.101562 33.109375 54.949219 32.976562 C 54.910156 32.957031 54.855469 32.976562 54.871094 33.011719 C 54.910156 33.359375 55.234375 33.96875 55.5 34.160156 C 55.730469 34.316406 55.882812 34.238281 56.050781 34.46875 C 56.222656 34.679688 56.28125 35.078125 56.433594 35.347656 C 56.566406 35.597656 56.757812 35.902344 56.984375 36.054688 C 57.269531 36.265625 57.613281 36.285156 57.878906 36.554688 C 58.070312 36.746094 58.277344 37.089844 58.546875 37.222656 C 59.269531 38.007812 60.351562 38.828125 61.132812 39.328125 C 61.511719 39.574219 61.835938 39.59375 62.273438 39.75 C 63.1875 40.035156 63.566406 40.648438 64.042969 41.46875 C 64.765625 42.734375 65.222656 42.234375 66.328125 42.769531 C 67.375 43.289062 68.117188 44.492188 69.179688 45.085938 C 69.714844 45.375 69.90625 45.257812 70.457031 45.355469 C 70.496094 45.355469 70.53125 45.355469 70.53125 45.355469 C 70.683594 45.46875 70.835938 45.582031 70.949219 45.738281 C 71.273438 46.121094 71.75 46.40625 71.976562 46.769531 C 72.226562 47.132812 72.625 47.324219 72.835938 47.707031 C 72.890625 47.824219 73.082031 47.746094 73.042969 47.632812 C 72.910156 47.25 72.625 46.941406 72.492188 46.558594 C 72.359375 46.195312 72.246094 45.929688 72.015625 45.582031 C 71.996094 45.566406 71.976562 45.546875 71.976562 45.507812 C 72.207031 44.972656 71.863281 44.378906 71.636719 43.863281 C 71.046875 42.425781 70.074219 41.050781 69.296875 39.710938 C 68.171875 37.796875 66.367188 35.882812 65.71875 33.703125 C 65.871094 34.007812 65.984375 34.316406 66.195312 34.582031 C 66.515625 35.003906 67.164062 35.480469 67.507812 35.789062 C 68.097656 36.34375 68.648438 36.820312 69.164062 37.472656 C 69.484375 37.875 69.753906 38.390625 70.191406 38.65625 C 70.722656 38.984375 70.78125 38.675781 71.273438 39.308594 C 71.65625 39.765625 71.84375 40.320312 72.28125 40.742188 C 73.214844 41.679688 74.300781 42.464844 75.328125 43.289062 C 75.382812 43.324219 75.421875 43.34375 75.480469 43.382812 C 75.535156 43.5 75.59375 43.613281 75.652344 43.746094 C 75.972656 44.4375 76.242188 45.144531 76.847656 45.679688 C 77.117188 45.910156 77.304688 45.890625 77.609375 46.023438 C 78.21875 46.3125 78.085938 46.597656 78.257812 47.132812 C 78.464844 47.839844 79.074219 48.414062 79.742188 48.722656 C 79.796875 48.742188 79.875 48.683594 79.816406 48.625 C 79.074219 47.839844 79.152344 46.980469 78.867188 46.042969 C 78.65625 45.335938 78.257812 45.164062 77.820312 44.664062 C 77.382812 44.167969 77.039062 43.554688 76.621094 43.019531 C 76.488281 42.867188 76.375 42.714844 76.242188 42.578125 C 76.410156 40.839844 75.289062 38.601562 74.640625 37.128906 C 74.261719 36.246094 74.035156 35.347656 73.730469 34.523438 C 73.996094 34.851562 74.242188 35.175781 74.453125 35.539062 C 75.195312 36.726562 76.203125 37.683594 77.152344 38.714844 C 77.535156 39.136719 78.066406 39.480469 78.390625 39.921875 C 78.617188 40.226562 78.617188 40.609375 78.886719 40.914062 C 79.191406 41.277344 79.628906 41.433594 80.027344 41.640625 C 80.863281 42.082031 81.644531 42.578125 82.292969 43.269531 C 82.367188 43.34375 82.460938 43.269531 82.441406 43.171875 C 82.386719 42.042969 81.1875 41.222656 80.40625 40.53125 Z M 80.40625 40.53125 " fill-opacity="1" fill-rule="nonzero"/></g><path fill="#000000" d="M 60.351562 15.871094 C 60.675781 16.0625 60.867188 16.15625 61.019531 16.519531 C 61.09375 16.675781 61.113281 16.808594 61.207031 16.960938 C 61.417969 17.304688 61.761719 17.554688 62.121094 17.726562 C 62.21875 17.765625 62.351562 17.667969 62.292969 17.554688 C 62.007812 17.152344 61.703125 16.828125 61.476562 16.386719 C 61.324219 16.101562 61.207031 15.851562 61 15.582031 C 60.503906 14.972656 59.878906 14.550781 59.4375 13.898438 C 59.363281 13.785156 59.152344 13.824219 59.152344 13.976562 C 59.171875 14.800781 59.707031 15.449219 60.351562 15.871094 Z M 60.351562 15.871094 " fill-opacity="1" fill-rule="nonzero"/><path fill="#000000" d="M 56.035156 25.148438 C 56.242188 25.398438 56.203125 25.628906 56.320312 25.894531 C 56.488281 26.277344 56.890625 26.777344 57.175781 27.082031 C 57.289062 27.195312 57.480469 27.351562 57.652344 27.292969 C 57.917969 27.195312 57.859375 26.796875 57.785156 26.605469 C 57.707031 26.375 57.480469 26.164062 57.328125 25.972656 C 57.136719 25.722656 57.023438 25.511719 56.890625 25.226562 C 56.699219 24.804688 56.488281 24.652344 56.109375 24.402344 C 55.730469 24.136719 55.597656 23.773438 55.273438 23.445312 C 55.234375 23.410156 55.140625 23.445312 55.160156 23.503906 C 55.328125 23.925781 55.253906 24.308594 55.539062 24.691406 C 55.710938 24.882812 55.898438 24.976562 56.035156 25.148438 Z M 56.035156 25.148438 " fill-opacity="1" fill-rule="nonzero"/><path fill="#000000" d="M 55.007812 44.320312 C 54.703125 43.652344 54.433594 43.363281 53.921875 42.867188 C 53.464844 42.425781 53.253906 41.738281 52.722656 41.335938 C 52.550781 41.222656 52.324219 41.183594 52.132812 41.085938 C 51.941406 40.972656 51.847656 40.839844 51.675781 40.722656 C 51.601562 40.6875 51.503906 40.78125 51.542969 40.859375 C 51.675781 41.050781 51.695312 41.296875 51.867188 41.46875 C 52.058594 41.640625 52.34375 41.640625 52.53125 41.832031 C 52.855469 42.160156 52.894531 42.808594 53.085938 43.191406 C 53.21875 43.441406 53.464844 43.632812 53.558594 43.882812 C 53.84375 44.589844 53.769531 45.085938 54.492188 45.527344 C 54.988281 45.8125 55.40625 46.214844 55.898438 46.484375 C 55.957031 46.519531 56.035156 46.445312 55.976562 46.386719 C 55.40625 45.773438 55.347656 45.066406 55.007812 44.320312 Z M 55.007812 44.320312 " fill-opacity="1" fill-rule="nonzero"/><path fill="#000000" d="M 59.535156 42.597656 C 59.457031 42.484375 59.363281 42.371094 59.289062 42.253906 C 59.019531 41.890625 58.394531 41.414062 57.9375 41.605469 C 57.917969 41.625 57.917969 41.660156 57.9375 41.660156 C 58.109375 41.71875 58.125 42.140625 58.164062 42.273438 C 58.242188 42.578125 58.277344 42.828125 58.449219 43.097656 C 58.640625 43.402344 58.925781 43.613281 59.289062 43.671875 C 59.515625 43.707031 59.589844 43.691406 59.800781 43.882812 C 59.914062 43.996094 59.933594 44.035156 60.085938 44.089844 C 60.144531 44.109375 60.21875 44.054688 60.21875 43.996094 C 60.179688 43.652344 59.878906 43.480469 59.78125 43.191406 C 59.707031 42.960938 59.6875 42.789062 59.535156 42.597656 Z M 59.535156 42.597656 " fill-opacity="1" fill-rule="nonzero"/><path fill="#000000" d="M 61.058594 44.511719 C 60.886719 44.359375 60.636719 44.109375 60.390625 44.128906 C 60.371094 44.128906 60.351562 44.167969 60.371094 44.1875 C 60.542969 44.359375 60.675781 44.570312 60.867188 44.722656 C 61.074219 44.894531 61.226562 45.164062 61.4375 45.316406 C 61.476562 45.335938 61.53125 45.316406 61.550781 45.277344 C 61.609375 44.953125 61.285156 44.683594 61.058594 44.511719 Z M 61.058594 44.511719 " fill-opacity="1" fill-rule="nonzero"/><path fill="#000000" d="M 38.871094 36.4375 C 39.214844 36.035156 39.328125 35.5 39.746094 35.136719 C 40.183594 34.753906 40.488281 34.371094 40.886719 33.96875 C 40.945312 33.914062 40.867188 33.835938 40.8125 33.855469 C 40.355469 34.105469 39.859375 34.066406 39.441406 34.371094 C 38.984375 34.695312 38.585938 35.117188 38.167969 35.480469 C 37.804688 35.789062 37.539062 36.113281 37.253906 36.476562 C 37.027344 36.78125 36.929688 37.089844 36.738281 37.394531 C 36.703125 37.453125 36.757812 37.507812 36.835938 37.507812 C 37.160156 37.453125 37.386719 37.128906 37.691406 37.011719 C 38.148438 36.878906 38.527344 36.859375 38.871094 36.4375 Z M 38.871094 36.4375 " fill-opacity="1" fill-rule="nonzero"/><path fill="#000000" d="M 41.15625 33.796875 C 41.269531 33.703125 41.382812 33.644531 41.402344 33.472656 C 41.402344 33.453125 41.382812 33.414062 41.34375 33.433594 C 41.25 33.511719 41.15625 33.585938 41.058594 33.664062 C 40.964844 33.742188 41.078125 33.875 41.15625 33.796875 Z M 41.15625 33.796875 " fill-opacity="1" fill-rule="nonzero"/><path fill="#000000" d="M 45.246094 13.289062 C 45.339844 13 45.550781 12.617188 45.777344 12.425781 C 45.988281 12.253906 46.140625 12.160156 46.214844 11.890625 C 46.3125 11.585938 45.835938 11.375 45.703125 11.679688 C 45.472656 12.195312 45.148438 12.675781 45.074219 13.25 C 45.054688 13.34375 45.207031 13.382812 45.246094 13.289062 Z M 45.246094 13.289062 " fill-opacity="1" fill-rule="nonzero"/><path fill="#000000" d="M 47.945312 14.148438 C 47.929688 14.148438 47.929688 14.1875 47.945312 14.1875 C 47.984375 14.1875 47.984375 14.148438 47.945312 14.148438 Z M 47.945312 14.148438 " fill-opacity="1" fill-rule="nonzero"/><path fill="#000000" d="M 47.832031 14.972656 C 47.964844 14.894531 48.097656 14.835938 48.195312 14.722656 C 48.308594 14.609375 48.367188 14.433594 48.480469 14.339844 C 48.59375 14.246094 48.746094 14.1875 48.839844 14.070312 C 48.957031 13.957031 48.992188 13.824219 49.050781 13.6875 C 49.164062 13.421875 48.785156 13.191406 48.652344 13.460938 C 48.574219 13.613281 48.519531 13.726562 48.382812 13.824219 C 48.269531 13.898438 48.15625 13.976562 48.082031 14.089844 C 47.910156 14.320312 47.757812 14.589844 47.660156 14.855469 C 47.644531 14.953125 47.757812 15.027344 47.832031 14.972656 Z M 47.832031 14.972656 " fill-opacity="1" fill-rule="nonzero"/><path fill="#000000" d="M 18.207031 31.980469 C 18.167969 32.074219 18.265625 32.152344 18.359375 32.09375 C 18.796875 31.75 19.007812 31.175781 19.386719 30.773438 C 19.785156 30.679688 20.148438 30.144531 20.128906 29.761719 C 20.109375 29.492188 19.804688 29.246094 19.539062 29.417969 C 19.292969 29.589844 19.042969 29.78125 18.890625 30.046875 C 18.835938 30.144531 18.816406 30.277344 18.835938 30.410156 C 18.722656 30.621094 18.589844 30.792969 18.511719 31.023438 C 18.398438 31.328125 18.339844 31.675781 18.207031 31.980469 Z M 18.207031 31.980469 " fill-opacity="1" fill-rule="nonzero"/><path fill="#000000" d="M 20.339844 28.613281 C 20.414062 28.5 20.605469 28.480469 20.71875 28.402344 C 20.832031 28.308594 20.910156 28.191406 20.929688 28.039062 C 20.949219 27.808594 20.585938 27.808594 20.566406 28.039062 C 20.566406 28.132812 20.394531 28.210938 20.339844 28.289062 C 20.261719 28.382812 20.222656 28.460938 20.222656 28.59375 C 20.222656 28.652344 20.300781 28.652344 20.339844 28.613281 Z M 20.339844 28.613281 " fill-opacity="1" fill-rule="nonzero"/><path fill="#000000" d="M 20.832031 24.84375 C 20.585938 25.09375 20.339844 25.496094 20.300781 25.875 C 20.300781 25.953125 20.28125 26.316406 20.453125 26.316406 C 21.101562 26.277344 21.5 25.398438 21.765625 24.902344 C 21.839844 24.765625 21.9375 24.632812 22.011719 24.5 C 22.03125 24.460938 22.070312 24.269531 22.089844 24.230469 C 22.222656 24.019531 22.414062 24 22.375 23.695312 C 22.375 23.5625 22.203125 23.503906 22.128906 23.621094 C 22.070312 23.714844 22.050781 23.828125 21.992188 23.925781 C 21.917969 24.097656 21.917969 24.078125 21.765625 24.136719 C 21.460938 24.289062 21.082031 24.59375 20.832031 24.84375 Z M 20.832031 24.84375 " fill-opacity="1" fill-rule="nonzero"/><path fill="#000000" d="M 22.414062 22.683594 C 22.507812 22.566406 22.582031 22.375 22.449219 22.242188 C 22.414062 22.203125 22.355469 22.183594 22.296875 22.203125 C 22.183594 22.242188 22.089844 22.375 21.992188 22.472656 C 21.898438 22.585938 21.804688 22.71875 21.878906 22.875 C 21.898438 22.929688 21.957031 22.949219 22.011719 22.949219 C 22.183594 22.96875 22.316406 22.796875 22.414062 22.683594 Z M 22.414062 22.683594 " fill-opacity="1" fill-rule="nonzero"/><path fill="#000000" d="M 23.421875 34.601562 C 23.554688 34.410156 23.78125 34.332031 23.933594 34.160156 C 24.105469 33.988281 24.316406 33.949219 24.503906 33.816406 C 24.847656 33.585938 25.265625 33.203125 25.363281 32.785156 C 25.398438 32.613281 25.324219 32.421875 25.132812 32.382812 C 24.828125 32.324219 24.621094 32.457031 24.429688 32.707031 C 24.238281 32.976562 24.011719 33.128906 23.761719 33.339844 C 23.535156 33.53125 23.476562 33.703125 23.363281 33.96875 C 23.269531 34.179688 23.171875 34.351562 23.230469 34.601562 C 23.289062 34.660156 23.382812 34.660156 23.421875 34.601562 Z M 23.421875 34.601562 " fill-opacity="1" fill-rule="nonzero"/><path fill="#000000" d="M 25.875 31.75 C 25.855469 31.75 25.855469 31.75 25.875 31.75 C 25.988281 31.75 26.007812 31.710938 26.121094 31.789062 C 26.21875 31.847656 26.351562 31.847656 26.445312 31.789062 C 26.558594 31.730469 26.65625 31.65625 26.710938 31.519531 C 26.769531 31.386719 26.769531 31.234375 26.65625 31.121094 C 26.730469 31.195312 26.636719 31.101562 26.617188 31.082031 C 26.578125 31.0625 26.558594 31.0625 26.523438 31.042969 C 26.445312 31.023438 26.351562 31.023438 26.273438 31.082031 C 26.160156 31.15625 26.085938 31.253906 26.007812 31.367188 C 25.96875 31.445312 25.96875 31.519531 25.96875 31.617188 C 25.988281 31.710938 25.96875 31.710938 25.875 31.75 Z M 25.875 31.75 " fill-opacity="1" fill-rule="nonzero"/><path fill="#000000" d="M 28.84375 28.554688 C 28.519531 28.574219 28.3125 28.863281 28.0625 29.054688 C 27.910156 29.167969 27.757812 29.300781 27.625 29.453125 C 27.511719 29.589844 27.492188 29.742188 27.398438 29.894531 C 27.378906 29.953125 27.398438 30.027344 27.453125 30.027344 C 27.816406 30.105469 28.082031 29.78125 28.347656 29.570312 C 28.5 29.453125 28.652344 29.359375 28.785156 29.207031 C 28.917969 29.035156 28.917969 28.898438 28.957031 28.707031 C 28.976562 28.632812 28.917969 28.535156 28.84375 28.554688 Z M 28.84375 28.554688 " fill-opacity="1" fill-rule="nonzero"/><path fill="#000000" d="M 10.769531 32.382812 C 10.804688 32.265625 10.710938 32.132812 10.617188 32.09375 C 10.292969 32 10.027344 32.25 9.835938 32.476562 C 9.605469 32.726562 9.605469 33.03125 9.742188 33.339844 C 9.777344 33.414062 9.894531 33.394531 9.910156 33.339844 C 9.988281 33.1875 10.160156 32.957031 10.273438 32.878906 C 10.484375 32.746094 10.691406 32.648438 10.769531 32.382812 Z M 10.769531 32.382812 " fill-opacity="1" fill-rule="nonzero"/><path fill="#000000" d="M 11.222656 31.40625 C 11.148438 31.464844 11.074219 31.519531 11.015625 31.597656 C 10.957031 31.675781 11.054688 31.789062 11.128906 31.710938 C 11.207031 31.636719 11.320312 31.578125 11.414062 31.519531 C 11.472656 31.484375 11.546875 31.425781 11.605469 31.386719 C 11.679688 31.40625 11.738281 31.40625 11.832031 31.367188 C 11.964844 31.3125 12.023438 31.214844 12.136719 31.136719 C 12.269531 31.023438 12.214844 30.738281 12.023438 30.699219 C 11.8125 30.679688 11.625 30.699219 11.511719 30.890625 C 11.433594 31.003906 11.414062 31.121094 11.453125 31.234375 C 11.394531 31.292969 11.300781 31.347656 11.222656 31.40625 Z M 11.222656 31.40625 " fill-opacity="1" fill-rule="nonzero"/><path fill="#000000" d="M 13.621094 29.320312 C 13.660156 29.320312 13.640625 29.28125 13.621094 29.261719 C 13.394531 29.246094 13.222656 29.453125 13.089844 29.609375 C 13.011719 29.703125 12.9375 29.78125 12.84375 29.855469 C 12.746094 29.953125 12.59375 30.144531 12.441406 30.164062 C 12.402344 30.164062 12.402344 30.199219 12.441406 30.21875 C 12.671875 30.296875 12.859375 30.105469 13.011719 29.953125 C 13.089844 29.875 13.164062 29.800781 13.222656 29.703125 C 13.335938 29.589844 13.433594 29.378906 13.621094 29.320312 Z M 13.621094 29.320312 " fill-opacity="1" fill-rule="nonzero"/><path fill="#000000" d="M 90.910156 41.164062 C 90.796875 40.972656 90.816406 40.761719 90.777344 40.550781 C 90.699219 40.226562 90.566406 39.976562 90.339844 39.730469 C 90.054688 39.421875 89.882812 39.441406 89.519531 39.328125 C 88.929688 39.117188 88.550781 38.621094 88.019531 38.371094 C 87.714844 38.21875 87.449219 38.140625 87.179688 37.96875 C 87.027344 37.875 87.046875 37.757812 86.839844 37.699219 C 86.800781 37.683594 86.742188 37.738281 86.761719 37.796875 C 87.011719 38.121094 87.027344 38.292969 87.371094 38.523438 C 87.867188 38.828125 87.980469 39.308594 88.417969 39.652344 C 88.722656 39.882812 88.835938 39.976562 89.007812 40.265625 C 89.160156 40.511719 89.273438 40.703125 89.503906 40.894531 C 89.960938 41.277344 90.664062 41.394531 91.082031 41.796875 C 91.101562 41.816406 91.15625 41.816406 91.15625 41.777344 C 91.195312 41.585938 91.195312 41.566406 91.082031 41.394531 C 91.0625 41.257812 90.96875 41.222656 90.910156 41.164062 Z M 90.910156 41.164062 " fill-opacity="1" fill-rule="nonzero"/><g clip-path="url(#f041558954)"><path fill="#000000" d="M 95.078125 40.972656 C 94.867188 40.6875 94.640625 40.417969 94.410156 40.148438 C 94.203125 39.941406 94.03125 39.75 93.707031 39.710938 C 93.59375 39.691406 93.460938 39.765625 93.347656 39.75 C 93.195312 39.730469 93.097656 39.652344 92.964844 39.59375 C 92.851562 39.558594 92.792969 39.710938 92.851562 39.785156 C 92.945312 39.882812 93.003906 39.996094 93.117188 40.09375 C 93.210938 40.167969 93.289062 40.148438 93.382812 40.265625 C 93.441406 40.339844 93.460938 40.476562 93.515625 40.550781 C 93.59375 40.667969 93.6875 40.761719 93.800781 40.859375 C 94.011719 41.050781 94.238281 41.242188 94.488281 41.394531 C 94.695312 41.527344 94.945312 41.585938 95.171875 41.679688 C 95.210938 41.699219 95.230469 41.660156 95.25 41.640625 C 95.304688 41.414062 95.210938 41.164062 95.078125 40.972656 Z M 95.078125 40.972656 " fill-opacity="1" fill-rule="nonzero"/></g><path fill="#000000" d="M 24.199219 38.582031 C 23.746094 37.875 23.402344 36.476562 22.640625 36.054688 C 21.9375 35.671875 21.289062 36.398438 20.777344 36.78125 C 20.375 37.089844 20.035156 37.433594 19.652344 37.757812 C 19.464844 37.910156 19.445312 38.082031 19.445312 38.160156 C 19.425781 38.121094 19.367188 38.046875 19.292969 37.949219 C 19.332031 37.988281 19.042969 37.242188 19.027344 37.222656 C 18.949219 37.089844 18.777344 36.992188 18.625 36.992188 C 17.046875 37.03125 15.808594 38.429688 14.859375 39.460938 C 14.363281 40.015625 13.449219 40.148438 12.917969 40.6875 C 12.480469 41.125 12.269531 41.699219 11.949219 42.214844 C 11.664062 42.386719 11.453125 42.675781 11.1875 43.019531 C 11.148438 43.078125 11.148438 43.152344 11.1875 43.210938 C 11.1875 43.230469 11.207031 43.25 11.207031 43.269531 C 11.242188 43.324219 11.339844 43.363281 11.394531 43.324219 C 11.71875 43.078125 12.9375 43.191406 13.242188 43.269531 C 13.832031 43.421875 14.25 43.652344 14.898438 43.480469 C 15.695312 43.289062 15.5625 43.019531 15.695312 42.578125 C 16.457031 42.980469 16.667969 43.34375 17.828125 43.363281 C 18.492188 43.382812 19.160156 43.363281 19.652344 42.886719 C 19.804688 42.753906 19.804688 42.523438 19.730469 42.351562 C 19.292969 41.46875 21.175781 41.070312 21.613281 40.398438 C 21.726562 40.226562 21.707031 39.996094 21.613281 39.824219 C 21.289062 39.230469 21.136719 38.542969 21.402344 37.890625 C 21.554688 37.527344 21.785156 37.355469 21.859375 36.972656 C 22.050781 36.992188 22.261719 37.089844 22.527344 37.28125 C 23.25 37.855469 23.6875 39.039062 24.257812 39.730469 C 24.925781 40.550781 25.933594 41.144531 26.710938 41.832031 C 26.980469 42.082031 27.398438 41.660156 27.113281 41.433594 C 26.066406 40.53125 24.960938 39.765625 24.199219 38.582031 Z M 20.851562 37.835938 C 21.0625 37.472656 21.289062 37.128906 21.59375 37.011719 C 21.402344 37.355469 21.117188 37.585938 20.851562 37.835938 Z M 20.851562 37.835938 " fill-opacity="1" fill-rule="nonzero"/><path fill="#000000" d="M 9.246094 34.277344 C 9.035156 34.332031 8.789062 34.351562 8.617188 34.46875 C 8.371094 34.640625 8.292969 34.945312 8.027344 35.117188 C 7.742188 35.289062 7.476562 35.308594 7.265625 35.632812 C 7.132812 35.84375 7.230469 36.132812 7.132812 36.304688 C 7.058594 36.457031 6.734375 36.570312 6.621094 36.726562 C 6.355469 37.03125 6.316406 37.203125 5.898438 37.433594 C 5.515625 37.644531 5.25 37.683594 5.136719 38.140625 C 5.097656 38.257812 5.269531 38.3125 5.324219 38.21875 C 5.6875 37.683594 6.203125 37.855469 6.65625 37.507812 C 6.847656 37.375 6.792969 37.355469 6.945312 37.183594 C 7.265625 36.859375 7.457031 36.839844 7.855469 36.667969 C 8.257812 36.496094 8.5625 36.207031 8.75 35.824219 C 8.980469 35.386719 9.246094 34.851562 9.378906 34.371094 C 9.398438 34.332031 9.320312 34.257812 9.246094 34.277344 Z M 9.246094 34.277344 " fill-opacity="1" fill-rule="nonzero"/><path fill="#000000" d="M 12.328125 38.582031 C 12.367188 38.523438 12.308594 38.445312 12.253906 38.464844 C 12.023438 38.484375 11.949219 38.65625 11.738281 38.734375 C 11.527344 38.828125 11.375 38.925781 11.242188 39.136719 C 11.074219 39.402344 10.9375 39.691406 10.730469 39.941406 C 10.632812 40.054688 10.5 40.148438 10.40625 40.265625 C 10.332031 40.359375 10.292969 40.496094 10.214844 40.589844 C 10.195312 40.628906 10.234375 40.6875 10.273438 40.648438 C 10.730469 40.339844 11.089844 39.902344 11.511719 39.539062 C 11.871094 39.269531 12.0625 38.945312 12.328125 38.582031 Z M 12.328125 38.582031 " fill-opacity="1" fill-rule="nonzero"/><path fill="#000000" d="M 13.242188 37.949219 C 13.355469 37.835938 13.527344 37.738281 13.601562 37.585938 C 13.679688 37.472656 13.734375 37.300781 13.660156 37.183594 C 13.582031 37.070312 13.449219 37.070312 13.316406 37.089844 C 13.089844 37.070312 12.84375 37.222656 12.707031 37.375 C 12.613281 37.492188 12.554688 37.605469 12.539062 37.757812 C 12.519531 37.835938 12.519531 37.890625 12.519531 37.96875 C 12.519531 38.007812 12.539062 38.046875 12.554688 38.082031 C 12.539062 38.027344 12.519531 38.027344 12.539062 38.082031 C 12.539062 38.199219 12.652344 38.292969 12.765625 38.257812 C 12.785156 38.257812 12.917969 38.199219 12.824219 38.21875 C 12.878906 38.199219 12.9375 38.199219 12.992188 38.160156 C 13.070312 38.121094 13.164062 38.046875 13.242188 37.949219 Z M 13.242188 37.949219 " fill-opacity="1" fill-rule="nonzero"/><path fill="#000000" d="M 34.4375 44.226562 C 34.246094 44.148438 34.265625 43.671875 34.152344 43.480469 C 34.019531 43.230469 33.773438 43.136719 33.503906 43.078125 C 33.257812 43.019531 33.199219 42.90625 33.011719 42.769531 C 32.859375 42.65625 32.667969 42.617188 32.515625 42.484375 C 32.25 42.273438 32.136719 41.96875 31.867188 41.777344 C 31.753906 41.699219 31.640625 41.851562 31.699219 41.949219 C 31.90625 42.3125 32.039062 42.523438 32.363281 42.828125 C 32.609375 43.078125 32.726562 43.421875 33.046875 43.574219 C 33.164062 43.632812 33.335938 43.613281 33.449219 43.691406 C 33.636719 43.804688 33.582031 43.976562 33.621094 44.167969 C 33.675781 44.492188 33.828125 44.742188 34.152344 44.855469 C 34.53125 44.992188 34.800781 44.378906 34.4375 44.226562 Z M 34.4375 44.226562 " fill-opacity="1" fill-rule="nonzero"/><path fill="#000000" d="M 34.933594 42.292969 C 35.027344 42.332031 34.914062 42.179688 34.894531 42.121094 C 34.835938 42.007812 34.78125 41.890625 34.703125 41.777344 C 34.570312 41.585938 34.4375 41.527344 34.246094 41.414062 C 34.058594 41.277344 33.886719 41.105469 33.695312 40.953125 C 33.46875 40.800781 33.257812 40.6875 33.144531 40.417969 C 33.125 40.359375 33.011719 40.339844 32.992188 40.417969 C 32.933594 40.742188 33.21875 40.914062 33.46875 41.105469 C 33.734375 41.296875 33.90625 41.527344 34.078125 41.816406 C 34.210938 42.0625 34.378906 42.3125 34.4375 42.597656 C 34.457031 42.714844 34.589844 42.808594 34.722656 42.808594 C 34.742188 42.808594 34.78125 42.808594 34.800781 42.808594 C 35.046875 42.808594 35.199219 42.40625 34.933594 42.292969 Z M 34.933594 42.292969 " fill-opacity="1" fill-rule="nonzero"/><path fill="#000000" d="M 35.007812 40.246094 C 34.914062 40.1875 34.800781 40.167969 34.722656 40.113281 C 34.570312 39.996094 34.476562 39.84375 34.265625 39.804688 C 34.152344 39.785156 34.09375 39.921875 34.191406 39.976562 C 34.324219 40.074219 34.398438 40.265625 34.515625 40.378906 C 34.648438 40.511719 34.816406 40.609375 34.96875 40.722656 C 35.160156 40.878906 35.425781 40.628906 35.257812 40.4375 C 35.179688 40.359375 35.105469 40.304688 35.007812 40.246094 Z M 35.007812 40.246094 " fill-opacity="1" fill-rule="nonzero"/></g></g></g><g transform="matrix(1, 0, 0, 1, 18, 12)"><g clip-path="url(#f116f9e007)"><g fill="#11998e" fill-opacity="1"><g transform="translate(0.564693, 29.344808)"><g><path d="M 16.453125 -13.125 C 16.453125 -12 16.191406 -10.972656 15.671875 -10.046875 C 15.160156 -9.117188 14.375 -8.367188 13.3125 -7.796875 C 12.25 -7.234375 10.925781 -6.953125 9.34375 -6.953125 L 6.421875 -6.953125 L 6.421875 0 L 1.703125 0 L 1.703125 -19.34375 L 9.34375 -19.34375 C 10.882812 -19.34375 12.1875 -19.078125 13.25 -18.546875 C 14.320312 -18.015625 15.125 -17.28125 15.65625 -16.34375 C 16.1875 -15.40625 16.453125 -14.332031 16.453125 -13.125 Z M 8.984375 -10.6875 C 9.890625 -10.6875 10.5625 -10.898438 11 -11.328125 C 11.4375 -11.753906 11.65625 -12.351562 11.65625 -13.125 C 11.65625 -13.894531 11.4375 -14.488281 11 -14.90625 C 10.5625 -15.332031 9.890625 -15.546875 8.984375 -15.546875 L 6.421875 -15.546875 L 6.421875 -10.6875 Z M 8.984375 -10.6875 "/></g></g></g><g fill="#11998e" fill-opacity="1"><g transform="translate(17.212733, 29.344808)"><g><path d="M 4.078125 -16.984375 C 3.253906 -16.984375 2.578125 -17.222656 2.046875 -17.703125 C 1.523438 -18.191406 1.265625 -18.796875 1.265625 -19.515625 C 1.265625 -20.242188 1.523438 -20.851562 2.046875 -21.34375 C 2.578125 -21.832031 3.253906 -22.078125 4.078125 -22.078125 C 4.890625 -22.078125 5.554688 -21.832031 6.078125 -21.34375 C 6.597656 -20.851562 6.859375 -20.242188 6.859375 -19.515625 C 6.859375 -18.796875 6.597656 -18.191406 6.078125 -17.703125 C 5.554688 -17.222656 4.890625 -16.984375 4.078125 -16.984375 Z M 6.421875 -15.375 L 6.421875 0 L 1.703125 0 L 1.703125 -15.375 Z M 6.421875 -15.375 "/></g></g></g><g fill="#11998e" fill-opacity="1"><g transform="translate(24.792452, 29.344808)"><g><path d="M 10.796875 0 L 7.859375 -4.265625 L 5.375 0 L 0.28125 0 L 5.34375 -7.859375 L 0.140625 -15.375 L 5.4375 -15.375 L 8.375 -11.140625 L 10.859375 -15.375 L 15.953125 -15.375 L 10.796875 -7.640625 L 16.09375 0 Z M 10.796875 0 "/></g></g></g><g fill="#11998e" fill-opacity="1"><g transform="translate(40.448207, 29.344808)"><g><path d="M 8.703125 0.21875 C 7.203125 0.21875 5.847656 -0.0976562 4.640625 -0.734375 C 3.441406 -1.378906 2.492188 -2.300781 1.796875 -3.5 C 1.109375 -4.695312 0.765625 -6.09375 0.765625 -7.6875 C 0.765625 -9.269531 1.113281 -10.660156 1.8125 -11.859375 C 2.507812 -13.066406 3.460938 -13.988281 4.671875 -14.625 C 5.890625 -15.269531 7.253906 -15.59375 8.765625 -15.59375 C 10.273438 -15.59375 11.632812 -15.269531 12.84375 -14.625 C 14.050781 -13.988281 15.003906 -13.066406 15.703125 -11.859375 C 16.410156 -10.660156 16.765625 -9.269531 16.765625 -7.6875 C 16.765625 -6.101562 16.410156 -4.707031 15.703125 -3.5 C 14.992188 -2.300781 14.023438 -1.378906 12.796875 -0.734375 C 11.578125 -0.0976562 10.210938 0.21875 8.703125 0.21875 Z M 8.703125 -3.859375 C 9.609375 -3.859375 10.378906 -4.1875 11.015625 -4.84375 C 11.648438 -5.507812 11.96875 -6.457031 11.96875 -7.6875 C 11.96875 -8.914062 11.65625 -9.859375 11.03125 -10.515625 C 10.414062 -11.179688 9.660156 -11.515625 8.765625 -11.515625 C 7.847656 -11.515625 7.082031 -11.1875 6.46875 -10.53125 C 5.863281 -9.882812 5.5625 -8.9375 5.5625 -7.6875 C 5.5625 -6.457031 5.859375 -5.507812 6.453125 -4.84375 C 7.054688 -4.1875 7.804688 -3.859375 8.703125 -3.859375 Z M 8.703125 -3.859375 "/></g></g></g><g fill="#11998e" fill-opacity="1"><g transform="translate(57.454565, 29.344808)"><g><path d="M 6.421875 -12.8125 C 6.972656 -13.65625 7.660156 -14.320312 8.484375 -14.8125 C 9.316406 -15.300781 10.238281 -15.546875 11.25 -15.546875 L 11.25 -10.5625 L 9.953125 -10.5625 C 8.773438 -10.5625 7.890625 -10.304688 7.296875 -9.796875 C 6.710938 -9.296875 6.421875 -8.410156 6.421875 -7.140625 L 6.421875 0 L 1.703125 0 L 1.703125 -15.375 L 6.421875 -15.375 Z M 6.421875 -12.8125 "/></g></g></g><g fill="#11998e" fill-opacity="1"><g transform="translate(68.700202, 29.344808)"><g><path d="M 0.765625 -7.71875 C 0.765625 -9.300781 1.0625 -10.6875 1.65625 -11.875 C 2.257812 -13.070312 3.078125 -13.988281 4.109375 -14.625 C 5.140625 -15.269531 6.285156 -15.59375 7.546875 -15.59375 C 8.628906 -15.59375 9.578125 -15.375 10.390625 -14.9375 C 11.210938 -14.5 11.847656 -13.921875 12.296875 -13.203125 L 12.296875 -15.375 L 17 -15.375 L 17 0 L 12.296875 0 L 12.296875 -2.171875 C 11.835938 -1.460938 11.195312 -0.882812 10.375 -0.4375 C 9.5625 0 8.613281 0.21875 7.53125 0.21875 C 6.28125 0.21875 5.140625 -0.101562 4.109375 -0.75 C 3.078125 -1.40625 2.257812 -2.332031 1.65625 -3.53125 C 1.0625 -4.738281 0.765625 -6.132812 0.765625 -7.71875 Z M 12.296875 -7.6875 C 12.296875 -8.863281 11.96875 -9.789062 11.3125 -10.46875 C 10.664062 -11.15625 9.875 -11.5 8.9375 -11.5 C 8 -11.5 7.203125 -11.160156 6.546875 -10.484375 C 5.890625 -9.816406 5.5625 -8.894531 5.5625 -7.71875 C 5.5625 -6.539062 5.890625 -5.609375 6.546875 -4.921875 C 7.203125 -4.234375 8 -3.890625 8.9375 -3.890625 C 9.875 -3.890625 10.664062 -4.226562 11.3125 -4.90625 C 11.96875 -5.582031 12.296875 -6.507812 12.296875 -7.6875 Z M 12.296875 -7.6875 "/></g></g></g></g></g><g mask="url(#3ae8ae3e1a)"><g transform="matrix(1, 0, 0, 1, 50, 41)"><g clip-path="url(#ab46b2d9ca)"><g clip-path="url(#6f04112af9)"><g><g clip-path="url(#c6ae4b0932)"><g fill="#000000" fill-opacity="1"><g transform="translate(1.015634, 12.321294)"><g><path d="M 6.453125 -9.5625 C 6.765625 -9.070312 6.96875 -8.503906 7.0625 -7.859375 C 7.15625 -7.222656 7.160156 -6.578125 7.078125 -5.921875 C 7.003906 -5.273438 6.875 -4.671875 6.6875 -4.109375 C 6.5 -3.546875 6.269531 -3.085938 6 -2.734375 C 5.5625 -2.171875 5.050781 -1.675781 4.46875 -1.25 C 3.894531 -0.832031 3.289062 -0.503906 2.65625 -0.265625 C 2.03125 -0.0234375 1.421875 0.09375 0.828125 0.09375 C 0.722656 0.09375 0.613281 0.0859375 0.5 0.078125 C 0.382812 0.0664062 0.289062 0.0195312 0.21875 -0.0625 C 0.144531 -0.15625 0.117188 -0.257812 0.140625 -0.375 L 1.78125 -10.765625 C 1.8125 -10.972656 1.929688 -11.082031 2.140625 -11.09375 C 2.171875 -11.09375 2.296875 -11.097656 2.515625 -11.109375 C 2.742188 -11.117188 3.03125 -11.109375 3.375 -11.078125 C 3.726562 -11.046875 4.097656 -10.976562 4.484375 -10.875 C 4.867188 -10.78125 5.234375 -10.625 5.578125 -10.40625 C 5.921875 -10.195312 6.210938 -9.914062 6.453125 -9.5625 Z M 5.359375 -3.21875 C 5.597656 -3.507812 5.796875 -3.90625 5.953125 -4.40625 C 6.117188 -4.90625 6.234375 -5.441406 6.296875 -6.015625 C 6.367188 -6.585938 6.363281 -7.148438 6.28125 -7.703125 C 6.207031 -8.253906 6.039062 -8.734375 5.78125 -9.140625 C 5.613281 -9.410156 5.382812 -9.625 5.09375 -9.78125 C 4.800781 -9.945312 4.488281 -10.066406 4.15625 -10.140625 C 3.820312 -10.222656 3.507812 -10.273438 3.21875 -10.296875 C 2.925781 -10.316406 2.691406 -10.328125 2.515625 -10.328125 L 0.984375 -0.703125 C 1.492188 -0.722656 2.015625 -0.835938 2.546875 -1.046875 C 3.078125 -1.265625 3.585938 -1.554688 4.078125 -1.921875 C 4.566406 -2.296875 4.992188 -2.726562 5.359375 -3.21875 Z M 5.359375 -3.21875 "/></g></g></g><g fill="#000000" fill-opacity="1"><g transform="translate(8.182336, 12.321294)"><g><path d="M 4.09375 -1.53125 C 4.175781 -1.59375 4.269531 -1.617188 4.375 -1.609375 C 4.476562 -1.609375 4.570312 -1.566406 4.65625 -1.484375 C 4.726562 -1.398438 4.757812 -1.300781 4.75 -1.1875 C 4.738281 -1.082031 4.6875 -0.992188 4.59375 -0.921875 C 4.363281 -0.722656 4.070312 -0.53125 3.71875 -0.34375 C 3.363281 -0.164062 2.96875 -0.078125 2.53125 -0.078125 C 2.40625 -0.078125 2.28125 -0.0859375 2.15625 -0.109375 C 1.5625 -0.191406 1.109375 -0.488281 0.796875 -1 C 0.617188 -1.3125 0.519531 -1.660156 0.5 -2.046875 C 0.488281 -2.085938 0.484375 -2.125 0.484375 -2.15625 C 0.484375 -2.15625 0.488281 -2.160156 0.5 -2.171875 C 0.488281 -2.546875 0.554688 -2.941406 0.703125 -3.359375 C 0.859375 -3.773438 1.101562 -4.148438 1.4375 -4.484375 C 1.78125 -4.828125 2.179688 -5.085938 2.640625 -5.265625 C 2.960938 -5.398438 3.269531 -5.472656 3.5625 -5.484375 C 3.851562 -5.503906 4.097656 -5.457031 4.296875 -5.34375 C 4.671875 -5.164062 4.875 -4.882812 4.90625 -4.5 C 4.925781 -4.226562 4.847656 -3.941406 4.671875 -3.640625 C 4.492188 -3.347656 4.238281 -3.066406 3.90625 -2.796875 C 3.382812 -2.421875 2.894531 -2.15625 2.4375 -2 C 1.976562 -1.851562 1.609375 -1.769531 1.328125 -1.75 C 1.367188 -1.625 1.414062 -1.507812 1.46875 -1.40625 C 1.644531 -1.101562 1.910156 -0.929688 2.265625 -0.890625 C 2.640625 -0.828125 2.988281 -0.875 3.3125 -1.03125 C 3.632812 -1.1875 3.894531 -1.351562 4.09375 -1.53125 Z M 1.453125 -3.09375 C 1.378906 -2.90625 1.332031 -2.71875 1.3125 -2.53125 C 1.539062 -2.5625 1.84375 -2.640625 2.21875 -2.765625 C 2.59375 -2.890625 2.992188 -3.113281 3.421875 -3.4375 C 3.679688 -3.625 3.863281 -3.804688 3.96875 -3.984375 C 4.070312 -4.171875 4.125 -4.320312 4.125 -4.4375 C 4.113281 -4.457031 4.097656 -4.488281 4.078125 -4.53125 C 4.054688 -4.570312 4.007812 -4.613281 3.9375 -4.65625 C 3.882812 -4.6875 3.796875 -4.703125 3.671875 -4.703125 C 3.578125 -4.703125 3.46875 -4.6875 3.34375 -4.65625 C 3.21875 -4.632812 3.078125 -4.59375 2.921875 -4.53125 C 2.578125 -4.394531 2.273438 -4.195312 2.015625 -3.9375 C 1.753906 -3.6875 1.566406 -3.40625 1.453125 -3.09375 Z M 1.453125 -3.09375 "/></g></g></g><g fill="#000000" fill-opacity="1"><g transform="translate(13.565354, 12.321294)"><g><path d="M 1.859375 -4.515625 C 1.753906 -4.460938 1.6875 -4.40625 1.65625 -4.34375 C 1.625 -4.289062 1.609375 -4.238281 1.609375 -4.1875 C 1.578125 -4.019531 1.660156 -3.863281 1.859375 -3.71875 C 2.066406 -3.570312 2.394531 -3.398438 2.84375 -3.203125 C 3.238281 -3.035156 3.535156 -2.851562 3.734375 -2.65625 C 3.941406 -2.457031 4.082031 -2.265625 4.15625 -2.078125 C 4.226562 -1.898438 4.269531 -1.753906 4.28125 -1.640625 C 4.3125 -1.179688 4.128906 -0.828125 3.734375 -0.578125 C 3.378906 -0.347656 2.984375 -0.234375 2.546875 -0.234375 C 2.347656 -0.234375 2.15625 -0.253906 1.96875 -0.296875 C 1.289062 -0.484375 0.78125 -0.914062 0.4375 -1.59375 C 0.375 -1.6875 0.359375 -1.785156 0.390625 -1.890625 C 0.429688 -1.992188 0.5 -2.070312 0.59375 -2.125 C 0.6875 -2.175781 0.785156 -2.1875 0.890625 -2.15625 C 0.992188 -2.125 1.066406 -2.054688 1.109375 -1.953125 C 1.367188 -1.472656 1.722656 -1.175781 2.171875 -1.0625 C 2.578125 -0.957031 2.957031 -1.015625 3.3125 -1.234375 C 3.445312 -1.328125 3.507812 -1.441406 3.5 -1.578125 C 3.488281 -1.734375 3.398438 -1.890625 3.234375 -2.046875 C 3.066406 -2.210938 2.832031 -2.359375 2.53125 -2.484375 C 2.257812 -2.609375 1.984375 -2.75 1.703125 -2.90625 C 1.421875 -3.0625 1.191406 -3.253906 1.015625 -3.484375 C 0.835938 -3.710938 0.773438 -3.988281 0.828125 -4.3125 C 0.890625 -4.71875 1.113281 -5.015625 1.5 -5.203125 C 1.8125 -5.378906 2.175781 -5.457031 2.59375 -5.4375 C 3.019531 -5.414062 3.367188 -5.34375 3.640625 -5.21875 C 4.078125 -5.007812 4.40625 -4.769531 4.625 -4.5 C 4.6875 -4.414062 4.707031 -4.320312 4.6875 -4.21875 C 4.675781 -4.113281 4.625 -4.03125 4.53125 -3.96875 C 4.445312 -3.894531 4.351562 -3.863281 4.25 -3.875 C 4.144531 -3.894531 4.0625 -3.945312 4 -4.03125 C 3.945312 -4.082031 3.867188 -4.148438 3.765625 -4.234375 C 3.660156 -4.316406 3.507812 -4.40625 3.3125 -4.5 C 3.132812 -4.59375 2.894531 -4.644531 2.59375 -4.65625 C 2.300781 -4.664062 2.054688 -4.617188 1.859375 -4.515625 Z M 1.859375 -4.515625 "/></g></g></g><g fill="#000000" fill-opacity="1"><g transform="translate(18.566149, 12.321294)"><g><path d="M 1.65625 -5.421875 C 1.757812 -5.398438 1.84375 -5.34375 1.90625 -5.25 C 1.96875 -5.164062 1.988281 -5.070312 1.96875 -4.96875 L 1.125 -0.171875 C 1.082031 0.046875 0.957031 0.15625 0.75 0.15625 C 0.726562 0.15625 0.703125 0.15625 0.671875 0.15625 C 0.566406 0.132812 0.484375 0.0820312 0.421875 0 C 0.359375 -0.09375 0.332031 -0.191406 0.34375 -0.296875 L 1.1875 -5.109375 C 1.207031 -5.210938 1.265625 -5.289062 1.359375 -5.34375 C 1.453125 -5.40625 1.550781 -5.429688 1.65625 -5.421875 Z M 1.96875 -8.5 C 2.113281 -8.5 2.234375 -8.453125 2.328125 -8.359375 C 2.429688 -8.265625 2.484375 -8.148438 2.484375 -8.015625 C 2.484375 -7.867188 2.429688 -7.742188 2.328125 -7.640625 C 2.234375 -7.546875 2.113281 -7.5 1.96875 -7.5 C 1.832031 -7.5 1.71875 -7.546875 1.625 -7.640625 C 1.53125 -7.742188 1.484375 -7.867188 1.484375 -8.015625 C 1.484375 -8.148438 1.53125 -8.265625 1.625 -8.359375 C 1.71875 -8.453125 1.832031 -8.5 1.96875 -8.5 Z M 1.96875 -8.5 "/></g></g></g><g fill="#000000" fill-opacity="1"><g transform="translate(20.891356, 12.321294)"><g><path d="M 5.046875 -5.328125 C 5.148438 -5.304688 5.234375 -5.253906 5.296875 -5.171875 C 5.359375 -5.085938 5.378906 -4.988281 5.359375 -4.875 C 5.359375 -4.84375 5.332031 -4.671875 5.28125 -4.359375 C 5.226562 -4.046875 5.160156 -3.65625 5.078125 -3.1875 C 5.003906 -2.726562 4.925781 -2.25 4.84375 -1.75 C 4.757812 -1.25 4.675781 -0.789062 4.59375 -0.375 C 4.507812 0.0390625 4.445312 0.359375 4.40625 0.578125 C 4.332031 0.941406 4.234375 1.347656 4.109375 1.796875 C 3.984375 2.242188 3.828125 2.691406 3.640625 3.140625 C 3.460938 3.585938 3.25 3.992188 3 4.359375 C 2.75 4.734375 2.460938 5.03125 2.140625 5.25 C 1.828125 5.476562 1.472656 5.59375 1.078125 5.59375 C 1.066406 5.59375 1.054688 5.59375 1.046875 5.59375 C 0.597656 5.59375 0.253906 5.523438 0.015625 5.390625 C -0.210938 5.265625 -0.375 5.132812 -0.46875 5 C -0.570312 4.875 -0.628906 4.796875 -0.640625 4.765625 C -0.679688 4.648438 -0.679688 4.546875 -0.640625 4.453125 C -0.597656 4.359375 -0.519531 4.289062 -0.40625 4.25 C -0.3125 4.207031 -0.210938 4.207031 -0.109375 4.25 C -0.015625 4.289062 0.0507812 4.363281 0.09375 4.46875 C 0.09375 4.46875 0.15625 4.523438 0.28125 4.640625 C 0.40625 4.753906 0.660156 4.8125 1.046875 4.8125 C 1.054688 4.8125 1.0625 4.8125 1.0625 4.8125 C 1.582031 4.8125 2.070312 4.421875 2.53125 3.640625 C 2.988281 2.859375 3.359375 1.773438 3.640625 0.390625 C 3.679688 0.179688 3.742188 -0.144531 3.828125 -0.59375 C 3.910156 -1.050781 4 -1.53125 4.09375 -2.03125 C 3.332031 -0.882812 2.617188 -0.210938 1.953125 -0.015625 C 1.804688 0.0234375 1.664062 0.046875 1.53125 0.046875 C 1.28125 0.046875 1.050781 -0.0078125 0.84375 -0.125 C 0.769531 -0.164062 0.691406 -0.238281 0.609375 -0.34375 C 0.523438 -0.445312 0.457031 -0.59375 0.40625 -0.78125 C 0.34375 -1.019531 0.335938 -1.3125 0.390625 -1.65625 C 0.441406 -2 0.53125 -2.34375 0.65625 -2.6875 C 0.78125 -3.039062 0.9375 -3.359375 1.125 -3.640625 C 1.5 -4.203125 1.921875 -4.648438 2.390625 -4.984375 C 2.867188 -5.316406 3.3125 -5.484375 3.71875 -5.484375 C 3.90625 -5.484375 4.070312 -5.441406 4.21875 -5.359375 C 4.363281 -5.285156 4.5 -5.195312 4.625 -5.09375 C 4.707031 -5.28125 4.847656 -5.359375 5.046875 -5.328125 Z M 1.71875 -0.765625 C 1.851562 -0.804688 2.039062 -0.921875 2.28125 -1.109375 C 2.53125 -1.304688 2.828125 -1.640625 3.171875 -2.109375 C 3.523438 -2.585938 3.929688 -3.269531 4.390625 -4.15625 C 4.316406 -4.269531 4.21875 -4.390625 4.09375 -4.515625 C 3.96875 -4.640625 3.84375 -4.703125 3.71875 -4.703125 C 3.488281 -4.703125 3.191406 -4.578125 2.828125 -4.328125 C 2.460938 -4.078125 2.113281 -3.707031 1.78125 -3.21875 C 1.5625 -2.882812 1.398438 -2.539062 1.296875 -2.1875 C 1.203125 -1.84375 1.148438 -1.539062 1.140625 -1.28125 C 1.140625 -1.019531 1.171875 -0.863281 1.234375 -0.8125 C 1.390625 -0.726562 1.550781 -0.710938 1.71875 -0.765625 Z M 1.71875 -0.765625 "/></g></g></g><g fill="#000000" fill-opacity="1"><g transform="translate(26.624746, 12.321294)"><g><path d="M 4.96875 -5.109375 C 5.132812 -4.960938 5.242188 -4.710938 5.296875 -4.359375 C 5.359375 -4.003906 5.375 -3.585938 5.34375 -3.109375 C 5.320312 -2.640625 5.28125 -2.164062 5.21875 -1.6875 C 5.15625 -1.207031 5.085938 -0.78125 5.015625 -0.40625 C 5.003906 -0.300781 4.953125 -0.21875 4.859375 -0.15625 C 4.773438 -0.09375 4.675781 -0.0703125 4.5625 -0.09375 C 4.457031 -0.113281 4.375 -0.164062 4.3125 -0.25 C 4.25 -0.34375 4.226562 -0.445312 4.25 -0.5625 C 4.351562 -1.175781 4.429688 -1.765625 4.484375 -2.328125 C 4.546875 -2.898438 4.570312 -3.378906 4.5625 -3.765625 C 4.5625 -4.160156 4.523438 -4.40625 4.453125 -4.5 C 4.347656 -4.59375 4.234375 -4.617188 4.109375 -4.578125 C 3.859375 -4.515625 3.59375 -4.332031 3.3125 -4.03125 C 3.039062 -3.726562 2.769531 -3.359375 2.5 -2.921875 C 2.238281 -2.492188 1.988281 -2.046875 1.75 -1.578125 C 1.507812 -1.109375 1.304688 -0.679688 1.140625 -0.296875 C 1.078125 -0.140625 0.957031 -0.0625 0.78125 -0.0625 C 0.75 -0.0625 0.710938 -0.0664062 0.671875 -0.078125 C 0.578125 -0.109375 0.5 -0.164062 0.4375 -0.25 C 0.382812 -0.332031 0.367188 -0.425781 0.390625 -0.53125 L 1.171875 -5.109375 C 1.179688 -5.210938 1.234375 -5.296875 1.328125 -5.359375 C 1.421875 -5.429688 1.519531 -5.453125 1.625 -5.421875 C 1.726562 -5.410156 1.8125 -5.359375 1.875 -5.265625 C 1.9375 -5.179688 1.957031 -5.085938 1.9375 -4.984375 L 1.609375 -2.96875 C 1.816406 -3.320312 2.046875 -3.664062 2.296875 -4 C 2.554688 -4.34375 2.820312 -4.632812 3.09375 -4.875 C 3.363281 -5.113281 3.640625 -5.269531 3.921875 -5.34375 C 4.296875 -5.445312 4.644531 -5.367188 4.96875 -5.109375 Z M 4.96875 -5.109375 "/></g></g></g><g fill="#000000" fill-opacity="1"><g transform="translate(32.644812, 12.321294)"><g><path d="M 0.578125 -0.8125 C 0.703125 -0.8125 0.8125 -0.765625 0.90625 -0.671875 C 1 -0.585938 1.046875 -0.472656 1.046875 -0.328125 C 1.046875 -0.203125 1 -0.09375 0.90625 0 C 0.8125 0.09375 0.703125 0.140625 0.578125 0.140625 C 0.429688 0.140625 0.3125 0.09375 0.21875 0 C 0.132812 -0.09375 0.09375 -0.203125 0.09375 -0.328125 C 0.09375 -0.472656 0.132812 -0.585938 0.21875 -0.671875 C 0.3125 -0.765625 0.429688 -0.8125 0.578125 -0.8125 Z M 0.578125 -0.8125 "/></g></g></g><g fill="#000000" fill-opacity="1"><g transform="translate(34.794836, 12.321294)"><g/></g></g><g fill="#000000" fill-opacity="1"><g transform="translate(39.11081, 12.321294)"><g><path d="M 6.453125 -9.5625 C 6.765625 -9.070312 6.96875 -8.503906 7.0625 -7.859375 C 7.15625 -7.222656 7.160156 -6.578125 7.078125 -5.921875 C 7.003906 -5.273438 6.875 -4.671875 6.6875 -4.109375 C 6.5 -3.546875 6.269531 -3.085938 6 -2.734375 C 5.5625 -2.171875 5.050781 -1.675781 4.46875 -1.25 C 3.894531 -0.832031 3.289062 -0.503906 2.65625 -0.265625 C 2.03125 -0.0234375 1.421875 0.09375 0.828125 0.09375 C 0.722656 0.09375 0.613281 0.0859375 0.5 0.078125 C 0.382812 0.0664062 0.289062 0.0195312 0.21875 -0.0625 C 0.144531 -0.15625 0.117188 -0.257812 0.140625 -0.375 L 1.78125 -10.765625 C 1.8125 -10.972656 1.929688 -11.082031 2.140625 -11.09375 C 2.171875 -11.09375 2.296875 -11.097656 2.515625 -11.109375 C 2.742188 -11.117188 3.03125 -11.109375 3.375 -11.078125 C 3.726562 -11.046875 4.097656 -10.976562 4.484375 -10.875 C 4.867188 -10.78125 5.234375 -10.625 5.578125 -10.40625 C 5.921875 -10.195312 6.210938 -9.914062 6.453125 -9.5625 Z M 5.359375 -3.21875 C 5.597656 -3.507812 5.796875 -3.90625 5.953125 -4.40625 C 6.117188 -4.90625 6.234375 -5.441406 6.296875 -6.015625 C 6.367188 -6.585938 6.363281 -7.148438 6.28125 -7.703125 C 6.207031 -8.253906 6.039062 -8.734375 5.78125 -9.140625 C 5.613281 -9.410156 5.382812 -9.625 5.09375 -9.78125 C 4.800781 -9.945312 4.488281 -10.066406 4.15625 -10.140625 C 3.820312 -10.222656 3.507812 -10.273438 3.21875 -10.296875 C 2.925781 -10.316406 2.691406 -10.328125 2.515625 -10.328125 L 0.984375 -0.703125 C 1.492188 -0.722656 2.015625 -0.835938 2.546875 -1.046875 C 3.078125 -1.265625 3.585938 -1.554688 4.078125 -1.921875 C 4.566406 -2.296875 4.992188 -2.726562 5.359375 -3.21875 Z M 5.359375 -3.21875 "/></g></g></g><g fill="#000000" fill-opacity="1"><g transform="translate(46.325293, 12.321294)"><g><path d="M 5 -5.0625 C 5.082031 -5 5.128906 -4.910156 5.140625 -4.796875 C 5.160156 -4.691406 5.140625 -4.59375 5.078125 -4.5 C 5.015625 -4.414062 4.929688 -4.363281 4.828125 -4.34375 C 4.722656 -4.332031 4.625 -4.359375 4.53125 -4.421875 C 4.519531 -4.421875 4.441406 -4.445312 4.296875 -4.5 C 4.160156 -4.5625 3.960938 -4.582031 3.703125 -4.5625 C 3.453125 -4.539062 3.160156 -4.414062 2.828125 -4.1875 C 2.660156 -4.070312 2.492188 -3.867188 2.328125 -3.578125 C 2.160156 -3.296875 2.003906 -2.96875 1.859375 -2.59375 C 1.722656 -2.21875 1.597656 -1.84375 1.484375 -1.46875 C 1.367188 -1.09375 1.273438 -0.757812 1.203125 -0.46875 C 1.160156 -0.257812 1.035156 -0.15625 0.828125 -0.15625 C 0.796875 -0.15625 0.769531 -0.160156 0.75 -0.171875 C 0.65625 -0.179688 0.570312 -0.234375 0.5 -0.328125 C 0.4375 -0.421875 0.421875 -0.519531 0.453125 -0.625 L 1.15625 -5.234375 C 1.164062 -5.335938 1.21875 -5.421875 1.3125 -5.484375 C 1.40625 -5.554688 1.503906 -5.585938 1.609375 -5.578125 C 1.710938 -5.554688 1.796875 -5.5 1.859375 -5.40625 C 1.921875 -5.320312 1.945312 -5.226562 1.9375 -5.125 L 1.796875 -4.203125 C 1.984375 -4.492188 2.179688 -4.707031 2.390625 -4.84375 C 2.742188 -5.09375 3.082031 -5.25 3.40625 -5.3125 C 3.726562 -5.375 4.003906 -5.382812 4.234375 -5.34375 C 4.460938 -5.300781 4.644531 -5.242188 4.78125 -5.171875 C 4.914062 -5.097656 4.988281 -5.0625 5 -5.0625 Z M 5 -5.0625 "/></g></g></g><g fill="#000000" fill-opacity="1"><g transform="translate(51.182726, 12.321294)"><g><path d="M 4.765625 -4.140625 C 4.804688 -3.609375 4.769531 -3.140625 4.65625 -2.734375 C 4.539062 -2.335938 4.394531 -2 4.21875 -1.71875 C 4.050781 -1.4375 3.890625 -1.210938 3.734375 -1.046875 C 3.492188 -0.785156 3.238281 -0.582031 2.96875 -0.4375 C 2.695312 -0.289062 2.441406 -0.21875 2.203125 -0.21875 C 1.679688 -0.21875 1.269531 -0.375 0.96875 -0.6875 C 0.625 -1.070312 0.476562 -1.65625 0.53125 -2.4375 C 0.5625 -2.957031 0.671875 -3.410156 0.859375 -3.796875 C 1.054688 -4.179688 1.289062 -4.503906 1.5625 -4.765625 C 1.84375 -5.023438 2.113281 -5.21875 2.375 -5.34375 C 2.976562 -5.632812 3.523438 -5.640625 4.015625 -5.359375 C 4.472656 -5.097656 4.722656 -4.691406 4.765625 -4.140625 Z M 3.171875 -1.59375 C 3.285156 -1.71875 3.410156 -1.890625 3.546875 -2.109375 C 3.679688 -2.335938 3.796875 -2.613281 3.890625 -2.9375 C 3.984375 -3.257812 4.015625 -3.640625 3.984375 -4.078125 C 3.960938 -4.347656 3.835938 -4.550781 3.609375 -4.6875 C 3.503906 -4.75 3.382812 -4.78125 3.25 -4.78125 C 3.082031 -4.78125 2.90625 -4.738281 2.71875 -4.65625 C 2.394531 -4.488281 2.085938 -4.207031 1.796875 -3.8125 C 1.515625 -3.425781 1.351562 -2.953125 1.3125 -2.390625 C 1.257812 -1.835938 1.335938 -1.445312 1.546875 -1.21875 C 1.691406 -1.070312 1.910156 -1 2.203125 -1 C 2.304688 -1 2.441406 -1.046875 2.609375 -1.140625 C 2.785156 -1.242188 2.972656 -1.394531 3.171875 -1.59375 Z M 3.171875 -1.59375 "/></g></g></g><g fill="#000000" fill-opacity="1"><g transform="translate(56.358704, 12.321294)"><g><path d="M 5.265625 -4.375 C 5.460938 -3.894531 5.472656 -3.34375 5.296875 -2.71875 C 5.117188 -2.09375 4.789062 -1.503906 4.3125 -0.953125 C 4.007812 -0.585938 3.625 -0.296875 3.15625 -0.078125 C 2.695312 0.128906 2.25 0.234375 1.8125 0.234375 C 1.757812 0.234375 1.710938 0.226562 1.671875 0.21875 C 1.484375 0.207031 1.296875 0.164062 1.109375 0.09375 L 0.265625 5.21875 C 0.222656 5.445312 0.09375 5.5625 -0.125 5.5625 C -0.144531 5.5625 -0.164062 5.554688 -0.1875 5.546875 C -0.289062 5.535156 -0.375 5.484375 -0.4375 5.390625 C -0.507812 5.296875 -0.535156 5.195312 -0.515625 5.09375 L 1.171875 -5.03125 C 1.179688 -5.132812 1.234375 -5.210938 1.328125 -5.265625 C 1.421875 -5.328125 1.519531 -5.351562 1.625 -5.34375 C 1.726562 -5.320312 1.8125 -5.269531 1.875 -5.1875 C 1.9375 -5.101562 1.960938 -5.003906 1.953125 -4.890625 L 1.765625 -3.734375 C 1.878906 -3.890625 2.007812 -4.035156 2.15625 -4.171875 C 2.300781 -4.316406 2.457031 -4.453125 2.625 -4.578125 C 2.851562 -4.753906 3.140625 -4.898438 3.484375 -5.015625 C 3.835938 -5.140625 4.175781 -5.15625 4.5 -5.0625 C 4.863281 -4.96875 5.117188 -4.738281 5.265625 -4.375 Z M 3.71875 -1.484375 C 4.15625 -1.984375 4.425781 -2.472656 4.53125 -2.953125 C 4.644531 -3.429688 4.644531 -3.8125 4.53125 -4.09375 C 4.476562 -4.207031 4.394531 -4.28125 4.28125 -4.3125 C 4.144531 -4.351562 3.960938 -4.335938 3.734375 -4.265625 C 3.503906 -4.203125 3.289062 -4.097656 3.09375 -3.953125 C 2.75 -3.703125 2.46875 -3.414062 2.25 -3.09375 C 2.03125 -2.78125 1.859375 -2.460938 1.734375 -2.140625 C 1.609375 -1.816406 1.515625 -1.523438 1.453125 -1.265625 C 1.390625 -1.003906 1.351562 -0.804688 1.34375 -0.671875 C 1.394531 -0.628906 1.457031 -0.597656 1.53125 -0.578125 C 1.601562 -0.566406 1.664062 -0.5625 1.71875 -0.5625 C 2 -0.539062 2.332031 -0.601562 2.71875 -0.75 C 3.101562 -0.90625 3.4375 -1.148438 3.71875 -1.484375 Z M 3.71875 -1.484375 "/></g></g></g><g fill="#000000" fill-opacity="1"><g transform="translate(62.155799, 12.321294)"><g><path d="M 0.578125 -0.8125 C 0.703125 -0.8125 0.8125 -0.765625 0.90625 -0.671875 C 1 -0.585938 1.046875 -0.472656 1.046875 -0.328125 C 1.046875 -0.203125 1 -0.09375 0.90625 0 C 0.8125 0.09375 0.703125 0.140625 0.578125 0.140625 C 0.429688 0.140625 0.3125 0.09375 0.21875 0 C 0.132812 -0.09375 0.09375 -0.203125 0.09375 -0.328125 C 0.09375 -0.472656 0.132812 -0.585938 0.21875 -0.671875 C 0.3125 -0.765625 0.429688 -0.8125 0.578125 -0.8125 Z M 0.578125 -0.8125 "/></g></g></g><g fill="#000000" fill-opacity="1"><g transform="translate(64.305824, 12.321294)"><g/></g></g><g fill="#000000" fill-opacity="1"><g transform="translate(68.621798, 12.321294)"><g><path d="M 6.453125 -9.5625 C 6.765625 -9.070312 6.96875 -8.503906 7.0625 -7.859375 C 7.15625 -7.222656 7.160156 -6.578125 7.078125 -5.921875 C 7.003906 -5.273438 6.875 -4.671875 6.6875 -4.109375 C 6.5 -3.546875 6.269531 -3.085938 6 -2.734375 C 5.5625 -2.171875 5.050781 -1.675781 4.46875 -1.25 C 3.894531 -0.832031 3.289062 -0.503906 2.65625 -0.265625 C 2.03125 -0.0234375 1.421875 0.09375 0.828125 0.09375 C 0.722656 0.09375 0.613281 0.0859375 0.5 0.078125 C 0.382812 0.0664062 0.289062 0.0195312 0.21875 -0.0625 C 0.144531 -0.15625 0.117188 -0.257812 0.140625 -0.375 L 1.78125 -10.765625 C 1.8125 -10.972656 1.929688 -11.082031 2.140625 -11.09375 C 2.171875 -11.09375 2.296875 -11.097656 2.515625 -11.109375 C 2.742188 -11.117188 3.03125 -11.109375 3.375 -11.078125 C 3.726562 -11.046875 4.097656 -10.976562 4.484375 -10.875 C 4.867188 -10.78125 5.234375 -10.625 5.578125 -10.40625 C 5.921875 -10.195312 6.210938 -9.914062 6.453125 -9.5625 Z M 5.359375 -3.21875 C 5.597656 -3.507812 5.796875 -3.90625 5.953125 -4.40625 C 6.117188 -4.90625 6.234375 -5.441406 6.296875 -6.015625 C 6.367188 -6.585938 6.363281 -7.148438 6.28125 -7.703125 C 6.207031 -8.253906 6.039062 -8.734375 5.78125 -9.140625 C 5.613281 -9.410156 5.382812 -9.625 5.09375 -9.78125 C 4.800781 -9.945312 4.488281 -10.066406 4.15625 -10.140625 C 3.820312 -10.222656 3.507812 -10.273438 3.21875 -10.296875 C 2.925781 -10.316406 2.691406 -10.328125 2.515625 -10.328125 L 0.984375 -0.703125 C 1.492188 -0.722656 2.015625 -0.835938 2.546875 -1.046875 C 3.078125 -1.265625 3.585938 -1.554688 4.078125 -1.921875 C 4.566406 -2.296875 4.992188 -2.726562 5.359375 -3.21875 Z M 5.359375 -3.21875 "/></g></g></g><g fill="#000000" fill-opacity="1"><g transform="translate(75.7885, 12.321294)"><g><path d="M 4.09375 -1.53125 C 4.175781 -1.59375 4.269531 -1.617188 4.375 -1.609375 C 4.476562 -1.609375 4.570312 -1.566406 4.65625 -1.484375 C 4.726562 -1.398438 4.757812 -1.300781 4.75 -1.1875 C 4.738281 -1.082031 4.6875 -0.992188 4.59375 -0.921875 C 4.363281 -0.722656 4.070312 -0.53125 3.71875 -0.34375 C 3.363281 -0.164062 2.96875 -0.078125 2.53125 -0.078125 C 2.40625 -0.078125 2.28125 -0.0859375 2.15625 -0.109375 C 1.5625 -0.191406 1.109375 -0.488281 0.796875 -1 C 0.617188 -1.3125 0.519531 -1.660156 0.5 -2.046875 C 0.488281 -2.085938 0.484375 -2.125 0.484375 -2.15625 C 0.484375 -2.15625 0.488281 -2.160156 0.5 -2.171875 C 0.488281 -2.546875 0.554688 -2.941406 0.703125 -3.359375 C 0.859375 -3.773438 1.101562 -4.148438 1.4375 -4.484375 C 1.78125 -4.828125 2.179688 -5.085938 2.640625 -5.265625 C 2.960938 -5.398438 3.269531 -5.472656 3.5625 -5.484375 C 3.851562 -5.503906 4.097656 -5.457031 4.296875 -5.34375 C 4.671875 -5.164062 4.875 -4.882812 4.90625 -4.5 C 4.925781 -4.226562 4.847656 -3.941406 4.671875 -3.640625 C 4.492188 -3.347656 4.238281 -3.066406 3.90625 -2.796875 C 3.382812 -2.421875 2.894531 -2.15625 2.4375 -2 C 1.976562 -1.851562 1.609375 -1.769531 1.328125 -1.75 C 1.367188 -1.625 1.414062 -1.507812 1.46875 -1.40625 C 1.644531 -1.101562 1.910156 -0.929688 2.265625 -0.890625 C 2.640625 -0.828125 2.988281 -0.875 3.3125 -1.03125 C 3.632812 -1.1875 3.894531 -1.351562 4.09375 -1.53125 Z M 1.453125 -3.09375 C 1.378906 -2.90625 1.332031 -2.71875 1.3125 -2.53125 C 1.539062 -2.5625 1.84375 -2.640625 2.21875 -2.765625 C 2.59375 -2.890625 2.992188 -3.113281 3.421875 -3.4375 C 3.679688 -3.625 3.863281 -3.804688 3.96875 -3.984375 C 4.070312 -4.171875 4.125 -4.320312 4.125 -4.4375 C 4.113281 -4.457031 4.097656 -4.488281 4.078125 -4.53125 C 4.054688 -4.570312 4.007812 -4.613281 3.9375 -4.65625 C 3.882812 -4.6875 3.796875 -4.703125 3.671875 -4.703125 C 3.578125 -4.703125 3.46875 -4.6875 3.34375 -4.65625 C 3.21875 -4.632812 3.078125 -4.59375 2.921875 -4.53125 C 2.578125 -4.394531 2.273438 -4.195312 2.015625 -3.9375 C 1.753906 -3.6875 1.566406 -3.40625 1.453125 -3.09375 Z M 1.453125 -3.09375 "/></g></g></g><g fill="#000000" fill-opacity="1"><g transform="translate(81.171517, 12.321294)"><g><path d="M 5.265625 -4.375 C 5.460938 -3.894531 5.472656 -3.34375 5.296875 -2.71875 C 5.117188 -2.09375 4.789062 -1.503906 4.3125 -0.953125 C 4.007812 -0.585938 3.625 -0.296875 3.15625 -0.078125 C 2.695312 0.128906 2.25 0.234375 1.8125 0.234375 C 1.757812 0.234375 1.710938 0.226562 1.671875 0.21875 C 1.484375 0.207031 1.296875 0.164062 1.109375 0.09375 L 0.265625 5.21875 C 0.222656 5.445312 0.09375 5.5625 -0.125 5.5625 C -0.144531 5.5625 -0.164062 5.554688 -0.1875 5.546875 C -0.289062 5.535156 -0.375 5.484375 -0.4375 5.390625 C -0.507812 5.296875 -0.535156 5.195312 -0.515625 5.09375 L 1.171875 -5.03125 C 1.179688 -5.132812 1.234375 -5.210938 1.328125 -5.265625 C 1.421875 -5.328125 1.519531 -5.351562 1.625 -5.34375 C 1.726562 -5.320312 1.8125 -5.269531 1.875 -5.1875 C 1.9375 -5.101562 1.960938 -5.003906 1.953125 -4.890625 L 1.765625 -3.734375 C 1.878906 -3.890625 2.007812 -4.035156 2.15625 -4.171875 C 2.300781 -4.316406 2.457031 -4.453125 2.625 -4.578125 C 2.851562 -4.753906 3.140625 -4.898438 3.484375 -5.015625 C 3.835938 -5.140625 4.175781 -5.15625 4.5 -5.0625 C 4.863281 -4.96875 5.117188 -4.738281 5.265625 -4.375 Z M 3.71875 -1.484375 C 4.15625 -1.984375 4.425781 -2.472656 4.53125 -2.953125 C 4.644531 -3.429688 4.644531 -3.8125 4.53125 -4.09375 C 4.476562 -4.207031 4.394531 -4.28125 4.28125 -4.3125 C 4.144531 -4.351562 3.960938 -4.335938 3.734375 -4.265625 C 3.503906 -4.203125 3.289062 -4.097656 3.09375 -3.953125 C 2.75 -3.703125 2.46875 -3.414062 2.25 -3.09375 C 2.03125 -2.78125 1.859375 -2.460938 1.734375 -2.140625 C 1.609375 -1.816406 1.515625 -1.523438 1.453125 -1.265625 C 1.390625 -1.003906 1.351562 -0.804688 1.34375 -0.671875 C 1.394531 -0.628906 1.457031 -0.597656 1.53125 -0.578125 C 1.601562 -0.566406 1.664062 -0.5625 1.71875 -0.5625 C 2 -0.539062 2.332031 -0.601562 2.71875 -0.75 C 3.101562 -0.90625 3.4375 -1.148438 3.71875 -1.484375 Z M 3.71875 -1.484375 "/></g></g></g><g fill="#000000" fill-opacity="1"><g transform="translate(86.968612, 12.321294)"><g><path d="M 2.484375 -10.921875 C 2.585938 -10.898438 2.671875 -10.847656 2.734375 -10.765625 C 2.796875 -10.679688 2.816406 -10.585938 2.796875 -10.484375 L 1.1875 -0.34375 C 1.15625 -0.125 1.03125 -0.015625 0.8125 -0.015625 C 0.789062 -0.015625 0.769531 -0.0195312 0.75 -0.03125 C 0.644531 -0.0390625 0.554688 -0.0859375 0.484375 -0.171875 C 0.421875 -0.265625 0.394531 -0.367188 0.40625 -0.484375 L 2.015625 -10.59375 C 2.035156 -10.695312 2.09375 -10.78125 2.1875 -10.84375 C 2.28125 -10.914062 2.378906 -10.941406 2.484375 -10.921875 Z M 2.484375 -10.921875 "/></g></g></g><g fill="#000000" fill-opacity="1"><g transform="translate(88.863775, 12.321294)"><g><path d="M 4.765625 -4.140625 C 4.804688 -3.609375 4.769531 -3.140625 4.65625 -2.734375 C 4.539062 -2.335938 4.394531 -2 4.21875 -1.71875 C 4.050781 -1.4375 3.890625 -1.210938 3.734375 -1.046875 C 3.492188 -0.785156 3.238281 -0.582031 2.96875 -0.4375 C 2.695312 -0.289062 2.441406 -0.21875 2.203125 -0.21875 C 1.679688 -0.21875 1.269531 -0.375 0.96875 -0.6875 C 0.625 -1.070312 0.476562 -1.65625 0.53125 -2.4375 C 0.5625 -2.957031 0.671875 -3.410156 0.859375 -3.796875 C 1.054688 -4.179688 1.289062 -4.503906 1.5625 -4.765625 C 1.84375 -5.023438 2.113281 -5.21875 2.375 -5.34375 C 2.976562 -5.632812 3.523438 -5.640625 4.015625 -5.359375 C 4.472656 -5.097656 4.722656 -4.691406 4.765625 -4.140625 Z M 3.171875 -1.59375 C 3.285156 -1.71875 3.410156 -1.890625 3.546875 -2.109375 C 3.679688 -2.335938 3.796875 -2.613281 3.890625 -2.9375 C 3.984375 -3.257812 4.015625 -3.640625 3.984375 -4.078125 C 3.960938 -4.347656 3.835938 -4.550781 3.609375 -4.6875 C 3.503906 -4.75 3.382812 -4.78125 3.25 -4.78125 C 3.082031 -4.78125 2.90625 -4.738281 2.71875 -4.65625 C 2.394531 -4.488281 2.085938 -4.207031 1.796875 -3.8125 C 1.515625 -3.425781 1.351562 -2.953125 1.3125 -2.390625 C 1.257812 -1.835938 1.335938 -1.445312 1.546875 -1.21875 C 1.691406 -1.070312 1.910156 -1 2.203125 -1 C 2.304688 -1 2.441406 -1.046875 2.609375 -1.140625 C 2.785156 -1.242188 2.972656 -1.394531 3.171875 -1.59375 Z M 3.171875 -1.59375 "/></g></g></g><g fill="#000000" fill-opacity="1"><g transform="translate(94.039754, 12.321294)"><g><path d="M 5.21875 -5.296875 C 5.3125 -5.273438 5.390625 -5.222656 5.453125 -5.140625 C 5.523438 -5.054688 5.550781 -4.960938 5.53125 -4.859375 C 5.53125 -4.816406 5.5 -4.613281 5.4375 -4.25 C 5.382812 -3.894531 5.316406 -3.457031 5.234375 -2.9375 C 5.160156 -2.414062 5.078125 -1.863281 4.984375 -1.28125 C 4.898438 -0.695312 4.8125 -0.15625 4.71875 0.34375 C 4.632812 0.84375 4.566406 1.242188 4.515625 1.546875 C 4.429688 1.960938 4.300781 2.40625 4.125 2.875 C 3.957031 3.34375 3.742188 3.78125 3.484375 4.1875 C 3.234375 4.59375 2.9375 4.898438 2.59375 5.109375 C 2.375 5.234375 2.101562 5.335938 1.78125 5.421875 C 1.46875 5.503906 1.15625 5.546875 0.84375 5.546875 C 0.59375 5.546875 0.351562 5.515625 0.125 5.453125 C -0.09375 5.398438 -0.28125 5.3125 -0.4375 5.1875 C -0.519531 5.125 -0.566406 5.039062 -0.578125 4.9375 C -0.597656 4.832031 -0.570312 4.738281 -0.5 4.65625 C -0.425781 4.5625 -0.335938 4.503906 -0.234375 4.484375 C -0.128906 4.472656 -0.0351562 4.503906 0.046875 4.578125 C 0.160156 4.671875 0.34375 4.726562 0.59375 4.75 C 0.851562 4.769531 1.128906 4.753906 1.421875 4.703125 C 1.710938 4.648438 1.96875 4.554688 2.1875 4.421875 C 2.5 4.234375 2.800781 3.851562 3.09375 3.28125 C 3.382812 2.71875 3.597656 2.085938 3.734375 1.390625 C 3.804688 1.078125 3.882812 0.640625 3.96875 0.078125 C 4.0625 -0.472656 4.15625 -1.054688 4.25 -1.671875 C 3.789062 -0.921875 3.296875 -0.40625 2.765625 -0.125 C 2.304688 0.113281 1.882812 0.164062 1.5 0.03125 C 1.207031 -0.0703125 1 -0.273438 0.875 -0.578125 C 0.75 -0.878906 0.675781 -1.238281 0.65625 -1.65625 C 0.644531 -2.070312 0.664062 -2.492188 0.71875 -2.921875 C 0.769531 -3.359375 0.832031 -3.765625 0.90625 -4.140625 C 0.988281 -4.515625 1.054688 -4.804688 1.109375 -5.015625 C 1.128906 -5.109375 1.1875 -5.179688 1.28125 -5.234375 C 1.382812 -5.296875 1.488281 -5.3125 1.59375 -5.28125 C 1.695312 -5.257812 1.773438 -5.203125 1.828125 -5.109375 C 1.878906 -5.015625 1.894531 -4.914062 1.875 -4.8125 C 1.6875 -4.0625 1.5625 -3.382812 1.5 -2.78125 C 1.4375 -2.1875 1.429688 -1.703125 1.484375 -1.328125 C 1.535156 -0.960938 1.625 -0.757812 1.75 -0.71875 C 1.863281 -0.675781 1.976562 -0.671875 2.09375 -0.703125 C 2.21875 -0.734375 2.320312 -0.769531 2.40625 -0.8125 C 2.488281 -0.863281 2.617188 -0.960938 2.796875 -1.109375 C 2.972656 -1.265625 3.171875 -1.492188 3.390625 -1.796875 C 3.617188 -2.109375 3.847656 -2.523438 4.078125 -3.046875 C 4.316406 -3.566406 4.546875 -4.222656 4.765625 -5.015625 C 4.785156 -5.109375 4.835938 -5.179688 4.921875 -5.234375 C 5.015625 -5.285156 5.113281 -5.304688 5.21875 -5.296875 Z M 5.21875 -5.296875 "/></g></g></g></g></g></g></g></g></g></svg>