<svg xmlns="http://www.w3.org/2000/svg" xmlns:xlink="http://www.w3.org/1999/xlink" width="200" zoomAndPan="magnify" viewBox="0 0 150 60" height="80" preserveAspectRatio="xMidYMid meet" version="1.0"><defs><filter x="0%" y="0%" width="100%" height="100%" id="3586ecb07f"><feColorMatrix values="0 0 0 0 1 0 0 0 0 1 0 0 0 0 1 0 0 0 1 0" color-interpolation-filters="sRGB"/></filter><g/><clipPath id="ae81ef4558"><path d="M 0 5.371094 L 15.75 5.371094 L 15.75 24.121094 L 0 24.121094 Z M 0 5.371094 " clip-rule="nonzero"/></clipPath><mask id="2fadc10f28"><g filter="url(#3586ecb07f)"><rect x="-15" width="180" fill="#000000" y="-6" height="72" fill-opacity="0.33"/></g></mask><clipPath id="230e912022"><path d="M 1.054688 0 L 96.28125 0 L 96.28125 47 L 1.054688 47 Z M 1.054688 0 " clip-rule="nonzero"/></clipPath><clipPath id="47de8d92b2"><path d="M 55 18 L 84 18 L 84 48.71875 L 55 48.71875 Z M 55 18 " clip-rule="nonzero"/></clipPath><clipPath id="d4a8f6b090"><path d="M 93 39 L 96.28125 39 L 96.28125 42 L 93 42 Z M 93 39 " clip-rule="nonzero"/></clipPath><clipPath id="73733ac66a"><rect x="0" width="97" y="0" height="49"/></clipPath><clipPath id="cce533e034"><rect x="0" width="88" y="0" height="40"/></clipPath><mask id="145a20c716"><g filter="url(#3586ecb07f)"><rect x="-15" width="180" fill="#000000" y="-6" height="72" fill-opacity="0.84"/></g></mask><clipPath id="5e2e868e92"><path d="M 0.878906 0.28125 L 100 0.28125 L 100 18.519531 L 0.878906 18.519531 Z M 0.878906 0.28125 " clip-rule="nonzero"/></clipPath><clipPath id="6ddcf7554d"><rect x="0" width="100" y="0" height="19"/></clipPath><clipPath id="052cb30ec9"><rect x="0" width="100" y="0" height="19"/></clipPath></defs><g clip-path="url(#ae81ef4558)"><path fill="#0f766e" d="M 6.1875 24.238281 C 2.777344 24.238281 0 21.460938 0 18.046875 L 0 5.371094 L 4.835938 5.371094 L 4.835938 18.128906 C 4.835938 18.828125 5.40625 19.398438 6.109375 19.398438 L 12.730469 19.398438 L 15.910156 24.238281 Z M 10.523438 17.222656 L 10.523438 5.371094 L 15.363281 5.371094 L 15.363281 17.222656 Z M 10.523438 17.222656 " fill-opacity="1" fill-rule="nonzero"/></g><g mask="url(#2fadc10f28)"><g transform="matrix(1, 0, 0, 1, 11, -0.000000000000001479)"><g clip-path="url(#73733ac66a)"><g clip-path="url(#230e912022)"><path fill="#d9d9d9" d="M 95.671875 36.816406 C 95.863281 36.949219 96.074219 36.722656 96.035156 36.53125 C 95.578125 34.363281 93.332031 33.507812 91.851562 32.269531 C 90.917969 31.492188 90.402344 30.3125 89.378906 29.589844 C 88.863281 29.226562 88.386719 29.304688 87.835938 29.132812 C 87.644531 29.074219 87.417969 29.132812 87.265625 29.285156 C 86.941406 29.609375 86.542969 29.894531 86.164062 30.140625 C 85.34375 30.691406 85 30.597656 84.03125 30.160156 C 83.402344 29.875 83.195312 29.78125 82.527344 29.894531 C 81.652344 30.066406 81.007812 30.617188 80.1875 29.96875 C 79.371094 29.34375 78.839844 28.085938 77.753906 27.933594 C 76.957031 27.820312 76.652344 28.316406 75.984375 27.78125 C 75.433594 27.34375 75.28125 26.660156 74.769531 26.164062 C 74.464844 24.964844 73.894531 24.359375 72.714844 23.597656 C 72.105469 23.199219 72.179688 23.40625 71.992188 22.644531 C 71.894531 22.285156 71.972656 21.960938 71.78125 21.617188 C 71.535156 21.144531 71.019531 20.726562 70.640625 20.382812 C 70.050781 19.851562 68.851562 19.449219 68.605469 18.632812 C 68.433594 18.042969 68.699219 17.738281 68.339844 17.167969 C 67.917969 16.519531 67.042969 16.082031 66.492188 15.570312 C 65.730469 14.867188 65.199219 14.027344 64.496094 13.269531 C 64.152344 12.886719 63.734375 12.296875 63.316406 12.03125 C 62.746094 11.671875 62.328125 11.707031 61.832031 11.136719 C 61.015625 10.207031 60.519531 8.835938 59.1875 8.683594 C 58.828125 8.644531 58.769531 8.835938 58.523438 8.703125 C 58.21875 8.53125 58.066406 7.5625 57.988281 7.277344 C 57.835938 6.761719 57.78125 6 57.265625 5.679688 C 56.925781 5.46875 56.640625 5.601562 56.355469 5.335938 C 55.953125 4.957031 56.085938 4.136719 55.707031 3.660156 C 55.613281 3.527344 55.402344 3.507812 55.25 3.546875 C 54.925781 3.625 54.679688 3.890625 54.394531 3.945312 C 54.28125 3.964844 54.167969 3.777344 54.015625 3.8125 C 53.480469 3.929688 53.101562 4.0625 52.722656 4.480469 C 51.882812 5.355469 51.730469 6.535156 50.4375 6.117188 C 50.304688 6.078125 50.152344 6.117188 50.058594 6.210938 C 49.695312 6.570312 49.449219 7.085938 49.144531 7.484375 C 49.085938 7.410156 49.03125 7.332031 48.972656 7.21875 C 48.726562 6.742188 48.726562 6.230469 48.402344 5.792969 C 48.117188 5.410156 47.316406 4.480469 46.878906 4.347656 C 46.59375 4.25 46.273438 4.535156 46.082031 4.480469 C 45.988281 4.460938 45.265625 3.167969 45.054688 2.917969 C 44.523438 2.234375 43.683594 0.0078125 42.449219 0.390625 C 41.363281 0.730469 41.097656 2.40625 40.621094 3.261719 C 40.242188 3.964844 40.792969 3.964844 39.558594 4.042969 C 39.40625 4.0625 39.15625 3.890625 38.988281 3.929688 C 38.53125 4.0625 38.261719 4.25 38.035156 4.667969 C 37.730469 5.183594 37.789062 5.886719 37.691406 6.457031 C 37.539062 7.351562 37.238281 8.226562 36.664062 8.929688 C 36.191406 9.519531 35.238281 10.015625 35.085938 10.796875 C 34.972656 10.699219 34.78125 10.738281 34.726562 10.890625 C 34.476562 11.632812 33.886719 12.089844 33.546875 12.753906 C 33.261719 13.324219 33.316406 13.875 32.9375 14.449219 C 32.289062 15.398438 31.683594 15.910156 31.226562 17.015625 C 31.035156 17.453125 31.054688 17.832031 30.921875 18.25 C 30.769531 18.804688 30.425781 18.992188 30.066406 19.488281 C 29.417969 20.363281 28.828125 21.636719 28.542969 22.644531 C 28.503906 22.777344 28.46875 22.914062 28.449219 23.046875 C 28.257812 22.550781 28.105469 22.054688 27.839844 21.601562 C 27.746094 21.449219 27.59375 21.351562 27.421875 21.351562 C 26.792969 20.515625 26.222656 19.851562 25.289062 19.242188 C 24.207031 18.519531 23.65625 17.605469 22.835938 16.578125 C 22.722656 16.445312 22.492188 16.386719 22.34375 16.445312 C 22 16.691406 21.695312 16.617188 21.449219 16.214844 C 21.296875 16.027344 21.011719 16.046875 20.800781 16.140625 C 20.097656 16.484375 20.230469 17.242188 19.601562 17.625 C 19.429688 17.71875 19.449219 17.851562 19.414062 17.851562 C 19.355469 17.871094 19.222656 17.699219 19.128906 17.738281 C 18.824219 17.851562 18.726562 17.777344 18.441406 18.042969 C 18.136719 18.328125 18.117188 19.03125 17.832031 19.242188 C 17.816406 19.261719 17.242188 19.222656 16.976562 19.296875 C 16.140625 19.527344 15.835938 20.402344 15.417969 21.144531 C 14.960938 21.941406 14.769531 22.894531 14.257812 23.652344 C 13.6875 24.492188 12.925781 24.625 12.222656 25.234375 C 11.957031 25.460938 11.707031 25.726562 11.554688 26.070312 C 11.460938 26.335938 11.480469 26.984375 11.441406 27.15625 C 11.234375 28.125 11.214844 27.707031 10.035156 28.542969 C 9.863281 28.65625 9.617188 28.636719 9.425781 28.808594 C 9.046875 29.171875 9.027344 30.046875 8.910156 30.484375 C 8.703125 31.300781 8.226562 32.042969 7.960938 32.84375 C 7.960938 32.859375 7.960938 32.859375 7.941406 32.859375 C 7.789062 33.070312 7.617188 33.261719 7.445312 33.449219 C 6.515625 34.496094 5.316406 35.257812 4.328125 36.210938 C 3.851562 36.664062 3.492188 37.101562 2.957031 37.539062 C 2.617188 37.84375 2.214844 38.09375 1.855469 38.378906 C 1.304688 38.851562 1.265625 39.386719 1.09375 40.050781 C 1.054688 40.222656 1.285156 40.316406 1.378906 40.164062 C 1.417969 40.089844 1.472656 39.996094 1.511719 39.917969 C 1.511719 39.898438 1.53125 39.878906 1.53125 39.878906 C 1.589844 39.863281 1.605469 39.84375 1.589844 39.84375 C 1.625 39.785156 1.664062 39.726562 1.703125 39.671875 C 1.875 39.441406 2.082031 39.273438 2.332031 39.121094 C 2.691406 38.929688 3.089844 38.851562 3.472656 38.625 C 4.347656 38.09375 5.394531 37.234375 6.097656 36.496094 C 6.820312 35.753906 7.296875 34.746094 7.867188 33.851562 C 7.882812 33.851562 7.921875 33.851562 7.941406 33.851562 C 8.304688 33.71875 8.570312 33.296875 8.777344 32.84375 C 8.796875 32.824219 8.816406 32.804688 8.816406 32.785156 C 9.160156 32.308594 9.464844 32.214844 9.9375 31.910156 C 10.585938 31.492188 10.375 31.015625 10.757812 30.519531 C 10.964844 30.253906 11.367188 30.199219 11.632812 29.96875 C 11.9375 29.703125 12.125 29.304688 12.394531 29 C 12.410156 28.980469 12.449219 28.941406 12.46875 28.921875 C 12.527344 28.90625 12.582031 28.867188 12.640625 28.828125 C 12.753906 28.734375 12.847656 28.636719 12.90625 28.5625 C 13.25 28.332031 13.609375 28.125 13.859375 27.839844 C 14.5625 27.554688 15.324219 27.476562 15.96875 27.15625 C 16.082031 27.535156 16.3125 28.21875 16.292969 28.199219 C 16.445312 28.847656 16.0625 29.742188 15.914062 30.40625 C 15.761719 31.054688 15.589844 31.664062 15.417969 32.289062 C 15.324219 32.652344 15.265625 33.070312 15.207031 33.46875 C 14.941406 34.003906 14.636719 34.496094 14.257812 34.914062 C 14.144531 35.046875 14.296875 35.257812 14.449219 35.164062 C 14.695312 35.03125 14.921875 34.820312 15.132812 34.574219 C 15.152344 34.574219 15.152344 34.574219 15.171875 34.554688 C 15.339844 34.363281 15.476562 34.15625 15.589844 33.925781 C 15.835938 33.507812 16.0625 33.089844 16.292969 32.746094 C 16.824219 31.96875 17.394531 31.226562 17.816406 30.386719 C 18.652344 28.695312 20.589844 27.117188 19.414062 25.269531 C 19.203125 25.023438 19.03125 24.777344 18.859375 24.492188 C 19.03125 24.472656 19.183594 24.453125 19.335938 24.433594 C 19.601562 24.207031 20.324219 23.75 20.589844 23.597656 C 21.105469 23.3125 21.410156 23.367188 21.636719 22.816406 C 21.941406 22.113281 21.695312 20.4375 21.675781 19.734375 C 21.65625 19.164062 21.257812 18.042969 21.582031 17.492188 C 21.601562 17.472656 21.601562 17.433594 21.601562 17.414062 C 21.714844 17.433594 21.847656 17.472656 22 17.527344 C 22.074219 17.566406 22.132812 17.566406 22.152344 17.566406 C 22.191406 17.605469 22.226562 17.644531 22.304688 17.71875 C 22.53125 17.929688 22.761719 18.328125 22.949219 18.554688 C 23.351562 19.050781 23.769531 19.582031 24.28125 19.945312 C 24.796875 20.304688 25.40625 20.457031 25.859375 20.953125 C 26.222656 21.351562 26.433594 21.847656 26.792969 22.226562 C 26.871094 22.304688 26.984375 22.359375 27.117188 22.378906 C 27.421875 22.96875 27.628906 23.671875 28.257812 23.882812 C 28.183594 24.207031 28.046875 24.527344 27.78125 24.871094 C 27.402344 25.367188 27.097656 25.726562 26.753906 26.316406 C 26.089844 27.515625 25.59375 28.542969 24.511719 29.246094 C 23.121094 30.160156 22.609375 31.738281 20.992188 32.421875 C 20.152344 32.785156 19.734375 33.222656 19.183594 33.984375 C 19.050781 34.171875 19.277344 34.476562 19.488281 34.382812 C 20.6875 33.90625 22.019531 33.433594 22.988281 32.539062 C 23.941406 31.664062 24.378906 30.691406 25.480469 29.988281 C 26.050781 29.628906 26.449219 29.304688 26.851562 28.714844 C 26.984375 28.523438 27.097656 28.316406 27.191406 28.105469 C 27.496094 27.914062 27.820312 27.78125 28.164062 27.609375 C 29.34375 27.058594 29.742188 26.164062 30.75 25.386719 C 30.902344 25.253906 31.796875 24.796875 32.042969 24.527344 C 32.175781 24.890625 32.574219 25.613281 32.574219 25.59375 C 32.726562 26.03125 32.746094 26.109375 32.691406 26.601562 C 32.574219 27.496094 31.929688 28.21875 31.890625 29.132812 C 31.871094 29.742188 32.386719 30.292969 32.367188 30.921875 C 32.347656 31.53125 32.0625 31.890625 31.816406 32.40625 C 31.644531 32.765625 31.472656 33.183594 31.320312 33.527344 C 31.226562 33.734375 31.1875 33.925781 31.148438 34.136719 C 30.996094 34.402344 30.824219 34.667969 30.691406 34.953125 C 30.636719 35.046875 30.75 35.183594 30.84375 35.105469 C 30.882812 35.085938 30.941406 35.046875 30.976562 35.03125 C 30.996094 35.085938 31.074219 35.125 31.128906 35.085938 C 31.414062 34.839844 31.699219 34.554688 31.949219 34.230469 C 32.652344 33.507812 33.089844 32.671875 33.660156 31.699219 C 34.230469 30.710938 35.144531 29.929688 35.21875 28.789062 C 35.277344 27.878906 34.78125 26.03125 35.238281 25.269531 C 35.636719 24.585938 36.703125 23.941406 37.273438 23.3125 C 37.636719 22.929688 37.882812 22.570312 38.28125 22.191406 C 38.300781 22.171875 38.339844 22.152344 38.359375 22.152344 C 38.320312 22.359375 38.28125 22.589844 38.246094 22.816406 C 38.128906 23.539062 38.453125 24.167969 38.1875 24.851562 C 37.960938 25.460938 37.882812 26.011719 37.730469 26.640625 C 37.730469 26.679688 37.769531 26.679688 37.769531 26.660156 C 38.09375 26.222656 38.300781 25.5 38.511719 25.003906 C 38.738281 24.472656 38.71875 23.996094 38.835938 23.445312 C 38.988281 22.703125 39.367188 22.246094 39.289062 21.484375 C 39.253906 21.238281 39.214844 20.992188 39.15625 20.726562 C 39.386719 19.734375 39.386719 18.613281 39.710938 17.738281 C 39.976562 16.996094 40.507812 16.3125 40.945312 15.664062 C 41.191406 15.304688 41.878906 14.808594 41.878906 14.3125 C 41.898438 13.402344 40.355469 13.097656 39.84375 12.660156 C 39.003906 11.917969 39.785156 11.746094 40.546875 11.175781 C 41.230469 10.679688 42.011719 10.394531 42.695312 9.921875 C 42.867188 9.804688 42.941406 9.617188 42.90625 9.425781 C 42.429688 7.65625 42.582031 6.363281 42.808594 4.515625 C 42.808594 4.480469 42.828125 4.421875 42.828125 4.382812 C 43.019531 4.003906 43.09375 3.605469 43.078125 3.128906 C 43.078125 2.804688 43.152344 2.5 43.152344 2.179688 C 43.152344 2.0625 43.152344 1.949219 43.132812 1.816406 C 43.953125 2.730469 44.390625 4.117188 45.359375 4.957031 C 45.96875 5.488281 46.441406 5.183594 47.015625 5.621094 C 48.003906 6.363281 48.078125 7.675781 48.953125 8.492188 C 49.238281 8.757812 49.523438 9.042969 49.828125 9.332031 C 49.945312 9.882812 50.246094 10.585938 50.53125 11.082031 C 50.835938 11.652344 51.390625 11.898438 51.710938 12.429688 C 52.035156 12.984375 52.285156 14.199219 52.777344 14.902344 C 52.644531 14.960938 52.511719 15.019531 52.417969 15.054688 C 52.113281 15.1875 51.882812 15.265625 51.597656 15.492188 C 51.503906 15.570312 51.390625 15.644531 51.292969 15.722656 C 51.238281 15.742188 51.199219 15.742188 51.140625 15.761719 C 50.09375 16.101562 49.085938 16.636719 48.058594 17.054688 C 47.433594 17.300781 46.691406 17.492188 46.042969 17.777344 C 46.273438 17.453125 46.425781 17.109375 46.5 16.75 C 46.5 16.710938 46.460938 16.691406 46.441406 16.730469 C 46.195312 17.242188 45.871094 17.453125 45.359375 17.679688 C 45.1875 17.757812 45.035156 17.796875 44.863281 17.929688 C 44.464844 18.234375 44.21875 18.707031 44.21875 19.203125 C 44.21875 19.296875 44.273438 19.394531 44.351562 19.429688 C 44.253906 19.375 43.800781 20.476562 43.835938 20.726562 C 43.835938 20.761719 43.894531 20.742188 43.894531 20.726562 C 44.066406 20.269531 44.464844 19.90625 44.675781 19.46875 C 44.789062 19.261719 44.902344 18.992188 45.167969 18.746094 C 45.207031 18.726562 45.226562 18.6875 45.265625 18.671875 C 45.265625 18.6875 45.28125 18.6875 45.28125 18.707031 C 45.265625 18.898438 45.246094 19.089844 45.265625 19.316406 C 45.28125 19.46875 45.300781 19.582031 45.339844 19.699219 C 45.265625 19.945312 45.226562 20.191406 45.226562 20.34375 C 45.28125 21.410156 45.703125 21.332031 44.921875 22.039062 C 44.542969 22.378906 44.085938 22.570312 44.027344 23.121094 C 43.988281 23.445312 44.121094 23.597656 44.253906 23.75 C 44.179688 23.863281 44.085938 23.996094 44.007812 24.109375 C 43.609375 24.644531 43.171875 24.929688 42.960938 25.613281 C 42.773438 26.242188 42.773438 26.546875 42.257812 27.003906 C 42.125 27.117188 41.992188 27.171875 41.878906 27.324219 C 41.515625 27.820312 41.667969 28.257812 41.230469 28.714844 C 41.136719 28.808594 41.117188 28.980469 41.191406 29.074219 C 41.230469 29.113281 41.25 29.171875 41.289062 29.191406 C 41.628906 29.324219 42.296875 28.828125 42.503906 28.636719 C 42.980469 28.199219 42.867188 27.726562 43.058594 27.171875 C 43.191406 26.734375 43.476562 26.375 43.722656 25.992188 C 44.121094 25.824219 44.425781 25.441406 44.675781 25.042969 C 44.675781 25.15625 44.691406 25.289062 44.710938 25.460938 C 44.84375 26.183594 45.378906 26.679688 45.28125 27.476562 C 45.207031 28.277344 44.75 28.886719 44.902344 29.722656 C 44.960938 29.96875 45.246094 30.199219 45.511719 30.179688 C 45.757812 30.160156 45.96875 30.082031 46.195312 30.066406 C 46.273438 30.066406 46.328125 30.046875 46.367188 30.046875 C 46.386719 30.40625 46.195312 30.921875 46.175781 31.167969 C 46.101562 32.003906 46.292969 32.328125 47.070312 32.59375 C 47.222656 32.652344 47.414062 32.421875 47.527344 32.460938 C 47.984375 32.613281 48.042969 32.878906 48.230469 33.222656 C 48.535156 33.773438 48.515625 34.457031 48.554688 35.085938 C 48.648438 36.53125 48.003906 37.710938 47.738281 39.082031 C 47.46875 39.726562 47.089844 40.355469 46.785156 40.945312 C 46.40625 41.707031 46.539062 41.308594 45.835938 41.230469 C 45.417969 41.175781 44.960938 41.34375 44.617188 41.59375 C 43.96875 42.050781 44.160156 42.542969 43.703125 43.058594 C 43.4375 43.363281 43.722656 43.132812 43.171875 42.90625 C 42.488281 42.621094 42.296875 42.960938 41.6875 43.191406 C 40.621094 43.609375 39.558594 43.628906 39.425781 45.035156 C 39.425781 45.09375 39.5 45.113281 39.539062 45.074219 C 40.261719 44.425781 40.964844 44.503906 41.839844 44.21875 C 42.390625 44.046875 42.503906 43.988281 43.019531 44.066406 C 43.152344 44.085938 43.324219 44.199219 43.496094 44.21875 C 44.980469 44.40625 44.769531 41.363281 46.101562 42.582031 C 46.253906 42.714844 46.480469 42.808594 46.691406 42.734375 C 46.9375 42.636719 47.128906 42.503906 47.300781 42.335938 C 47.148438 42.695312 47.261719 43.074219 47.585938 43.550781 C 47.871094 43.96875 48.117188 44.464844 48.34375 44.941406 C 48.441406 45.148438 48.496094 45.265625 48.6875 45.339844 C 48.898438 45.550781 49.164062 45.703125 49.316406 45.929688 C 49.46875 46.15625 49.601562 46.726562 50 46.539062 C 50.078125 46.5 50.058594 46.40625 50 46.386719 C 49.640625 46.15625 49.621094 45.550781 49.410156 45.207031 C 49.183594 44.828125 48.898438 44.425781 48.535156 44.160156 C 48.535156 43.988281 48.535156 43.816406 48.574219 43.648438 C 48.648438 43.265625 48.535156 43.113281 48.441406 42.753906 C 48.363281 42.429688 48.480469 42.105469 48.363281 41.761719 C 48.308594 41.574219 48.195312 41.382812 48.078125 41.191406 C 48.097656 41.175781 48.136719 41.136719 48.15625 41.097656 C 49.03125 38.96875 49.390625 36.609375 49.847656 34.363281 C 50 33.679688 50.304688 32.976562 50.398438 32.289062 C 50.53125 31.320312 49.980469 30.425781 49.734375 29.511719 C 49.410156 28.257812 49.371094 27.554688 50.246094 26.621094 C 50.457031 26.394531 50.722656 26.164062 50.953125 25.917969 C 51.046875 26.070312 51.140625 26.222656 51.179688 26.429688 C 51.21875 26.640625 51.160156 26.867188 51.238281 27.058594 C 51.390625 27.457031 51.695312 27.820312 51.828125 28.238281 C 51.847656 28.277344 51.882812 28.277344 51.882812 28.238281 C 51.902344 27.382812 52.265625 26.582031 51.902344 25.765625 C 51.75 25.460938 51.558594 25.136719 51.351562 24.851562 C 51.351562 24.527344 51.21875 24.242188 51.027344 23.902344 C 50.152344 22.4375 48.800781 21.3125 47.566406 20.117188 C 48.078125 19.125 48.917969 19.277344 49.753906 18.707031 C 50.285156 18.347656 50.363281 17.8125 50.742188 17.339844 C 50.988281 17.054688 51.390625 16.769531 51.769531 16.519531 C 51.882812 16.484375 51.996094 16.464844 52.113281 16.425781 C 52.722656 16.292969 53.308594 16.199219 53.765625 16.007812 C 53.710938 16.046875 53.519531 16.121094 53.5 16.199219 C 53.308594 16.730469 53.730469 17.585938 54.203125 18.003906 C 54.050781 18.175781 53.824219 18.308594 53.804688 18.632812 C 53.804688 19.050781 54.050781 19.296875 54.414062 19.488281 C 54.527344 19.546875 54.71875 19.582031 54.832031 19.488281 C 54.71875 19.582031 55.042969 19.945312 55.078125 20 C 55.097656 20.019531 55.136719 20.019531 55.15625 20.019531 L 55.230469 20 C 55.289062 20 55.289062 19.925781 55.25 19.886719 C 55.363281 19.964844 55.097656 19.070312 55.078125 19.03125 C 54.890625 18.613281 54.679688 18.519531 54.964844 18.042969 C 55.023438 17.949219 55.023438 17.796875 54.964844 17.679688 C 54.773438 17.375 54.585938 17.109375 54.414062 16.785156 C 54.167969 16.367188 54.242188 16.539062 54.261719 16.121094 C 54.261719 15.96875 54.28125 15.796875 54.261719 15.644531 C 54.488281 15.359375 54.566406 14.960938 54.335938 14.3125 C 54.015625 13.324219 53.746094 12.375 53.5 11.367188 C 53.121094 9.902344 53.234375 10.546875 54.035156 9.480469 C 54.507812 8.855469 54.320312 8.359375 54.355469 7.65625 C 54.414062 6.707031 54.871094 5.832031 55.15625 4.9375 C 55.230469 4.652344 54.832031 4.535156 54.71875 4.804688 C 54.699219 4.804688 54.679688 4.785156 54.640625 4.785156 C 54.621094 4.785156 54.621094 4.785156 54.621094 4.785156 C 54.605469 4.765625 54.605469 4.726562 54.585938 4.707031 C 55.347656 4.574219 55.042969 4.347656 55.328125 5.203125 C 55.382812 5.355469 55.480469 5.660156 55.613281 5.832031 C 56.203125 6.535156 56.660156 5.980469 57.113281 6.875 C 57.4375 7.503906 57.363281 8.625 57.835938 9.160156 C 58.257812 9.632812 58.351562 9.367188 58.882812 9.445312 C 60.367188 9.671875 60.730469 11.25 61.851562 12.011719 C 62.289062 12.296875 62.785156 12.335938 63.203125 12.660156 C 64.113281 13.34375 64.648438 14.449219 65.429688 15.265625 C 66.207031 16.101562 67.730469 16.921875 67.957031 18.0625 C 68.070312 18.59375 67.824219 19.144531 68.242188 19.601562 C 68.738281 20.152344 69.519531 20.097656 70.144531 20.6875 C 70.847656 21.371094 70.886719 22.074219 71.039062 22.988281 C 71.132812 23.597656 71.058594 23.804688 71.628906 24.1875 C 72.160156 24.546875 72.730469 24.527344 73.265625 25.042969 C 73.757812 25.519531 74.121094 26.128906 74.5 26.699219 C 74.558594 26.773438 74.632812 26.792969 74.710938 26.773438 C 75.109375 27.800781 75.394531 28.714844 76.59375 28.960938 C 77.734375 29.191406 78.136719 29.34375 78.933594 30.179688 C 78.972656 30.21875 79.011719 30.273438 79.046875 30.3125 C 78.859375 30.21875 78.648438 30.140625 78.4375 30.121094 C 78.382812 30.121094 78.363281 30.179688 78.382812 30.21875 C 78.667969 30.710938 79.046875 31.300781 79.503906 31.664062 C 80.019531 32.0625 80.761719 32.269531 81.179688 32.804688 C 81.445312 33.144531 81.425781 33.296875 81.882812 33.527344 C 82.28125 33.734375 82.679688 33.90625 83.101562 34.117188 C 83.136719 34.136719 83.195312 34.117188 83.195312 34.058594 C 83.175781 33.640625 82.605469 33.46875 82.433594 33.109375 C 82.226562 32.707031 82.28125 32.386719 81.921875 32.0625 C 81.710938 31.871094 81.484375 31.699219 81.253906 31.546875 C 81.84375 31.359375 82.375 30.941406 83.003906 31.015625 C 83.839844 31.128906 84.527344 31.890625 85.4375 31.929688 C 86.066406 31.949219 86.390625 31.71875 86.828125 31.28125 C 87.09375 31.015625 87.457031 30.75 87.683594 30.484375 C 87.894531 30.253906 88.3125 30.027344 87.703125 30.082031 C 88.066406 30.046875 88.351562 29.742188 88.253906 29.359375 C 88.332031 29.628906 89.300781 30.046875 89.625 30.351562 C 90.0625 30.769531 90.289062 31.167969 90.652344 31.625 C 91.089844 32.175781 91.660156 32.671875 92.191406 33.109375 C 93.542969 34.363281 94.359375 35.808594 95.671875 36.816406 Z M 47.148438 19.832031 C 47.128906 19.8125 47.109375 19.792969 47.089844 19.773438 C 47.128906 19.753906 47.167969 19.699219 47.148438 19.640625 C 47.128906 19.5625 47.089844 19.46875 47.050781 19.355469 C 47.070312 19.355469 47.070312 19.355469 47.089844 19.375 C 47.148438 19.394531 47.203125 19.394531 47.28125 19.394531 C 47.222656 19.527344 47.183594 19.679688 47.148438 19.832031 Z M 47.148438 19.832031 " fill-opacity="1" fill-rule="nonzero"/></g><g clip-path="url(#47de8d92b2)"><path fill="#d9d9d9" d="M 81.386719 40.300781 C 80.664062 39.652344 80.929688 39.652344 80.589844 38.949219 C 80.304688 38.359375 79.636719 37.921875 79.179688 37.464844 C 77.46875 35.789062 75.964844 33.773438 74.007812 32.386719 C 73.625 31.816406 73.132812 31.226562 72.542969 30.957031 C 72.046875 30.75 71.761719 30.824219 71.363281 30.519531 C 70.679688 29.988281 70.257812 29.054688 69.535156 28.503906 C 68.585938 27.761719 68.015625 27.136719 67.273438 26.164062 C 66.855469 25.59375 66.511719 25.386719 65.867188 25.003906 C 65.199219 24.625 65.277344 24.796875 64.894531 24.074219 C 64.667969 23.636719 64.761719 23.40625 64.324219 23.101562 C 64.265625 23.066406 64.230469 23.046875 64.171875 23.007812 C 64.039062 22.761719 63.90625 22.550781 63.753906 22.378906 C 63.335938 21.902344 63.011719 21.601562 62.613281 21.027344 C 62.441406 20.800781 62.382812 20.667969 62.175781 20.4375 C 61.757812 19.984375 61.300781 19.488281 60.882812 19.03125 C 60.578125 18.707031 60.898438 18.898438 60.539062 18.652344 C 60.519531 18.652344 60.5 18.652344 60.5 18.671875 C 60.519531 19.183594 60.710938 19.679688 60.996094 20.097656 C 61.148438 20.289062 61.300781 20.476562 61.472656 20.667969 C 61.546875 20.820312 61.585938 20.972656 61.605469 21.125 C 61.605469 21.125 61.605469 21.125 61.605469 21.144531 C 61.566406 21.199219 61.585938 21.257812 61.625 21.296875 C 61.640625 21.449219 61.625 21.601562 61.605469 21.769531 C 61.679688 22.09375 61.777344 22.398438 61.964844 22.664062 C 62.214844 23.007812 62.554688 23.214844 62.785156 23.558594 C 62.820312 23.597656 62.839844 23.652344 62.859375 23.691406 C 62.667969 24.378906 62.023438 27.515625 62.003906 27.78125 C 61.984375 28.144531 62.175781 28.734375 61.945312 28.847656 C 61.640625 29 60.5 28.5625 60.0625 28.582031 C 59.757812 28.601562 59.585938 28.90625 59.722656 29.171875 C 60.042969 29.78125 60.214844 29.761719 60.0625 30.558594 C 59.949219 31.128906 59.777344 31.683594 59.625 32.253906 C 59.472656 32.804688 59.339844 33.203125 59.417969 33.792969 C 59.472656 34.210938 59.722656 34.078125 59.625 34.476562 C 59.492188 35.046875 59.054688 35.257812 58.882812 35.582031 C 58.578125 35.257812 58.351562 34.859375 58.046875 34.515625 C 57.761719 34.210938 57.496094 33.773438 57.113281 33.601562 C 56.925781 33.507812 56.792969 33.566406 56.601562 33.375 C 56.523438 33.296875 56.507812 33.183594 56.429688 33.109375 C 56.277344 32.976562 56.085938 32.917969 55.933594 32.785156 C 55.898438 32.765625 55.839844 32.785156 55.859375 32.824219 C 55.898438 33.164062 56.222656 33.773438 56.488281 33.964844 C 56.714844 34.117188 56.867188 34.039062 57.039062 34.269531 C 57.210938 34.476562 57.265625 34.878906 57.417969 35.144531 C 57.550781 35.390625 57.742188 35.695312 57.972656 35.847656 C 58.257812 36.058594 58.597656 36.074219 58.863281 36.34375 C 59.054688 36.53125 59.265625 36.875 59.53125 37.007812 C 60.253906 37.789062 61.339844 38.605469 62.117188 39.101562 C 62.5 39.347656 62.820312 39.367188 63.257812 39.519531 C 64.171875 39.804688 64.550781 40.414062 65.027344 41.230469 C 65.75 42.488281 66.207031 41.992188 67.3125 42.523438 C 68.355469 43.039062 69.097656 44.238281 70.164062 44.828125 C 70.695312 45.113281 70.886719 44.996094 71.4375 45.09375 C 71.476562 45.09375 71.515625 45.09375 71.515625 45.09375 C 71.667969 45.207031 71.820312 45.320312 71.933594 45.472656 C 72.257812 45.851562 72.730469 46.140625 72.960938 46.5 C 73.207031 46.863281 73.605469 47.050781 73.816406 47.433594 C 73.875 47.546875 74.0625 47.46875 74.027344 47.355469 C 73.894531 46.976562 73.605469 46.671875 73.472656 46.289062 C 73.339844 45.929688 73.226562 45.664062 73 45.320312 C 72.980469 45.300781 72.960938 45.28125 72.960938 45.246094 C 73.1875 44.710938 72.847656 44.121094 72.617188 43.609375 C 72.027344 42.183594 71.058594 40.8125 70.277344 39.480469 C 69.15625 37.578125 67.347656 35.675781 66.703125 33.507812 C 66.855469 33.8125 66.96875 34.117188 67.179688 34.382812 C 67.5 34.800781 68.148438 35.277344 68.492188 35.582031 C 69.078125 36.132812 69.632812 36.609375 70.144531 37.253906 C 70.46875 37.65625 70.734375 38.167969 71.171875 38.433594 C 71.707031 38.757812 71.761719 38.453125 72.257812 39.082031 C 72.636719 39.539062 72.828125 40.089844 73.265625 40.507812 C 74.195312 41.441406 75.28125 42.21875 76.308594 43.039062 C 76.367188 43.074219 76.402344 43.09375 76.460938 43.132812 C 76.519531 43.246094 76.574219 43.363281 76.632812 43.496094 C 76.957031 44.179688 77.222656 44.882812 77.832031 45.414062 C 78.097656 45.644531 78.285156 45.625 78.589844 45.757812 C 79.199219 46.042969 79.066406 46.328125 79.238281 46.863281 C 79.449219 47.566406 80.054688 48.136719 80.722656 48.441406 C 80.777344 48.460938 80.855469 48.402344 80.796875 48.34375 C 80.054688 47.566406 80.132812 46.710938 79.847656 45.777344 C 79.636719 45.074219 79.238281 44.902344 78.800781 44.40625 C 78.363281 43.914062 78.019531 43.304688 77.601562 42.773438 C 77.46875 42.621094 77.355469 42.46875 77.222656 42.335938 C 77.394531 40.601562 76.269531 38.378906 75.625 36.914062 C 75.242188 36.039062 75.015625 35.144531 74.710938 34.324219 C 74.976562 34.648438 75.222656 34.972656 75.433594 35.332031 C 76.175781 36.511719 77.183594 37.464844 78.132812 38.492188 C 78.515625 38.910156 79.046875 39.253906 79.371094 39.691406 C 79.597656 39.996094 79.597656 40.375 79.867188 40.679688 C 80.171875 41.039062 80.609375 41.191406 81.007812 41.402344 C 81.84375 41.839844 82.625 42.335938 83.269531 43.019531 C 83.347656 43.09375 83.441406 43.019531 83.421875 42.925781 C 83.367188 41.800781 82.167969 40.984375 81.386719 40.300781 Z M 81.386719 40.300781 " fill-opacity="1" fill-rule="nonzero"/></g><path fill="#d9d9d9" d="M 61.339844 15.777344 C 61.660156 15.96875 61.851562 16.0625 62.003906 16.425781 C 62.078125 16.578125 62.097656 16.710938 62.195312 16.863281 C 62.402344 17.207031 62.746094 17.453125 63.105469 17.625 C 63.203125 17.660156 63.335938 17.566406 63.277344 17.453125 C 62.992188 17.054688 62.6875 16.730469 62.460938 16.292969 C 62.308594 16.007812 62.195312 15.761719 61.984375 15.492188 C 61.488281 14.886719 60.863281 14.464844 60.425781 13.820312 C 60.347656 13.707031 60.140625 13.742188 60.140625 13.894531 C 60.160156 14.714844 60.691406 15.359375 61.339844 15.777344 Z M 61.339844 15.777344 " fill-opacity="1" fill-rule="nonzero"/><path fill="#d9d9d9" d="M 57.019531 25.003906 C 57.230469 25.253906 57.191406 25.480469 57.304688 25.746094 C 57.476562 26.128906 57.875 26.621094 58.160156 26.925781 C 58.273438 27.039062 58.464844 27.191406 58.636719 27.136719 C 58.902344 27.039062 58.847656 26.640625 58.769531 26.449219 C 58.695312 26.222656 58.464844 26.011719 58.3125 25.824219 C 58.125 25.574219 58.007812 25.367188 57.875 25.082031 C 57.6875 24.664062 57.476562 24.511719 57.097656 24.261719 C 56.714844 23.996094 56.582031 23.636719 56.257812 23.3125 C 56.222656 23.273438 56.125 23.3125 56.144531 23.367188 C 56.316406 23.789062 56.238281 24.167969 56.523438 24.546875 C 56.695312 24.738281 56.886719 24.832031 57.019531 25.003906 Z M 57.019531 25.003906 " fill-opacity="1" fill-rule="nonzero"/><path fill="#d9d9d9" d="M 55.992188 44.066406 C 55.6875 43.398438 55.421875 43.113281 54.910156 42.621094 C 54.453125 42.183594 54.242188 41.496094 53.710938 41.097656 C 53.539062 40.984375 53.308594 40.945312 53.121094 40.851562 C 52.929688 40.738281 52.835938 40.601562 52.664062 40.488281 C 52.585938 40.449219 52.492188 40.546875 52.53125 40.621094 C 52.664062 40.8125 52.683594 41.058594 52.855469 41.230469 C 53.042969 41.402344 53.328125 41.402344 53.519531 41.59375 C 53.84375 41.914062 53.882812 42.5625 54.070312 42.941406 C 54.203125 43.191406 54.453125 43.378906 54.546875 43.628906 C 54.832031 44.332031 54.757812 44.828125 55.480469 45.265625 C 55.972656 45.550781 56.390625 45.949219 56.886719 46.214844 C 56.945312 46.253906 57.019531 46.175781 56.960938 46.121094 C 56.390625 45.511719 56.335938 44.808594 55.992188 44.066406 Z M 55.992188 44.066406 " fill-opacity="1" fill-rule="nonzero"/><path fill="#d9d9d9" d="M 60.519531 42.351562 C 60.445312 42.238281 60.347656 42.125 60.273438 42.011719 C 60.007812 41.648438 59.378906 41.175781 58.921875 41.363281 C 58.902344 41.382812 58.902344 41.421875 58.921875 41.421875 C 59.09375 41.476562 59.113281 41.898438 59.148438 42.03125 C 59.226562 42.335938 59.265625 42.582031 59.4375 42.847656 C 59.625 43.152344 59.910156 43.363281 60.273438 43.417969 C 60.5 43.457031 60.578125 43.4375 60.785156 43.628906 C 60.898438 43.742188 60.917969 43.78125 61.070312 43.835938 C 61.128906 43.855469 61.203125 43.800781 61.203125 43.742188 C 61.167969 43.398438 60.863281 43.226562 60.765625 42.941406 C 60.691406 42.714844 60.671875 42.542969 60.519531 42.351562 Z M 60.519531 42.351562 " fill-opacity="1" fill-rule="nonzero"/><path fill="#d9d9d9" d="M 62.042969 44.253906 C 61.871094 44.101562 61.625 43.855469 61.375 43.875 C 61.355469 43.875 61.339844 43.914062 61.355469 43.933594 C 61.527344 44.101562 61.660156 44.3125 61.851562 44.464844 C 62.0625 44.636719 62.214844 44.902344 62.421875 45.054688 C 62.460938 45.074219 62.515625 45.054688 62.535156 45.015625 C 62.59375 44.691406 62.269531 44.425781 62.042969 44.253906 Z M 62.042969 44.253906 " fill-opacity="1" fill-rule="nonzero"/><path fill="#d9d9d9" d="M 39.863281 36.226562 C 40.203125 35.828125 40.316406 35.296875 40.738281 34.933594 C 41.175781 34.554688 41.476562 34.171875 41.878906 33.773438 C 41.933594 33.71875 41.859375 33.640625 41.800781 33.660156 C 41.34375 33.90625 40.851562 33.871094 40.433594 34.171875 C 39.976562 34.496094 39.578125 34.914062 39.15625 35.277344 C 38.796875 35.582031 38.53125 35.90625 38.246094 36.265625 C 38.015625 36.570312 37.921875 36.875 37.730469 37.179688 C 37.691406 37.234375 37.75 37.292969 37.824219 37.292969 C 38.148438 37.234375 38.378906 36.914062 38.683594 36.796875 C 39.136719 36.664062 39.519531 36.648438 39.863281 36.226562 Z M 39.863281 36.226562 " fill-opacity="1" fill-rule="nonzero"/><path fill="#d9d9d9" d="M 42.144531 33.601562 C 42.257812 33.507812 42.371094 33.449219 42.390625 33.28125 C 42.390625 33.261719 42.371094 33.222656 42.335938 33.242188 C 42.238281 33.316406 42.144531 33.394531 42.050781 33.46875 C 41.953125 33.546875 42.066406 33.679688 42.144531 33.601562 Z M 42.144531 33.601562 " fill-opacity="1" fill-rule="nonzero"/><path fill="#d9d9d9" d="M 46.234375 13.210938 C 46.328125 12.925781 46.539062 12.546875 46.765625 12.355469 C 46.976562 12.183594 47.128906 12.089844 47.203125 11.820312 C 47.300781 11.519531 46.824219 11.308594 46.691406 11.613281 C 46.460938 12.125 46.140625 12.601562 46.0625 13.171875 C 46.042969 13.269531 46.195312 13.304688 46.234375 13.210938 Z M 46.234375 13.210938 " fill-opacity="1" fill-rule="nonzero"/><path fill="#d9d9d9" d="M 48.933594 14.066406 C 48.917969 14.066406 48.917969 14.105469 48.933594 14.105469 C 48.972656 14.105469 48.972656 14.066406 48.933594 14.066406 Z M 48.933594 14.066406 " fill-opacity="1" fill-rule="nonzero"/><path fill="#d9d9d9" d="M 48.820312 14.886719 C 48.953125 14.808594 49.085938 14.75 49.183594 14.636719 C 49.296875 14.523438 49.355469 14.351562 49.46875 14.257812 C 49.582031 14.160156 49.734375 14.105469 49.828125 13.992188 C 49.945312 13.875 49.980469 13.742188 50.039062 13.609375 C 50.152344 13.34375 49.773438 13.117188 49.640625 13.382812 C 49.5625 13.535156 49.507812 13.648438 49.371094 13.742188 C 49.257812 13.820312 49.144531 13.894531 49.070312 14.011719 C 48.898438 14.238281 48.746094 14.503906 48.648438 14.769531 C 48.632812 14.867188 48.746094 14.941406 48.820312 14.886719 Z M 48.820312 14.886719 " fill-opacity="1" fill-rule="nonzero"/><path fill="#d9d9d9" d="M 19.203125 31.796875 C 19.164062 31.890625 19.261719 31.96875 19.355469 31.910156 C 19.792969 31.566406 20.003906 30.996094 20.382812 30.597656 C 20.78125 30.503906 21.144531 29.96875 21.125 29.589844 C 21.105469 29.324219 20.800781 29.074219 20.535156 29.246094 C 20.289062 29.417969 20.039062 29.609375 19.886719 29.875 C 19.832031 29.96875 19.8125 30.101562 19.832031 30.234375 C 19.714844 30.445312 19.582031 30.617188 19.507812 30.84375 C 19.394531 31.148438 19.335938 31.492188 19.203125 31.796875 Z M 19.203125 31.796875 " fill-opacity="1" fill-rule="nonzero"/><path fill="#d9d9d9" d="M 21.332031 28.449219 C 21.410156 28.332031 21.601562 28.316406 21.714844 28.238281 C 21.828125 28.144531 21.902344 28.03125 21.921875 27.878906 C 21.941406 27.648438 21.582031 27.648438 21.5625 27.878906 C 21.5625 27.972656 21.390625 28.046875 21.332031 28.125 C 21.257812 28.21875 21.21875 28.296875 21.21875 28.429688 C 21.21875 28.484375 21.296875 28.484375 21.332031 28.449219 Z M 21.332031 28.449219 " fill-opacity="1" fill-rule="nonzero"/><path fill="#d9d9d9" d="M 21.828125 24.699219 C 21.582031 24.949219 21.332031 25.347656 21.296875 25.726562 C 21.296875 25.804688 21.277344 26.164062 21.449219 26.164062 C 22.09375 26.128906 22.492188 25.253906 22.761719 24.757812 C 22.835938 24.625 22.929688 24.492188 23.007812 24.359375 C 23.027344 24.320312 23.066406 24.128906 23.082031 24.089844 C 23.21875 23.882812 23.40625 23.863281 23.367188 23.558594 C 23.367188 23.425781 23.199219 23.367188 23.121094 23.484375 C 23.066406 23.578125 23.046875 23.691406 22.988281 23.789062 C 22.914062 23.957031 22.914062 23.941406 22.761719 23.996094 C 22.457031 24.148438 22.074219 24.453125 21.828125 24.699219 Z M 21.828125 24.699219 " fill-opacity="1" fill-rule="nonzero"/><path fill="#d9d9d9" d="M 23.40625 22.550781 C 23.503906 22.4375 23.578125 22.246094 23.445312 22.113281 C 23.40625 22.074219 23.351562 22.054688 23.292969 22.074219 C 23.179688 22.113281 23.082031 22.246094 22.988281 22.339844 C 22.894531 22.457031 22.796875 22.589844 22.875 22.742188 C 22.894531 22.796875 22.949219 22.816406 23.007812 22.816406 C 23.179688 22.835938 23.3125 22.664062 23.40625 22.550781 Z M 23.40625 22.550781 " fill-opacity="1" fill-rule="nonzero"/><path fill="#d9d9d9" d="M 24.414062 34.402344 C 24.546875 34.210938 24.777344 34.136719 24.929688 33.964844 C 25.101562 33.792969 25.308594 33.753906 25.5 33.621094 C 25.84375 33.394531 26.261719 33.011719 26.355469 32.59375 C 26.394531 32.421875 26.316406 32.234375 26.128906 32.195312 C 25.824219 32.136719 25.613281 32.269531 25.421875 32.519531 C 25.234375 32.785156 25.003906 32.9375 24.757812 33.144531 C 24.53125 33.335938 24.472656 33.507812 24.359375 33.773438 C 24.261719 33.984375 24.167969 34.15625 24.226562 34.402344 C 24.28125 34.457031 24.378906 34.457031 24.414062 34.402344 Z M 24.414062 34.402344 " fill-opacity="1" fill-rule="nonzero"/><path fill="#d9d9d9" d="M 26.871094 31.566406 C 26.851562 31.566406 26.851562 31.566406 26.871094 31.566406 C 26.984375 31.566406 27.003906 31.53125 27.117188 31.605469 C 27.210938 31.664062 27.34375 31.664062 27.441406 31.605469 C 27.554688 31.546875 27.648438 31.472656 27.707031 31.339844 C 27.761719 31.207031 27.761719 31.054688 27.648438 30.941406 C 27.726562 31.015625 27.628906 30.921875 27.609375 30.902344 C 27.574219 30.882812 27.554688 30.882812 27.515625 30.863281 C 27.441406 30.84375 27.34375 30.84375 27.269531 30.902344 C 27.15625 30.976562 27.078125 31.074219 27.003906 31.1875 C 26.964844 31.261719 26.964844 31.339844 26.964844 31.433594 C 26.984375 31.53125 26.964844 31.53125 26.871094 31.566406 Z M 26.871094 31.566406 " fill-opacity="1" fill-rule="nonzero"/><path fill="#d9d9d9" d="M 29.835938 28.390625 C 29.511719 28.410156 29.304688 28.695312 29.058594 28.886719 C 28.90625 29 28.753906 29.132812 28.621094 29.285156 C 28.503906 29.417969 28.484375 29.570312 28.390625 29.722656 C 28.371094 29.78125 28.390625 29.855469 28.449219 29.855469 C 28.808594 29.929688 29.074219 29.609375 29.34375 29.398438 C 29.496094 29.285156 29.644531 29.191406 29.78125 29.039062 C 29.914062 28.867188 29.914062 28.734375 29.949219 28.542969 C 29.96875 28.46875 29.914062 28.371094 29.835938 28.390625 Z M 29.835938 28.390625 " fill-opacity="1" fill-rule="nonzero"/><path fill="#d9d9d9" d="M 11.765625 32.195312 C 11.804688 32.082031 11.707031 31.949219 11.613281 31.910156 C 11.289062 31.816406 11.023438 32.0625 10.832031 32.289062 C 10.605469 32.539062 10.605469 32.84375 10.738281 33.144531 C 10.777344 33.222656 10.890625 33.203125 10.910156 33.144531 C 10.984375 32.996094 11.15625 32.765625 11.269531 32.691406 C 11.480469 32.558594 11.6875 32.460938 11.765625 32.195312 Z M 11.765625 32.195312 " fill-opacity="1" fill-rule="nonzero"/><path fill="#d9d9d9" d="M 12.222656 31.226562 C 12.144531 31.28125 12.070312 31.339844 12.011719 31.414062 C 11.957031 31.492188 12.050781 31.605469 12.125 31.53125 C 12.203125 31.453125 12.316406 31.394531 12.410156 31.339844 C 12.46875 31.300781 12.546875 31.246094 12.601562 31.207031 C 12.679688 31.226562 12.734375 31.226562 12.832031 31.1875 C 12.964844 31.128906 13.019531 31.035156 13.136719 30.957031 C 13.269531 30.84375 13.210938 30.558594 13.019531 30.519531 C 12.8125 30.503906 12.621094 30.519531 12.507812 30.710938 C 12.429688 30.824219 12.410156 30.941406 12.449219 31.054688 C 12.394531 31.109375 12.296875 31.167969 12.222656 31.226562 Z M 12.222656 31.226562 " fill-opacity="1" fill-rule="nonzero"/><path fill="#d9d9d9" d="M 14.617188 29.152344 C 14.65625 29.152344 14.636719 29.113281 14.617188 29.09375 C 14.390625 29.074219 14.21875 29.285156 14.085938 29.4375 C 14.011719 29.53125 13.933594 29.609375 13.839844 29.683594 C 13.742188 29.78125 13.589844 29.96875 13.4375 29.988281 C 13.402344 29.988281 13.402344 30.027344 13.4375 30.046875 C 13.667969 30.121094 13.859375 29.929688 14.011719 29.78125 C 14.085938 29.703125 14.164062 29.628906 14.21875 29.53125 C 14.332031 29.417969 14.429688 29.207031 14.617188 29.152344 Z M 14.617188 29.152344 " fill-opacity="1" fill-rule="nonzero"/><path fill="#d9d9d9" d="M 91.886719 40.925781 C 91.773438 40.738281 91.792969 40.527344 91.753906 40.316406 C 91.679688 39.996094 91.546875 39.746094 91.316406 39.5 C 91.03125 39.195312 90.859375 39.214844 90.5 39.101562 C 89.910156 38.890625 89.527344 38.398438 88.996094 38.148438 C 88.691406 37.996094 88.425781 37.921875 88.160156 37.75 C 88.007812 37.65625 88.027344 37.539062 87.816406 37.484375 C 87.777344 37.464844 87.722656 37.523438 87.742188 37.578125 C 87.988281 37.902344 88.007812 38.074219 88.351562 38.300781 C 88.84375 38.605469 88.957031 39.082031 89.394531 39.421875 C 89.699219 39.652344 89.816406 39.746094 89.984375 40.03125 C 90.136719 40.28125 90.253906 40.46875 90.480469 40.660156 C 90.9375 41.039062 91.640625 41.15625 92.058594 41.554688 C 92.078125 41.574219 92.136719 41.574219 92.136719 41.535156 C 92.171875 41.34375 92.171875 41.324219 92.058594 41.15625 C 92.039062 41.023438 91.945312 40.984375 91.886719 40.925781 Z M 91.886719 40.925781 " fill-opacity="1" fill-rule="nonzero"/><g clip-path="url(#d4a8f6b090)"><path fill="#d9d9d9" d="M 96.054688 40.738281 C 95.84375 40.449219 95.617188 40.183594 95.386719 39.917969 C 95.179688 39.710938 95.007812 39.519531 94.683594 39.480469 C 94.570312 39.460938 94.4375 39.539062 94.324219 39.519531 C 94.171875 39.5 94.074219 39.425781 93.941406 39.367188 C 93.828125 39.328125 93.769531 39.480469 93.828125 39.558594 C 93.921875 39.652344 93.980469 39.765625 94.09375 39.863281 C 94.191406 39.9375 94.265625 39.917969 94.359375 40.03125 C 94.417969 40.109375 94.4375 40.242188 94.492188 40.316406 C 94.570312 40.433594 94.664062 40.527344 94.78125 40.621094 C 94.988281 40.8125 95.21875 41.003906 95.464844 41.15625 C 95.671875 41.289062 95.921875 41.34375 96.148438 41.441406 C 96.1875 41.460938 96.207031 41.421875 96.226562 41.402344 C 96.28125 41.175781 96.1875 40.925781 96.054688 40.738281 Z M 96.054688 40.738281 " fill-opacity="1" fill-rule="nonzero"/></g><path fill="#d9d9d9" d="M 25.195312 38.359375 C 24.738281 37.65625 24.394531 36.265625 23.636719 35.847656 C 22.929688 35.46875 22.285156 36.191406 21.769531 36.570312 C 21.371094 36.875 21.027344 37.21875 20.648438 37.539062 C 20.457031 37.691406 20.441406 37.863281 20.441406 37.941406 C 20.421875 37.902344 20.363281 37.824219 20.289062 37.730469 C 20.324219 37.769531 20.039062 37.027344 20.019531 37.007812 C 19.945312 36.875 19.773438 36.78125 19.621094 36.78125 C 18.042969 36.816406 16.804688 38.207031 15.855469 39.234375 C 15.359375 39.785156 14.449219 39.917969 13.914062 40.449219 C 13.476562 40.886719 13.269531 41.460938 12.945312 41.972656 C 12.660156 42.144531 12.449219 42.429688 12.183594 42.773438 C 12.144531 42.828125 12.144531 42.90625 12.183594 42.960938 C 12.183594 42.980469 12.203125 43 12.203125 43.019531 C 12.242188 43.074219 12.335938 43.113281 12.394531 43.074219 C 12.714844 42.828125 13.933594 42.941406 14.238281 43.019531 C 14.828125 43.171875 15.246094 43.398438 15.894531 43.226562 C 16.691406 43.039062 16.558594 42.773438 16.691406 42.335938 C 17.453125 42.734375 17.664062 43.09375 18.824219 43.113281 C 19.488281 43.132812 20.152344 43.113281 20.648438 42.636719 C 20.800781 42.503906 20.800781 42.277344 20.726562 42.105469 C 20.289062 41.230469 22.171875 40.832031 22.609375 40.164062 C 22.722656 39.996094 22.703125 39.765625 22.609375 39.59375 C 22.285156 39.003906 22.132812 38.320312 22.398438 37.671875 C 22.550781 37.3125 22.78125 37.140625 22.855469 36.761719 C 23.046875 36.78125 23.253906 36.875 23.519531 37.066406 C 24.242188 37.636719 24.679688 38.816406 25.253906 39.5 C 25.917969 40.316406 26.925781 40.90625 27.707031 41.59375 C 27.972656 41.839844 28.390625 41.421875 28.105469 41.191406 C 27.058594 40.300781 25.957031 39.539062 25.195312 38.359375 Z M 21.847656 37.617188 C 22.054688 37.253906 22.285156 36.914062 22.589844 36.796875 C 22.398438 37.140625 22.113281 37.371094 21.847656 37.617188 Z M 21.847656 37.617188 " fill-opacity="1" fill-rule="nonzero"/><path fill="#d9d9d9" d="M 10.242188 34.078125 C 10.035156 34.136719 9.785156 34.15625 9.617188 34.269531 C 9.367188 34.441406 9.292969 34.746094 9.027344 34.914062 C 8.742188 35.085938 8.472656 35.105469 8.265625 35.429688 C 8.132812 35.636719 8.226562 35.921875 8.132812 36.09375 C 8.054688 36.246094 7.734375 36.359375 7.617188 36.511719 C 7.351562 36.816406 7.3125 36.988281 6.894531 37.21875 C 6.515625 37.425781 6.25 37.464844 6.132812 37.921875 C 6.097656 38.035156 6.269531 38.09375 6.324219 37.996094 C 6.6875 37.464844 7.199219 37.636719 7.65625 37.292969 C 7.847656 37.160156 7.789062 37.140625 7.941406 36.96875 C 8.265625 36.648438 8.457031 36.628906 8.855469 36.457031 C 9.253906 36.285156 9.558594 36 9.75 35.621094 C 9.976562 35.183594 10.242188 34.648438 10.375 34.171875 C 10.394531 34.136719 10.320312 34.058594 10.242188 34.078125 Z M 10.242188 34.078125 " fill-opacity="1" fill-rule="nonzero"/><path fill="#d9d9d9" d="M 13.324219 38.359375 C 13.363281 38.300781 13.304688 38.226562 13.25 38.246094 C 13.019531 38.261719 12.945312 38.433594 12.734375 38.511719 C 12.527344 38.605469 12.375 38.699219 12.242188 38.910156 C 12.070312 39.175781 11.9375 39.460938 11.726562 39.710938 C 11.632812 39.824219 11.5 39.917969 11.402344 40.03125 C 11.328125 40.128906 11.289062 40.261719 11.214844 40.355469 C 11.195312 40.394531 11.234375 40.449219 11.269531 40.414062 C 11.726562 40.109375 12.089844 39.671875 12.507812 39.308594 C 12.867188 39.042969 13.058594 38.71875 13.324219 38.359375 Z M 13.324219 38.359375 " fill-opacity="1" fill-rule="nonzero"/><path fill="#d9d9d9" d="M 14.238281 37.730469 C 14.351562 37.617188 14.523438 37.523438 14.601562 37.371094 C 14.675781 37.253906 14.734375 37.085938 14.65625 36.96875 C 14.582031 36.855469 14.449219 36.855469 14.3125 36.875 C 14.085938 36.855469 13.839844 37.007812 13.707031 37.160156 C 13.609375 37.273438 13.554688 37.386719 13.535156 37.539062 C 13.515625 37.617188 13.515625 37.671875 13.515625 37.75 C 13.515625 37.789062 13.535156 37.824219 13.554688 37.863281 C 13.535156 37.808594 13.515625 37.808594 13.535156 37.863281 C 13.535156 37.976562 13.648438 38.074219 13.761719 38.035156 C 13.78125 38.035156 13.914062 37.976562 13.820312 37.996094 C 13.875 37.976562 13.933594 37.976562 13.992188 37.941406 C 14.066406 37.902344 14.164062 37.824219 14.238281 37.730469 Z M 14.238281 37.730469 " fill-opacity="1" fill-rule="nonzero"/><path fill="#d9d9d9" d="M 35.429688 43.96875 C 35.238281 43.894531 35.257812 43.417969 35.144531 43.226562 C 35.011719 42.980469 34.761719 42.886719 34.496094 42.828125 C 34.25 42.773438 34.191406 42.65625 34.003906 42.523438 C 33.851562 42.410156 33.660156 42.371094 33.507812 42.238281 C 33.242188 42.03125 33.128906 41.726562 32.859375 41.535156 C 32.746094 41.460938 32.632812 41.613281 32.691406 41.707031 C 32.898438 42.066406 33.03125 42.277344 33.355469 42.582031 C 33.601562 42.828125 33.71875 43.171875 34.039062 43.324219 C 34.15625 43.378906 34.324219 43.363281 34.441406 43.4375 C 34.628906 43.550781 34.574219 43.722656 34.609375 43.914062 C 34.667969 44.238281 34.820312 44.484375 35.144531 44.597656 C 35.523438 44.730469 35.789062 44.121094 35.429688 43.96875 Z M 35.429688 43.96875 " fill-opacity="1" fill-rule="nonzero"/><path fill="#d9d9d9" d="M 35.925781 42.050781 C 36.019531 42.085938 35.90625 41.933594 35.886719 41.878906 C 35.828125 41.761719 35.773438 41.648438 35.695312 41.535156 C 35.5625 41.34375 35.429688 41.289062 35.238281 41.175781 C 35.046875 41.039062 34.878906 40.871094 34.6875 40.71875 C 34.460938 40.566406 34.25 40.449219 34.136719 40.183594 C 34.117188 40.128906 34.003906 40.109375 33.984375 40.183594 C 33.925781 40.507812 34.210938 40.679688 34.460938 40.871094 C 34.726562 41.058594 34.898438 41.289062 35.066406 41.574219 C 35.199219 41.820312 35.371094 42.066406 35.429688 42.351562 C 35.449219 42.46875 35.582031 42.5625 35.714844 42.5625 C 35.734375 42.5625 35.773438 42.5625 35.789062 42.5625 C 36.039062 42.5625 36.191406 42.164062 35.925781 42.050781 Z M 35.925781 42.050781 " fill-opacity="1" fill-rule="nonzero"/><path fill="#d9d9d9" d="M 36 40.011719 C 35.90625 39.957031 35.789062 39.9375 35.714844 39.878906 C 35.5625 39.765625 35.46875 39.613281 35.257812 39.574219 C 35.144531 39.558594 35.085938 39.691406 35.183594 39.746094 C 35.316406 39.84375 35.390625 40.03125 35.503906 40.148438 C 35.636719 40.28125 35.808594 40.375 35.960938 40.488281 C 36.152344 40.640625 36.417969 40.394531 36.246094 40.203125 C 36.171875 40.128906 36.09375 40.070312 36 40.011719 Z M 36 40.011719 " fill-opacity="1" fill-rule="nonzero"/></g></g></g><g transform="matrix(1, 0, 0, 1, 18, 12)"><g clip-path="url(#cce533e034)"><g fill="#11998e" fill-opacity="1"><g transform="translate(0.564693, 29.344808)"><g><path d="M 16.453125 -13.125 C 16.453125 -12 16.191406 -10.972656 15.671875 -10.046875 C 15.160156 -9.117188 14.375 -8.367188 13.3125 -7.796875 C 12.25 -7.234375 10.925781 -6.953125 9.34375 -6.953125 L 6.421875 -6.953125 L 6.421875 0 L 1.703125 0 L 1.703125 -19.34375 L 9.34375 -19.34375 C 10.882812 -19.34375 12.1875 -19.078125 13.25 -18.546875 C 14.320312 -18.015625 15.125 -17.28125 15.65625 -16.34375 C 16.1875 -15.40625 16.453125 -14.332031 16.453125 -13.125 Z M 8.984375 -10.6875 C 9.890625 -10.6875 10.5625 -10.898438 11 -11.328125 C 11.4375 -11.753906 11.65625 -12.351562 11.65625 -13.125 C 11.65625 -13.894531 11.4375 -14.488281 11 -14.90625 C 10.5625 -15.332031 9.890625 -15.546875 8.984375 -15.546875 L 6.421875 -15.546875 L 6.421875 -10.6875 Z M 8.984375 -10.6875 "/></g></g></g><g fill="#11998e" fill-opacity="1"><g transform="translate(17.212733, 29.344808)"><g><path d="M 4.078125 -16.984375 C 3.253906 -16.984375 2.578125 -17.222656 2.046875 -17.703125 C 1.523438 -18.191406 1.265625 -18.796875 1.265625 -19.515625 C 1.265625 -20.242188 1.523438 -20.851562 2.046875 -21.34375 C 2.578125 -21.832031 3.253906 -22.078125 4.078125 -22.078125 C 4.890625 -22.078125 5.554688 -21.832031 6.078125 -21.34375 C 6.597656 -20.851562 6.859375 -20.242188 6.859375 -19.515625 C 6.859375 -18.796875 6.597656 -18.191406 6.078125 -17.703125 C 5.554688 -17.222656 4.890625 -16.984375 4.078125 -16.984375 Z M 6.421875 -15.375 L 6.421875 0 L 1.703125 0 L 1.703125 -15.375 Z M 6.421875 -15.375 "/></g></g></g><g fill="#11998e" fill-opacity="1"><g transform="translate(24.792452, 29.344808)"><g><path d="M 10.796875 0 L 7.859375 -4.265625 L 5.375 0 L 0.28125 0 L 5.34375 -7.859375 L 0.140625 -15.375 L 5.4375 -15.375 L 8.375 -11.140625 L 10.859375 -15.375 L 15.953125 -15.375 L 10.796875 -7.640625 L 16.09375 0 Z M 10.796875 0 "/></g></g></g><g fill="#11998e" fill-opacity="1"><g transform="translate(40.448207, 29.344808)"><g><path d="M 8.703125 0.21875 C 7.203125 0.21875 5.847656 -0.0976562 4.640625 -0.734375 C 3.441406 -1.378906 2.492188 -2.300781 1.796875 -3.5 C 1.109375 -4.695312 0.765625 -6.09375 0.765625 -7.6875 C 0.765625 -9.269531 1.113281 -10.660156 1.8125 -11.859375 C 2.507812 -13.066406 3.460938 -13.988281 4.671875 -14.625 C 5.890625 -15.269531 7.253906 -15.59375 8.765625 -15.59375 C 10.273438 -15.59375 11.632812 -15.269531 12.84375 -14.625 C 14.050781 -13.988281 15.003906 -13.066406 15.703125 -11.859375 C 16.410156 -10.660156 16.765625 -9.269531 16.765625 -7.6875 C 16.765625 -6.101562 16.410156 -4.707031 15.703125 -3.5 C 14.992188 -2.300781 14.023438 -1.378906 12.796875 -0.734375 C 11.578125 -0.0976562 10.210938 0.21875 8.703125 0.21875 Z M 8.703125 -3.859375 C 9.609375 -3.859375 10.378906 -4.1875 11.015625 -4.84375 C 11.648438 -5.507812 11.96875 -6.457031 11.96875 -7.6875 C 11.96875 -8.914062 11.65625 -9.859375 11.03125 -10.515625 C 10.414062 -11.179688 9.660156 -11.515625 8.765625 -11.515625 C 7.847656 -11.515625 7.082031 -11.1875 6.46875 -10.53125 C 5.863281 -9.882812 5.5625 -8.9375 5.5625 -7.6875 C 5.5625 -6.457031 5.859375 -5.507812 6.453125 -4.84375 C 7.054688 -4.1875 7.804688 -3.859375 8.703125 -3.859375 Z M 8.703125 -3.859375 "/></g></g></g><g fill="#11998e" fill-opacity="1"><g transform="translate(57.454565, 29.344808)"><g><path d="M 6.421875 -12.8125 C 6.972656 -13.65625 7.660156 -14.320312 8.484375 -14.8125 C 9.316406 -15.300781 10.238281 -15.546875 11.25 -15.546875 L 11.25 -10.5625 L 9.953125 -10.5625 C 8.773438 -10.5625 7.890625 -10.304688 7.296875 -9.796875 C 6.710938 -9.296875 6.421875 -8.410156 6.421875 -7.140625 L 6.421875 0 L 1.703125 0 L 1.703125 -15.375 L 6.421875 -15.375 Z M 6.421875 -12.8125 "/></g></g></g><g fill="#11998e" fill-opacity="1"><g transform="translate(68.700202, 29.344808)"><g><path d="M 0.765625 -7.71875 C 0.765625 -9.300781 1.0625 -10.6875 1.65625 -11.875 C 2.257812 -13.070312 3.078125 -13.988281 4.109375 -14.625 C 5.140625 -15.269531 6.285156 -15.59375 7.546875 -15.59375 C 8.628906 -15.59375 9.578125 -15.375 10.390625 -14.9375 C 11.210938 -14.5 11.847656 -13.921875 12.296875 -13.203125 L 12.296875 -15.375 L 17 -15.375 L 17 0 L 12.296875 0 L 12.296875 -2.171875 C 11.835938 -1.460938 11.195312 -0.882812 10.375 -0.4375 C 9.5625 0 8.613281 0.21875 7.53125 0.21875 C 6.28125 0.21875 5.140625 -0.101562 4.109375 -0.75 C 3.078125 -1.40625 2.257812 -2.332031 1.65625 -3.53125 C 1.0625 -4.738281 0.765625 -6.132812 0.765625 -7.71875 Z M 12.296875 -7.6875 C 12.296875 -8.863281 11.96875 -9.789062 11.3125 -10.46875 C 10.664062 -11.15625 9.875 -11.5 8.9375 -11.5 C 8 -11.5 7.203125 -11.160156 6.546875 -10.484375 C 5.890625 -9.816406 5.5625 -8.894531 5.5625 -7.71875 C 5.5625 -6.539062 5.890625 -5.609375 6.546875 -4.921875 C 7.203125 -4.234375 8 -3.890625 8.9375 -3.890625 C 9.875 -3.890625 10.664062 -4.226562 11.3125 -4.90625 C 11.96875 -5.582031 12.296875 -6.507812 12.296875 -7.6875 Z M 12.296875 -7.6875 "/></g></g></g></g></g><g mask="url(#145a20c716)"><g transform="matrix(1, 0, 0, 1, 50, 41)"><g clip-path="url(#052cb30ec9)"><g clip-path="url(#5e2e868e92)"><g><g clip-path="url(#6ddcf7554d)"><g fill="#ffffff" fill-opacity="1"><g transform="translate(1.015634, 12.321294)"><g><path d="M 6.453125 -9.5625 C 6.765625 -9.070312 6.96875 -8.503906 7.0625 -7.859375 C 7.15625 -7.222656 7.160156 -6.578125 7.078125 -5.921875 C 7.003906 -5.273438 6.875 -4.671875 6.6875 -4.109375 C 6.5 -3.546875 6.269531 -3.085938 6 -2.734375 C 5.5625 -2.171875 5.050781 -1.675781 4.46875 -1.25 C 3.894531 -0.832031 3.289062 -0.503906 2.65625 -0.265625 C 2.03125 -0.0234375 1.421875 0.09375 0.828125 0.09375 C 0.722656 0.09375 0.613281 0.0859375 0.5 0.078125 C 0.382812 0.0664062 0.289062 0.0195312 0.21875 -0.0625 C 0.144531 -0.15625 0.117188 -0.257812 0.140625 -0.375 L 1.78125 -10.765625 C 1.8125 -10.972656 1.929688 -11.082031 2.140625 -11.09375 C 2.171875 -11.09375 2.296875 -11.097656 2.515625 -11.109375 C 2.742188 -11.117188 3.03125 -11.109375 3.375 -11.078125 C 3.726562 -11.046875 4.097656 -10.976562 4.484375 -10.875 C 4.867188 -10.78125 5.234375 -10.625 5.578125 -10.40625 C 5.921875 -10.195312 6.210938 -9.914062 6.453125 -9.5625 Z M 5.359375 -3.21875 C 5.597656 -3.507812 5.796875 -3.90625 5.953125 -4.40625 C 6.117188 -4.90625 6.234375 -5.441406 6.296875 -6.015625 C 6.367188 -6.585938 6.363281 -7.148438 6.28125 -7.703125 C 6.207031 -8.253906 6.039062 -8.734375 5.78125 -9.140625 C 5.613281 -9.410156 5.382812 -9.625 5.09375 -9.78125 C 4.800781 -9.945312 4.488281 -10.066406 4.15625 -10.140625 C 3.820312 -10.222656 3.507812 -10.273438 3.21875 -10.296875 C 2.925781 -10.316406 2.691406 -10.328125 2.515625 -10.328125 L 0.984375 -0.703125 C 1.492188 -0.722656 2.015625 -0.835938 2.546875 -1.046875 C 3.078125 -1.265625 3.585938 -1.554688 4.078125 -1.921875 C 4.566406 -2.296875 4.992188 -2.726562 5.359375 -3.21875 Z M 5.359375 -3.21875 "/></g></g></g><g fill="#ffffff" fill-opacity="1"><g transform="translate(8.182336, 12.321294)"><g><path d="M 4.09375 -1.53125 C 4.175781 -1.59375 4.269531 -1.617188 4.375 -1.609375 C 4.476562 -1.609375 4.570312 -1.566406 4.65625 -1.484375 C 4.726562 -1.398438 4.757812 -1.300781 4.75 -1.1875 C 4.738281 -1.082031 4.6875 -0.992188 4.59375 -0.921875 C 4.363281 -0.722656 4.070312 -0.53125 3.71875 -0.34375 C 3.363281 -0.164062 2.96875 -0.078125 2.53125 -0.078125 C 2.40625 -0.078125 2.28125 -0.0859375 2.15625 -0.109375 C 1.5625 -0.191406 1.109375 -0.488281 0.796875 -1 C 0.617188 -1.3125 0.519531 -1.660156 0.5 -2.046875 C 0.488281 -2.085938 0.484375 -2.125 0.484375 -2.15625 C 0.484375 -2.15625 0.488281 -2.160156 0.5 -2.171875 C 0.488281 -2.546875 0.554688 -2.941406 0.703125 -3.359375 C 0.859375 -3.773438 1.101562 -4.148438 1.4375 -4.484375 C 1.78125 -4.828125 2.179688 -5.085938 2.640625 -5.265625 C 2.960938 -5.398438 3.269531 -5.472656 3.5625 -5.484375 C 3.851562 -5.503906 4.097656 -5.457031 4.296875 -5.34375 C 4.671875 -5.164062 4.875 -4.882812 4.90625 -4.5 C 4.925781 -4.226562 4.847656 -3.941406 4.671875 -3.640625 C 4.492188 -3.347656 4.238281 -3.066406 3.90625 -2.796875 C 3.382812 -2.421875 2.894531 -2.15625 2.4375 -2 C 1.976562 -1.851562 1.609375 -1.769531 1.328125 -1.75 C 1.367188 -1.625 1.414062 -1.507812 1.46875 -1.40625 C 1.644531 -1.101562 1.910156 -0.929688 2.265625 -0.890625 C 2.640625 -0.828125 2.988281 -0.875 3.3125 -1.03125 C 3.632812 -1.1875 3.894531 -1.351562 4.09375 -1.53125 Z M 1.453125 -3.09375 C 1.378906 -2.90625 1.332031 -2.71875 1.3125 -2.53125 C 1.539062 -2.5625 1.84375 -2.640625 2.21875 -2.765625 C 2.59375 -2.890625 2.992188 -3.113281 3.421875 -3.4375 C 3.679688 -3.625 3.863281 -3.804688 3.96875 -3.984375 C 4.070312 -4.171875 4.125 -4.320312 4.125 -4.4375 C 4.113281 -4.457031 4.097656 -4.488281 4.078125 -4.53125 C 4.054688 -4.570312 4.007812 -4.613281 3.9375 -4.65625 C 3.882812 -4.6875 3.796875 -4.703125 3.671875 -4.703125 C 3.578125 -4.703125 3.46875 -4.6875 3.34375 -4.65625 C 3.21875 -4.632812 3.078125 -4.59375 2.921875 -4.53125 C 2.578125 -4.394531 2.273438 -4.195312 2.015625 -3.9375 C 1.753906 -3.6875 1.566406 -3.40625 1.453125 -3.09375 Z M 1.453125 -3.09375 "/></g></g></g><g fill="#ffffff" fill-opacity="1"><g transform="translate(13.565354, 12.321294)"><g><path d="M 1.859375 -4.515625 C 1.753906 -4.460938 1.6875 -4.40625 1.65625 -4.34375 C 1.625 -4.289062 1.609375 -4.238281 1.609375 -4.1875 C 1.578125 -4.019531 1.660156 -3.863281 1.859375 -3.71875 C 2.066406 -3.570312 2.394531 -3.398438 2.84375 -3.203125 C 3.238281 -3.035156 3.535156 -2.851562 3.734375 -2.65625 C 3.941406 -2.457031 4.082031 -2.265625 4.15625 -2.078125 C 4.226562 -1.898438 4.269531 -1.753906 4.28125 -1.640625 C 4.3125 -1.179688 4.128906 -0.828125 3.734375 -0.578125 C 3.378906 -0.347656 2.984375 -0.234375 2.546875 -0.234375 C 2.347656 -0.234375 2.15625 -0.253906 1.96875 -0.296875 C 1.289062 -0.484375 0.78125 -0.914062 0.4375 -1.59375 C 0.375 -1.6875 0.359375 -1.785156 0.390625 -1.890625 C 0.429688 -1.992188 0.5 -2.070312 0.59375 -2.125 C 0.6875 -2.175781 0.785156 -2.1875 0.890625 -2.15625 C 0.992188 -2.125 1.066406 -2.054688 1.109375 -1.953125 C 1.367188 -1.472656 1.722656 -1.175781 2.171875 -1.0625 C 2.578125 -0.957031 2.957031 -1.015625 3.3125 -1.234375 C 3.445312 -1.328125 3.507812 -1.441406 3.5 -1.578125 C 3.488281 -1.734375 3.398438 -1.890625 3.234375 -2.046875 C 3.066406 -2.210938 2.832031 -2.359375 2.53125 -2.484375 C 2.257812 -2.609375 1.984375 -2.75 1.703125 -2.90625 C 1.421875 -3.0625 1.191406 -3.253906 1.015625 -3.484375 C 0.835938 -3.710938 0.773438 -3.988281 0.828125 -4.3125 C 0.890625 -4.71875 1.113281 -5.015625 1.5 -5.203125 C 1.8125 -5.378906 2.175781 -5.457031 2.59375 -5.4375 C 3.019531 -5.414062 3.367188 -5.34375 3.640625 -5.21875 C 4.078125 -5.007812 4.40625 -4.769531 4.625 -4.5 C 4.6875 -4.414062 4.707031 -4.320312 4.6875 -4.21875 C 4.675781 -4.113281 4.625 -4.03125 4.53125 -3.96875 C 4.445312 -3.894531 4.351562 -3.863281 4.25 -3.875 C 4.144531 -3.894531 4.0625 -3.945312 4 -4.03125 C 3.945312 -4.082031 3.867188 -4.148438 3.765625 -4.234375 C 3.660156 -4.316406 3.507812 -4.40625 3.3125 -4.5 C 3.132812 -4.59375 2.894531 -4.644531 2.59375 -4.65625 C 2.300781 -4.664062 2.054688 -4.617188 1.859375 -4.515625 Z M 1.859375 -4.515625 "/></g></g></g><g fill="#ffffff" fill-opacity="1"><g transform="translate(18.566149, 12.321294)"><g><path d="M 1.65625 -5.421875 C 1.757812 -5.398438 1.84375 -5.34375 1.90625 -5.25 C 1.96875 -5.164062 1.988281 -5.070312 1.96875 -4.96875 L 1.125 -0.171875 C 1.082031 0.046875 0.957031 0.15625 0.75 0.15625 C 0.726562 0.15625 0.703125 0.15625 0.671875 0.15625 C 0.566406 0.132812 0.484375 0.0820312 0.421875 0 C 0.359375 -0.09375 0.332031 -0.191406 0.34375 -0.296875 L 1.1875 -5.109375 C 1.207031 -5.210938 1.265625 -5.289062 1.359375 -5.34375 C 1.453125 -5.40625 1.550781 -5.429688 1.65625 -5.421875 Z M 1.96875 -8.5 C 2.113281 -8.5 2.234375 -8.453125 2.328125 -8.359375 C 2.429688 -8.265625 2.484375 -8.148438 2.484375 -8.015625 C 2.484375 -7.867188 2.429688 -7.742188 2.328125 -7.640625 C 2.234375 -7.546875 2.113281 -7.5 1.96875 -7.5 C 1.832031 -7.5 1.71875 -7.546875 1.625 -7.640625 C 1.53125 -7.742188 1.484375 -7.867188 1.484375 -8.015625 C 1.484375 -8.148438 1.53125 -8.265625 1.625 -8.359375 C 1.71875 -8.453125 1.832031 -8.5 1.96875 -8.5 Z M 1.96875 -8.5 "/></g></g></g><g fill="#ffffff" fill-opacity="1"><g transform="translate(20.891356, 12.321294)"><g><path d="M 5.046875 -5.328125 C 5.148438 -5.304688 5.234375 -5.253906 5.296875 -5.171875 C 5.359375 -5.085938 5.378906 -4.988281 5.359375 -4.875 C 5.359375 -4.84375 5.332031 -4.671875 5.28125 -4.359375 C 5.226562 -4.046875 5.160156 -3.65625 5.078125 -3.1875 C 5.003906 -2.726562 4.925781 -2.25 4.84375 -1.75 C 4.757812 -1.25 4.675781 -0.789062 4.59375 -0.375 C 4.507812 0.0390625 4.445312 0.359375 4.40625 0.578125 C 4.332031 0.941406 4.234375 1.347656 4.109375 1.796875 C 3.984375 2.242188 3.828125 2.691406 3.640625 3.140625 C 3.460938 3.585938 3.25 3.992188 3 4.359375 C 2.75 4.734375 2.460938 5.03125 2.140625 5.25 C 1.828125 5.476562 1.472656 5.59375 1.078125 5.59375 C 1.066406 5.59375 1.054688 5.59375 1.046875 5.59375 C 0.597656 5.59375 0.253906 5.523438 0.015625 5.390625 C -0.210938 5.265625 -0.375 5.132812 -0.46875 5 C -0.570312 4.875 -0.628906 4.796875 -0.640625 4.765625 C -0.679688 4.648438 -0.679688 4.546875 -0.640625 4.453125 C -0.597656 4.359375 -0.519531 4.289062 -0.40625 4.25 C -0.3125 4.207031 -0.210938 4.207031 -0.109375 4.25 C -0.015625 4.289062 0.0507812 4.363281 0.09375 4.46875 C 0.09375 4.46875 0.15625 4.523438 0.28125 4.640625 C 0.40625 4.753906 0.660156 4.8125 1.046875 4.8125 C 1.054688 4.8125 1.0625 4.8125 1.0625 4.8125 C 1.582031 4.8125 2.070312 4.421875 2.53125 3.640625 C 2.988281 2.859375 3.359375 1.773438 3.640625 0.390625 C 3.679688 0.179688 3.742188 -0.144531 3.828125 -0.59375 C 3.910156 -1.050781 4 -1.53125 4.09375 -2.03125 C 3.332031 -0.882812 2.617188 -0.210938 1.953125 -0.015625 C 1.804688 0.0234375 1.664062 0.046875 1.53125 0.046875 C 1.28125 0.046875 1.050781 -0.0078125 0.84375 -0.125 C 0.769531 -0.164062 0.691406 -0.238281 0.609375 -0.34375 C 0.523438 -0.445312 0.457031 -0.59375 0.40625 -0.78125 C 0.34375 -1.019531 0.335938 -1.3125 0.390625 -1.65625 C 0.441406 -2 0.53125 -2.34375 0.65625 -2.6875 C 0.78125 -3.039062 0.9375 -3.359375 1.125 -3.640625 C 1.5 -4.203125 1.921875 -4.648438 2.390625 -4.984375 C 2.867188 -5.316406 3.3125 -5.484375 3.71875 -5.484375 C 3.90625 -5.484375 4.070312 -5.441406 4.21875 -5.359375 C 4.363281 -5.285156 4.5 -5.195312 4.625 -5.09375 C 4.707031 -5.28125 4.847656 -5.359375 5.046875 -5.328125 Z M 1.71875 -0.765625 C 1.851562 -0.804688 2.039062 -0.921875 2.28125 -1.109375 C 2.53125 -1.304688 2.828125 -1.640625 3.171875 -2.109375 C 3.523438 -2.585938 3.929688 -3.269531 4.390625 -4.15625 C 4.316406 -4.269531 4.21875 -4.390625 4.09375 -4.515625 C 3.96875 -4.640625 3.84375 -4.703125 3.71875 -4.703125 C 3.488281 -4.703125 3.191406 -4.578125 2.828125 -4.328125 C 2.460938 -4.078125 2.113281 -3.707031 1.78125 -3.21875 C 1.5625 -2.882812 1.398438 -2.539062 1.296875 -2.1875 C 1.203125 -1.84375 1.148438 -1.539062 1.140625 -1.28125 C 1.140625 -1.019531 1.171875 -0.863281 1.234375 -0.8125 C 1.390625 -0.726562 1.550781 -0.710938 1.71875 -0.765625 Z M 1.71875 -0.765625 "/></g></g></g><g fill="#ffffff" fill-opacity="1"><g transform="translate(26.624746, 12.321294)"><g><path d="M 4.96875 -5.109375 C 5.132812 -4.960938 5.242188 -4.710938 5.296875 -4.359375 C 5.359375 -4.003906 5.375 -3.585938 5.34375 -3.109375 C 5.320312 -2.640625 5.28125 -2.164062 5.21875 -1.6875 C 5.15625 -1.207031 5.085938 -0.78125 5.015625 -0.40625 C 5.003906 -0.300781 4.953125 -0.21875 4.859375 -0.15625 C 4.773438 -0.09375 4.675781 -0.0703125 4.5625 -0.09375 C 4.457031 -0.113281 4.375 -0.164062 4.3125 -0.25 C 4.25 -0.34375 4.226562 -0.445312 4.25 -0.5625 C 4.351562 -1.175781 4.429688 -1.765625 4.484375 -2.328125 C 4.546875 -2.898438 4.570312 -3.378906 4.5625 -3.765625 C 4.5625 -4.160156 4.523438 -4.40625 4.453125 -4.5 C 4.347656 -4.59375 4.234375 -4.617188 4.109375 -4.578125 C 3.859375 -4.515625 3.59375 -4.332031 3.3125 -4.03125 C 3.039062 -3.726562 2.769531 -3.359375 2.5 -2.921875 C 2.238281 -2.492188 1.988281 -2.046875 1.75 -1.578125 C 1.507812 -1.109375 1.304688 -0.679688 1.140625 -0.296875 C 1.078125 -0.140625 0.957031 -0.0625 0.78125 -0.0625 C 0.75 -0.0625 0.710938 -0.0664062 0.671875 -0.078125 C 0.578125 -0.109375 0.5 -0.164062 0.4375 -0.25 C 0.382812 -0.332031 0.367188 -0.425781 0.390625 -0.53125 L 1.171875 -5.109375 C 1.179688 -5.210938 1.234375 -5.296875 1.328125 -5.359375 C 1.421875 -5.429688 1.519531 -5.453125 1.625 -5.421875 C 1.726562 -5.410156 1.8125 -5.359375 1.875 -5.265625 C 1.9375 -5.179688 1.957031 -5.085938 1.9375 -4.984375 L 1.609375 -2.96875 C 1.816406 -3.320312 2.046875 -3.664062 2.296875 -4 C 2.554688 -4.34375 2.820312 -4.632812 3.09375 -4.875 C 3.363281 -5.113281 3.640625 -5.269531 3.921875 -5.34375 C 4.296875 -5.445312 4.644531 -5.367188 4.96875 -5.109375 Z M 4.96875 -5.109375 "/></g></g></g><g fill="#ffffff" fill-opacity="1"><g transform="translate(32.644812, 12.321294)"><g><path d="M 0.578125 -0.8125 C 0.703125 -0.8125 0.8125 -0.765625 0.90625 -0.671875 C 1 -0.585938 1.046875 -0.472656 1.046875 -0.328125 C 1.046875 -0.203125 1 -0.09375 0.90625 0 C 0.8125 0.09375 0.703125 0.140625 0.578125 0.140625 C 0.429688 0.140625 0.3125 0.09375 0.21875 0 C 0.132812 -0.09375 0.09375 -0.203125 0.09375 -0.328125 C 0.09375 -0.472656 0.132812 -0.585938 0.21875 -0.671875 C 0.3125 -0.765625 0.429688 -0.8125 0.578125 -0.8125 Z M 0.578125 -0.8125 "/></g></g></g><g fill="#ffffff" fill-opacity="1"><g transform="translate(34.794836, 12.321294)"><g/></g></g><g fill="#ffffff" fill-opacity="1"><g transform="translate(39.11081, 12.321294)"><g><path d="M 6.453125 -9.5625 C 6.765625 -9.070312 6.96875 -8.503906 7.0625 -7.859375 C 7.15625 -7.222656 7.160156 -6.578125 7.078125 -5.921875 C 7.003906 -5.273438 6.875 -4.671875 6.6875 -4.109375 C 6.5 -3.546875 6.269531 -3.085938 6 -2.734375 C 5.5625 -2.171875 5.050781 -1.675781 4.46875 -1.25 C 3.894531 -0.832031 3.289062 -0.503906 2.65625 -0.265625 C 2.03125 -0.0234375 1.421875 0.09375 0.828125 0.09375 C 0.722656 0.09375 0.613281 0.0859375 0.5 0.078125 C 0.382812 0.0664062 0.289062 0.0195312 0.21875 -0.0625 C 0.144531 -0.15625 0.117188 -0.257812 0.140625 -0.375 L 1.78125 -10.765625 C 1.8125 -10.972656 1.929688 -11.082031 2.140625 -11.09375 C 2.171875 -11.09375 2.296875 -11.097656 2.515625 -11.109375 C 2.742188 -11.117188 3.03125 -11.109375 3.375 -11.078125 C 3.726562 -11.046875 4.097656 -10.976562 4.484375 -10.875 C 4.867188 -10.78125 5.234375 -10.625 5.578125 -10.40625 C 5.921875 -10.195312 6.210938 -9.914062 6.453125 -9.5625 Z M 5.359375 -3.21875 C 5.597656 -3.507812 5.796875 -3.90625 5.953125 -4.40625 C 6.117188 -4.90625 6.234375 -5.441406 6.296875 -6.015625 C 6.367188 -6.585938 6.363281 -7.148438 6.28125 -7.703125 C 6.207031 -8.253906 6.039062 -8.734375 5.78125 -9.140625 C 5.613281 -9.410156 5.382812 -9.625 5.09375 -9.78125 C 4.800781 -9.945312 4.488281 -10.066406 4.15625 -10.140625 C 3.820312 -10.222656 3.507812 -10.273438 3.21875 -10.296875 C 2.925781 -10.316406 2.691406 -10.328125 2.515625 -10.328125 L 0.984375 -0.703125 C 1.492188 -0.722656 2.015625 -0.835938 2.546875 -1.046875 C 3.078125 -1.265625 3.585938 -1.554688 4.078125 -1.921875 C 4.566406 -2.296875 4.992188 -2.726562 5.359375 -3.21875 Z M 5.359375 -3.21875 "/></g></g></g><g fill="#ffffff" fill-opacity="1"><g transform="translate(46.325293, 12.321294)"><g><path d="M 5 -5.0625 C 5.082031 -5 5.128906 -4.910156 5.140625 -4.796875 C 5.160156 -4.691406 5.140625 -4.59375 5.078125 -4.5 C 5.015625 -4.414062 4.929688 -4.363281 4.828125 -4.34375 C 4.722656 -4.332031 4.625 -4.359375 4.53125 -4.421875 C 4.519531 -4.421875 4.441406 -4.445312 4.296875 -4.5 C 4.160156 -4.5625 3.960938 -4.582031 3.703125 -4.5625 C 3.453125 -4.539062 3.160156 -4.414062 2.828125 -4.1875 C 2.660156 -4.070312 2.492188 -3.867188 2.328125 -3.578125 C 2.160156 -3.296875 2.003906 -2.96875 1.859375 -2.59375 C 1.722656 -2.21875 1.597656 -1.84375 1.484375 -1.46875 C 1.367188 -1.09375 1.273438 -0.757812 1.203125 -0.46875 C 1.160156 -0.257812 1.035156 -0.15625 0.828125 -0.15625 C 0.796875 -0.15625 0.769531 -0.160156 0.75 -0.171875 C 0.65625 -0.179688 0.570312 -0.234375 0.5 -0.328125 C 0.4375 -0.421875 0.421875 -0.519531 0.453125 -0.625 L 1.15625 -5.234375 C 1.164062 -5.335938 1.21875 -5.421875 1.3125 -5.484375 C 1.40625 -5.554688 1.503906 -5.585938 1.609375 -5.578125 C 1.710938 -5.554688 1.796875 -5.5 1.859375 -5.40625 C 1.921875 -5.320312 1.945312 -5.226562 1.9375 -5.125 L 1.796875 -4.203125 C 1.984375 -4.492188 2.179688 -4.707031 2.390625 -4.84375 C 2.742188 -5.09375 3.082031 -5.25 3.40625 -5.3125 C 3.726562 -5.375 4.003906 -5.382812 4.234375 -5.34375 C 4.460938 -5.300781 4.644531 -5.242188 4.78125 -5.171875 C 4.914062 -5.097656 4.988281 -5.0625 5 -5.0625 Z M 5 -5.0625 "/></g></g></g><g fill="#ffffff" fill-opacity="1"><g transform="translate(51.182726, 12.321294)"><g><path d="M 4.765625 -4.140625 C 4.804688 -3.609375 4.769531 -3.140625 4.65625 -2.734375 C 4.539062 -2.335938 4.394531 -2 4.21875 -1.71875 C 4.050781 -1.4375 3.890625 -1.210938 3.734375 -1.046875 C 3.492188 -0.785156 3.238281 -0.582031 2.96875 -0.4375 C 2.695312 -0.289062 2.441406 -0.21875 2.203125 -0.21875 C 1.679688 -0.21875 1.269531 -0.375 0.96875 -0.6875 C 0.625 -1.070312 0.476562 -1.65625 0.53125 -2.4375 C 0.5625 -2.957031 0.671875 -3.410156 0.859375 -3.796875 C 1.054688 -4.179688 1.289062 -4.503906 1.5625 -4.765625 C 1.84375 -5.023438 2.113281 -5.21875 2.375 -5.34375 C 2.976562 -5.632812 3.523438 -5.640625 4.015625 -5.359375 C 4.472656 -5.097656 4.722656 -4.691406 4.765625 -4.140625 Z M 3.171875 -1.59375 C 3.285156 -1.71875 3.410156 -1.890625 3.546875 -2.109375 C 3.679688 -2.335938 3.796875 -2.613281 3.890625 -2.9375 C 3.984375 -3.257812 4.015625 -3.640625 3.984375 -4.078125 C 3.960938 -4.347656 3.835938 -4.550781 3.609375 -4.6875 C 3.503906 -4.75 3.382812 -4.78125 3.25 -4.78125 C 3.082031 -4.78125 2.90625 -4.738281 2.71875 -4.65625 C 2.394531 -4.488281 2.085938 -4.207031 1.796875 -3.8125 C 1.515625 -3.425781 1.351562 -2.953125 1.3125 -2.390625 C 1.257812 -1.835938 1.335938 -1.445312 1.546875 -1.21875 C 1.691406 -1.070312 1.910156 -1 2.203125 -1 C 2.304688 -1 2.441406 -1.046875 2.609375 -1.140625 C 2.785156 -1.242188 2.972656 -1.394531 3.171875 -1.59375 Z M 3.171875 -1.59375 "/></g></g></g><g fill="#ffffff" fill-opacity="1"><g transform="translate(56.358704, 12.321294)"><g><path d="M 5.265625 -4.375 C 5.460938 -3.894531 5.472656 -3.34375 5.296875 -2.71875 C 5.117188 -2.09375 4.789062 -1.503906 4.3125 -0.953125 C 4.007812 -0.585938 3.625 -0.296875 3.15625 -0.078125 C 2.695312 0.128906 2.25 0.234375 1.8125 0.234375 C 1.757812 0.234375 1.710938 0.226562 1.671875 0.21875 C 1.484375 0.207031 1.296875 0.164062 1.109375 0.09375 L 0.265625 5.21875 C 0.222656 5.445312 0.09375 5.5625 -0.125 5.5625 C -0.144531 5.5625 -0.164062 5.554688 -0.1875 5.546875 C -0.289062 5.535156 -0.375 5.484375 -0.4375 5.390625 C -0.507812 5.296875 -0.535156 5.195312 -0.515625 5.09375 L 1.171875 -5.03125 C 1.179688 -5.132812 1.234375 -5.210938 1.328125 -5.265625 C 1.421875 -5.328125 1.519531 -5.351562 1.625 -5.34375 C 1.726562 -5.320312 1.8125 -5.269531 1.875 -5.1875 C 1.9375 -5.101562 1.960938 -5.003906 1.953125 -4.890625 L 1.765625 -3.734375 C 1.878906 -3.890625 2.007812 -4.035156 2.15625 -4.171875 C 2.300781 -4.316406 2.457031 -4.453125 2.625 -4.578125 C 2.851562 -4.753906 3.140625 -4.898438 3.484375 -5.015625 C 3.835938 -5.140625 4.175781 -5.15625 4.5 -5.0625 C 4.863281 -4.96875 5.117188 -4.738281 5.265625 -4.375 Z M 3.71875 -1.484375 C 4.15625 -1.984375 4.425781 -2.472656 4.53125 -2.953125 C 4.644531 -3.429688 4.644531 -3.8125 4.53125 -4.09375 C 4.476562 -4.207031 4.394531 -4.28125 4.28125 -4.3125 C 4.144531 -4.351562 3.960938 -4.335938 3.734375 -4.265625 C 3.503906 -4.203125 3.289062 -4.097656 3.09375 -3.953125 C 2.75 -3.703125 2.46875 -3.414062 2.25 -3.09375 C 2.03125 -2.78125 1.859375 -2.460938 1.734375 -2.140625 C 1.609375 -1.816406 1.515625 -1.523438 1.453125 -1.265625 C 1.390625 -1.003906 1.351562 -0.804688 1.34375 -0.671875 C 1.394531 -0.628906 1.457031 -0.597656 1.53125 -0.578125 C 1.601562 -0.566406 1.664062 -0.5625 1.71875 -0.5625 C 2 -0.539062 2.332031 -0.601562 2.71875 -0.75 C 3.101562 -0.90625 3.4375 -1.148438 3.71875 -1.484375 Z M 3.71875 -1.484375 "/></g></g></g><g fill="#ffffff" fill-opacity="1"><g transform="translate(62.155799, 12.321294)"><g><path d="M 0.578125 -0.8125 C 0.703125 -0.8125 0.8125 -0.765625 0.90625 -0.671875 C 1 -0.585938 1.046875 -0.472656 1.046875 -0.328125 C 1.046875 -0.203125 1 -0.09375 0.90625 0 C 0.8125 0.09375 0.703125 0.140625 0.578125 0.140625 C 0.429688 0.140625 0.3125 0.09375 0.21875 0 C 0.132812 -0.09375 0.09375 -0.203125 0.09375 -0.328125 C 0.09375 -0.472656 0.132812 -0.585938 0.21875 -0.671875 C 0.3125 -0.765625 0.429688 -0.8125 0.578125 -0.8125 Z M 0.578125 -0.8125 "/></g></g></g><g fill="#ffffff" fill-opacity="1"><g transform="translate(64.305824, 12.321294)"><g/></g></g><g fill="#ffffff" fill-opacity="1"><g transform="translate(68.621798, 12.321294)"><g><path d="M 6.453125 -9.5625 C 6.765625 -9.070312 6.96875 -8.503906 7.0625 -7.859375 C 7.15625 -7.222656 7.160156 -6.578125 7.078125 -5.921875 C 7.003906 -5.273438 6.875 -4.671875 6.6875 -4.109375 C 6.5 -3.546875 6.269531 -3.085938 6 -2.734375 C 5.5625 -2.171875 5.050781 -1.675781 4.46875 -1.25 C 3.894531 -0.832031 3.289062 -0.503906 2.65625 -0.265625 C 2.03125 -0.0234375 1.421875 0.09375 0.828125 0.09375 C 0.722656 0.09375 0.613281 0.0859375 0.5 0.078125 C 0.382812 0.0664062 0.289062 0.0195312 0.21875 -0.0625 C 0.144531 -0.15625 0.117188 -0.257812 0.140625 -0.375 L 1.78125 -10.765625 C 1.8125 -10.972656 1.929688 -11.082031 2.140625 -11.09375 C 2.171875 -11.09375 2.296875 -11.097656 2.515625 -11.109375 C 2.742188 -11.117188 3.03125 -11.109375 3.375 -11.078125 C 3.726562 -11.046875 4.097656 -10.976562 4.484375 -10.875 C 4.867188 -10.78125 5.234375 -10.625 5.578125 -10.40625 C 5.921875 -10.195312 6.210938 -9.914062 6.453125 -9.5625 Z M 5.359375 -3.21875 C 5.597656 -3.507812 5.796875 -3.90625 5.953125 -4.40625 C 6.117188 -4.90625 6.234375 -5.441406 6.296875 -6.015625 C 6.367188 -6.585938 6.363281 -7.148438 6.28125 -7.703125 C 6.207031 -8.253906 6.039062 -8.734375 5.78125 -9.140625 C 5.613281 -9.410156 5.382812 -9.625 5.09375 -9.78125 C 4.800781 -9.945312 4.488281 -10.066406 4.15625 -10.140625 C 3.820312 -10.222656 3.507812 -10.273438 3.21875 -10.296875 C 2.925781 -10.316406 2.691406 -10.328125 2.515625 -10.328125 L 0.984375 -0.703125 C 1.492188 -0.722656 2.015625 -0.835938 2.546875 -1.046875 C 3.078125 -1.265625 3.585938 -1.554688 4.078125 -1.921875 C 4.566406 -2.296875 4.992188 -2.726562 5.359375 -3.21875 Z M 5.359375 -3.21875 "/></g></g></g><g fill="#ffffff" fill-opacity="1"><g transform="translate(75.7885, 12.321294)"><g><path d="M 4.09375 -1.53125 C 4.175781 -1.59375 4.269531 -1.617188 4.375 -1.609375 C 4.476562 -1.609375 4.570312 -1.566406 4.65625 -1.484375 C 4.726562 -1.398438 4.757812 -1.300781 4.75 -1.1875 C 4.738281 -1.082031 4.6875 -0.992188 4.59375 -0.921875 C 4.363281 -0.722656 4.070312 -0.53125 3.71875 -0.34375 C 3.363281 -0.164062 2.96875 -0.078125 2.53125 -0.078125 C 2.40625 -0.078125 2.28125 -0.0859375 2.15625 -0.109375 C 1.5625 -0.191406 1.109375 -0.488281 0.796875 -1 C 0.617188 -1.3125 0.519531 -1.660156 0.5 -2.046875 C 0.488281 -2.085938 0.484375 -2.125 0.484375 -2.15625 C 0.484375 -2.15625 0.488281 -2.160156 0.5 -2.171875 C 0.488281 -2.546875 0.554688 -2.941406 0.703125 -3.359375 C 0.859375 -3.773438 1.101562 -4.148438 1.4375 -4.484375 C 1.78125 -4.828125 2.179688 -5.085938 2.640625 -5.265625 C 2.960938 -5.398438 3.269531 -5.472656 3.5625 -5.484375 C 3.851562 -5.503906 4.097656 -5.457031 4.296875 -5.34375 C 4.671875 -5.164062 4.875 -4.882812 4.90625 -4.5 C 4.925781 -4.226562 4.847656 -3.941406 4.671875 -3.640625 C 4.492188 -3.347656 4.238281 -3.066406 3.90625 -2.796875 C 3.382812 -2.421875 2.894531 -2.15625 2.4375 -2 C 1.976562 -1.851562 1.609375 -1.769531 1.328125 -1.75 C 1.367188 -1.625 1.414062 -1.507812 1.46875 -1.40625 C 1.644531 -1.101562 1.910156 -0.929688 2.265625 -0.890625 C 2.640625 -0.828125 2.988281 -0.875 3.3125 -1.03125 C 3.632812 -1.1875 3.894531 -1.351562 4.09375 -1.53125 Z M 1.453125 -3.09375 C 1.378906 -2.90625 1.332031 -2.71875 1.3125 -2.53125 C 1.539062 -2.5625 1.84375 -2.640625 2.21875 -2.765625 C 2.59375 -2.890625 2.992188 -3.113281 3.421875 -3.4375 C 3.679688 -3.625 3.863281 -3.804688 3.96875 -3.984375 C 4.070312 -4.171875 4.125 -4.320312 4.125 -4.4375 C 4.113281 -4.457031 4.097656 -4.488281 4.078125 -4.53125 C 4.054688 -4.570312 4.007812 -4.613281 3.9375 -4.65625 C 3.882812 -4.6875 3.796875 -4.703125 3.671875 -4.703125 C 3.578125 -4.703125 3.46875 -4.6875 3.34375 -4.65625 C 3.21875 -4.632812 3.078125 -4.59375 2.921875 -4.53125 C 2.578125 -4.394531 2.273438 -4.195312 2.015625 -3.9375 C 1.753906 -3.6875 1.566406 -3.40625 1.453125 -3.09375 Z M 1.453125 -3.09375 "/></g></g></g><g fill="#ffffff" fill-opacity="1"><g transform="translate(81.171517, 12.321294)"><g><path d="M 5.265625 -4.375 C 5.460938 -3.894531 5.472656 -3.34375 5.296875 -2.71875 C 5.117188 -2.09375 4.789062 -1.503906 4.3125 -0.953125 C 4.007812 -0.585938 3.625 -0.296875 3.15625 -0.078125 C 2.695312 0.128906 2.25 0.234375 1.8125 0.234375 C 1.757812 0.234375 1.710938 0.226562 1.671875 0.21875 C 1.484375 0.207031 1.296875 0.164062 1.109375 0.09375 L 0.265625 5.21875 C 0.222656 5.445312 0.09375 5.5625 -0.125 5.5625 C -0.144531 5.5625 -0.164062 5.554688 -0.1875 5.546875 C -0.289062 5.535156 -0.375 5.484375 -0.4375 5.390625 C -0.507812 5.296875 -0.535156 5.195312 -0.515625 5.09375 L 1.171875 -5.03125 C 1.179688 -5.132812 1.234375 -5.210938 1.328125 -5.265625 C 1.421875 -5.328125 1.519531 -5.351562 1.625 -5.34375 C 1.726562 -5.320312 1.8125 -5.269531 1.875 -5.1875 C 1.9375 -5.101562 1.960938 -5.003906 1.953125 -4.890625 L 1.765625 -3.734375 C 1.878906 -3.890625 2.007812 -4.035156 2.15625 -4.171875 C 2.300781 -4.316406 2.457031 -4.453125 2.625 -4.578125 C 2.851562 -4.753906 3.140625 -4.898438 3.484375 -5.015625 C 3.835938 -5.140625 4.175781 -5.15625 4.5 -5.0625 C 4.863281 -4.96875 5.117188 -4.738281 5.265625 -4.375 Z M 3.71875 -1.484375 C 4.15625 -1.984375 4.425781 -2.472656 4.53125 -2.953125 C 4.644531 -3.429688 4.644531 -3.8125 4.53125 -4.09375 C 4.476562 -4.207031 4.394531 -4.28125 4.28125 -4.3125 C 4.144531 -4.351562 3.960938 -4.335938 3.734375 -4.265625 C 3.503906 -4.203125 3.289062 -4.097656 3.09375 -3.953125 C 2.75 -3.703125 2.46875 -3.414062 2.25 -3.09375 C 2.03125 -2.78125 1.859375 -2.460938 1.734375 -2.140625 C 1.609375 -1.816406 1.515625 -1.523438 1.453125 -1.265625 C 1.390625 -1.003906 1.351562 -0.804688 1.34375 -0.671875 C 1.394531 -0.628906 1.457031 -0.597656 1.53125 -0.578125 C 1.601562 -0.566406 1.664062 -0.5625 1.71875 -0.5625 C 2 -0.539062 2.332031 -0.601562 2.71875 -0.75 C 3.101562 -0.90625 3.4375 -1.148438 3.71875 -1.484375 Z M 3.71875 -1.484375 "/></g></g></g><g fill="#ffffff" fill-opacity="1"><g transform="translate(86.968612, 12.321294)"><g><path d="M 2.484375 -10.921875 C 2.585938 -10.898438 2.671875 -10.847656 2.734375 -10.765625 C 2.796875 -10.679688 2.816406 -10.585938 2.796875 -10.484375 L 1.1875 -0.34375 C 1.15625 -0.125 1.03125 -0.015625 0.8125 -0.015625 C 0.789062 -0.015625 0.769531 -0.0195312 0.75 -0.03125 C 0.644531 -0.0390625 0.554688 -0.0859375 0.484375 -0.171875 C 0.421875 -0.265625 0.394531 -0.367188 0.40625 -0.484375 L 2.015625 -10.59375 C 2.035156 -10.695312 2.09375 -10.78125 2.1875 -10.84375 C 2.28125 -10.914062 2.378906 -10.941406 2.484375 -10.921875 Z M 2.484375 -10.921875 "/></g></g></g><g fill="#ffffff" fill-opacity="1"><g transform="translate(88.863775, 12.321294)"><g><path d="M 4.765625 -4.140625 C 4.804688 -3.609375 4.769531 -3.140625 4.65625 -2.734375 C 4.539062 -2.335938 4.394531 -2 4.21875 -1.71875 C 4.050781 -1.4375 3.890625 -1.210938 3.734375 -1.046875 C 3.492188 -0.785156 3.238281 -0.582031 2.96875 -0.4375 C 2.695312 -0.289062 2.441406 -0.21875 2.203125 -0.21875 C 1.679688 -0.21875 1.269531 -0.375 0.96875 -0.6875 C 0.625 -1.070312 0.476562 -1.65625 0.53125 -2.4375 C 0.5625 -2.957031 0.671875 -3.410156 0.859375 -3.796875 C 1.054688 -4.179688 1.289062 -4.503906 1.5625 -4.765625 C 1.84375 -5.023438 2.113281 -5.21875 2.375 -5.34375 C 2.976562 -5.632812 3.523438 -5.640625 4.015625 -5.359375 C 4.472656 -5.097656 4.722656 -4.691406 4.765625 -4.140625 Z M 3.171875 -1.59375 C 3.285156 -1.71875 3.410156 -1.890625 3.546875 -2.109375 C 3.679688 -2.335938 3.796875 -2.613281 3.890625 -2.9375 C 3.984375 -3.257812 4.015625 -3.640625 3.984375 -4.078125 C 3.960938 -4.347656 3.835938 -4.550781 3.609375 -4.6875 C 3.503906 -4.75 3.382812 -4.78125 3.25 -4.78125 C 3.082031 -4.78125 2.90625 -4.738281 2.71875 -4.65625 C 2.394531 -4.488281 2.085938 -4.207031 1.796875 -3.8125 C 1.515625 -3.425781 1.351562 -2.953125 1.3125 -2.390625 C 1.257812 -1.835938 1.335938 -1.445312 1.546875 -1.21875 C 1.691406 -1.070312 1.910156 -1 2.203125 -1 C 2.304688 -1 2.441406 -1.046875 2.609375 -1.140625 C 2.785156 -1.242188 2.972656 -1.394531 3.171875 -1.59375 Z M 3.171875 -1.59375 "/></g></g></g><g fill="#ffffff" fill-opacity="1"><g transform="translate(94.039754, 12.321294)"><g><path d="M 5.21875 -5.296875 C 5.3125 -5.273438 5.390625 -5.222656 5.453125 -5.140625 C 5.523438 -5.054688 5.550781 -4.960938 5.53125 -4.859375 C 5.53125 -4.816406 5.5 -4.613281 5.4375 -4.25 C 5.382812 -3.894531 5.316406 -3.457031 5.234375 -2.9375 C 5.160156 -2.414062 5.078125 -1.863281 4.984375 -1.28125 C 4.898438 -0.695312 4.8125 -0.15625 4.71875 0.34375 C 4.632812 0.84375 4.566406 1.242188 4.515625 1.546875 C 4.429688 1.960938 4.300781 2.40625 4.125 2.875 C 3.957031 3.34375 3.742188 3.78125 3.484375 4.1875 C 3.234375 4.59375 2.9375 4.898438 2.59375 5.109375 C 2.375 5.234375 2.101562 5.335938 1.78125 5.421875 C 1.46875 5.503906 1.15625 5.546875 0.84375 5.546875 C 0.59375 5.546875 0.351562 5.515625 0.125 5.453125 C -0.09375 5.398438 -0.28125 5.3125 -0.4375 5.1875 C -0.519531 5.125 -0.566406 5.039062 -0.578125 4.9375 C -0.597656 4.832031 -0.570312 4.738281 -0.5 4.65625 C -0.425781 4.5625 -0.335938 4.503906 -0.234375 4.484375 C -0.128906 4.472656 -0.0351562 4.503906 0.046875 4.578125 C 0.160156 4.671875 0.34375 4.726562 0.59375 4.75 C 0.851562 4.769531 1.128906 4.753906 1.421875 4.703125 C 1.710938 4.648438 1.96875 4.554688 2.1875 4.421875 C 2.5 4.234375 2.800781 3.851562 3.09375 3.28125 C 3.382812 2.71875 3.597656 2.085938 3.734375 1.390625 C 3.804688 1.078125 3.882812 0.640625 3.96875 0.078125 C 4.0625 -0.472656 4.15625 -1.054688 4.25 -1.671875 C 3.789062 -0.921875 3.296875 -0.40625 2.765625 -0.125 C 2.304688 0.113281 1.882812 0.164062 1.5 0.03125 C 1.207031 -0.0703125 1 -0.273438 0.875 -0.578125 C 0.75 -0.878906 0.675781 -1.238281 0.65625 -1.65625 C 0.644531 -2.070312 0.664062 -2.492188 0.71875 -2.921875 C 0.769531 -3.359375 0.832031 -3.765625 0.90625 -4.140625 C 0.988281 -4.515625 1.054688 -4.804688 1.109375 -5.015625 C 1.128906 -5.109375 1.1875 -5.179688 1.28125 -5.234375 C 1.382812 -5.296875 1.488281 -5.3125 1.59375 -5.28125 C 1.695312 -5.257812 1.773438 -5.203125 1.828125 -5.109375 C 1.878906 -5.015625 1.894531 -4.914062 1.875 -4.8125 C 1.6875 -4.0625 1.5625 -3.382812 1.5 -2.78125 C 1.4375 -2.1875 1.429688 -1.703125 1.484375 -1.328125 C 1.535156 -0.960938 1.625 -0.757812 1.75 -0.71875 C 1.863281 -0.675781 1.976562 -0.671875 2.09375 -0.703125 C 2.21875 -0.734375 2.320312 -0.769531 2.40625 -0.8125 C 2.488281 -0.863281 2.617188 -0.960938 2.796875 -1.109375 C 2.972656 -1.265625 3.171875 -1.492188 3.390625 -1.796875 C 3.617188 -2.109375 3.847656 -2.523438 4.078125 -3.046875 C 4.316406 -3.566406 4.546875 -4.222656 4.765625 -5.015625 C 4.785156 -5.109375 4.835938 -5.179688 4.921875 -5.234375 C 5.015625 -5.285156 5.113281 -5.304688 5.21875 -5.296875 Z M 5.21875 -5.296875 "/></g></g></g></g></g></g></g></g></g></svg>