<svg xmlns="http://www.w3.org/2000/svg" xmlns:xlink="http://www.w3.org/1999/xlink" width="500" zoomAndPan="magnify" viewBox="0 0 375 374.999991" height="500" preserveAspectRatio="xMidYMid meet" version="1.0"><defs><filter x="0%" y="0%" width="100%" height="100%" id="13fc932c53"><feColorMatrix values="0 0 0 0 1 0 0 0 0 1 0 0 0 0 1 0 0 0 1 0" color-interpolation-filters="sRGB"/></filter><g/><clipPath id="fbb35065db"><path d="M 95.929688 155.839844 L 120.679688 155.839844 L 120.679688 185.839844 L 95.929688 185.839844 Z M 95.929688 155.839844 " clip-rule="nonzero"/></clipPath><mask id="b2b5eb7730"><g filter="url(#13fc932c53)"><rect x="-37.5" width="450" fill="#000000" y="-37.499999" height="449.999989" fill-opacity="0.33"/></g></mask><clipPath id="f8ab6a6f4b"><path d="M 0.921875 0.382812 L 150.921875 0.382812 L 150.921875 74 L 0.921875 74 Z M 0.921875 0.382812 " clip-rule="nonzero"/></clipPath><clipPath id="7b7a80c2bf"><path d="M 87 29 L 131 29 L 131 76.882812 L 87 76.882812 Z M 87 29 " clip-rule="nonzero"/></clipPath><clipPath id="53821f7888"><path d="M 147 62 L 150.921875 62 L 150.921875 66 L 147 66 Z M 147 62 " clip-rule="nonzero"/></clipPath><clipPath id="66e0fb5811"><rect x="0" width="151" y="0" height="77"/></clipPath><clipPath id="c6e7886b2f"><rect x="0" width="137" y="0" height="62"/></clipPath><mask id="a866a4caf3"><g filter="url(#13fc932c53)"><rect x="-37.5" width="450" fill="#000000" y="-37.499999" height="449.999989" fill-opacity="0.84"/></g></mask><clipPath id="366c287525"><path d="M 0.078125 0.320312 L 157.28125 0.320312 L 157.28125 28.878906 L 0.078125 28.878906 Z M 0.078125 0.320312 " clip-rule="nonzero"/></clipPath><clipPath id="a2c73e1ff8"><path d="M 0.078125 1 L 12 1 L 12 20 L 0.078125 20 Z M 0.078125 1 " clip-rule="nonzero"/></clipPath><clipPath id="1d0966cd49"><path d="M 30 10 L 40 10 L 40 28.878906 L 30 28.878906 Z M 30 10 " clip-rule="nonzero"/></clipPath><clipPath id="9ee5f8b739"><rect x="0" width="158" y="0" height="29"/></clipPath><clipPath id="52332a4682"><rect x="0" width="158" y="0" height="29"/></clipPath></defs><g clip-path="url(#fbb35065db)"><path fill="#2657c1" d="M 105.683594 185.5625 C 100.308594 185.5625 95.933594 181.1875 95.933594 175.8125 L 95.933594 155.84375 L 103.554688 155.84375 L 103.554688 175.9375 C 103.554688 177.039062 104.453125 177.9375 105.558594 177.9375 L 115.988281 177.9375 L 121.003906 185.5625 Z M 112.515625 174.507812 L 112.515625 155.84375 L 120.140625 155.84375 L 120.140625 174.507812 Z M 112.515625 174.507812 " fill-opacity="1" fill-rule="nonzero"/></g><g mask="url(#b2b5eb7730)"><g transform="matrix(1, 0, 0, 1, 114, 147)"><g clip-path="url(#66e0fb5811)"><g clip-path="url(#f8ab6a6f4b)"><path fill="#000000" d="M 149.960938 58.488281 C 150.261719 58.699219 150.589844 58.339844 150.53125 58.039062 C 149.8125 54.617188 146.277344 53.265625 143.9375 51.316406 C 142.472656 50.082031 141.660156 48.222656 140.042969 47.082031 C 139.234375 46.511719 138.484375 46.632812 137.617188 46.363281 C 137.316406 46.269531 136.957031 46.363281 136.71875 46.601562 C 136.207031 47.113281 135.578125 47.5625 134.980469 47.953125 C 133.691406 48.824219 133.152344 48.671875 131.625 47.984375 C 130.636719 47.53125 130.304688 47.382812 129.257812 47.5625 C 127.878906 47.832031 126.859375 48.703125 125.570312 47.683594 C 124.28125 46.691406 123.445312 44.710938 121.734375 44.46875 C 120.476562 44.289062 119.996094 45.070312 118.949219 44.230469 C 118.082031 43.539062 117.839844 42.457031 117.03125 41.679688 C 116.550781 39.789062 115.652344 38.828125 113.796875 37.625 C 112.835938 36.996094 112.957031 37.324219 112.65625 36.125 C 112.507812 35.554688 112.625 35.042969 112.328125 34.503906 C 111.9375 33.753906 111.128906 33.09375 110.53125 32.550781 C 109.601562 31.710938 107.710938 31.082031 107.324219 29.789062 C 107.054688 28.859375 107.472656 28.378906 106.902344 27.480469 C 106.246094 26.457031 104.867188 25.769531 103.996094 24.957031 C 102.796875 23.847656 101.960938 22.527344 100.851562 21.324219 C 100.3125 20.726562 99.652344 19.792969 98.992188 19.375 C 98.09375 18.804688 97.433594 18.863281 96.65625 17.964844 C 95.367188 16.492188 94.589844 14.332031 92.492188 14.089844 C 91.921875 14.03125 91.832031 14.332031 91.441406 14.121094 C 90.960938 13.851562 90.722656 12.320312 90.601562 11.871094 C 90.363281 11.058594 90.273438 9.859375 89.464844 9.347656 C 88.925781 9.015625 88.476562 9.226562 88.027344 8.808594 C 87.398438 8.207031 87.605469 6.917969 87.007812 6.164062 C 86.859375 5.957031 86.527344 5.925781 86.289062 5.984375 C 85.777344 6.105469 85.390625 6.527344 84.941406 6.617188 C 84.761719 6.644531 84.582031 6.347656 84.339844 6.40625 C 83.5 6.585938 82.902344 6.796875 82.304688 7.457031 C 80.984375 8.835938 80.746094 10.699219 78.707031 10.039062 C 78.496094 9.976562 78.257812 10.039062 78.109375 10.1875 C 77.539062 10.757812 77.148438 11.570312 76.671875 12.199219 C 76.578125 12.078125 76.488281 11.960938 76.398438 11.78125 C 76.011719 11.027344 76.011719 10.21875 75.5 9.527344 C 75.050781 8.925781 73.792969 7.457031 73.105469 7.246094 C 72.65625 7.097656 72.144531 7.546875 71.847656 7.457031 C 71.695312 7.425781 70.558594 5.386719 70.226562 4.996094 C 69.390625 3.914062 68.070312 0.402344 66.121094 1.003906 C 64.414062 1.542969 63.996094 4.183594 63.246094 5.535156 C 62.648438 6.644531 63.515625 6.644531 61.566406 6.765625 C 61.328125 6.796875 60.9375 6.527344 60.667969 6.585938 C 59.949219 6.796875 59.53125 7.097656 59.171875 7.757812 C 58.691406 8.566406 58.78125 9.679688 58.632812 10.578125 C 58.390625 11.988281 57.914062 13.371094 57.011719 14.480469 C 56.265625 15.410156 54.765625 16.191406 54.527344 17.421875 C 54.347656 17.273438 54.046875 17.332031 53.957031 17.574219 C 53.566406 18.742188 52.640625 19.464844 52.097656 20.515625 C 51.648438 21.414062 51.738281 22.285156 51.140625 23.1875 C 50.121094 24.6875 49.164062 25.5 48.445312 27.238281 C 48.144531 27.929688 48.175781 28.53125 47.964844 29.191406 C 47.726562 30.0625 47.183594 30.359375 46.617188 31.140625 C 45.597656 32.523438 44.667969 34.535156 44.21875 36.125 C 44.160156 36.335938 44.097656 36.546875 44.070312 36.753906 C 43.769531 35.976562 43.53125 35.195312 43.109375 34.472656 C 42.960938 34.234375 42.71875 34.082031 42.449219 34.082031 C 41.460938 32.761719 40.5625 31.710938 39.09375 30.75 C 37.386719 29.609375 36.519531 28.167969 35.230469 26.546875 C 35.050781 26.339844 34.691406 26.25 34.449219 26.339844 C 33.910156 26.730469 33.433594 26.609375 33.042969 25.976562 C 32.800781 25.679688 32.351562 25.707031 32.023438 25.859375 C 30.914062 26.398438 31.125 27.597656 30.136719 28.199219 C 29.867188 28.351562 29.894531 28.558594 29.835938 28.558594 C 29.746094 28.589844 29.535156 28.320312 29.386719 28.378906 C 28.90625 28.558594 28.757812 28.441406 28.308594 28.859375 C 27.828125 29.308594 27.796875 30.421875 27.347656 30.75 C 27.320312 30.78125 26.421875 30.722656 26 30.839844 C 24.683594 31.203125 24.203125 32.582031 23.542969 33.753906 C 22.824219 35.015625 22.523438 36.515625 21.714844 37.714844 C 20.816406 39.035156 19.617188 39.246094 18.507812 40.207031 C 18.089844 40.566406 17.699219 40.988281 17.460938 41.527344 C 17.3125 41.949219 17.339844 42.96875 17.28125 43.238281 C 16.953125 44.769531 16.921875 44.109375 15.0625 45.429688 C 14.792969 45.609375 14.40625 45.582031 14.105469 45.851562 C 13.503906 46.421875 13.476562 47.800781 13.296875 48.492188 C 12.964844 49.785156 12.21875 50.953125 11.796875 52.214844 C 11.796875 52.246094 11.796875 52.246094 11.769531 52.246094 C 11.527344 52.574219 11.257812 52.875 10.988281 53.175781 C 9.519531 54.828125 7.632812 56.027344 6.074219 57.527344 C 5.324219 58.25 4.757812 58.941406 3.917969 59.628906 C 3.378906 60.109375 2.75 60.5 2.179688 60.949219 C 1.308594 61.703125 1.25 62.542969 0.980469 63.59375 C 0.921875 63.863281 1.28125 64.011719 1.429688 63.773438 C 1.488281 63.652344 1.582031 63.503906 1.640625 63.382812 C 1.640625 63.351562 1.671875 63.324219 1.671875 63.324219 C 1.761719 63.292969 1.789062 63.261719 1.761719 63.261719 C 1.820312 63.171875 1.878906 63.082031 1.941406 62.992188 C 2.210938 62.632812 2.539062 62.363281 2.929688 62.121094 C 3.496094 61.820312 4.128906 61.703125 4.726562 61.339844 C 6.105469 60.5 7.753906 59.148438 8.863281 57.980469 C 10 56.808594 10.75 55.21875 11.648438 53.804688 C 11.679688 53.804688 11.738281 53.804688 11.769531 53.804688 C 12.335938 53.597656 12.757812 52.9375 13.085938 52.214844 C 13.117188 52.183594 13.144531 52.15625 13.144531 52.125 C 13.6875 51.375 14.164062 51.222656 14.914062 50.746094 C 15.933594 50.082031 15.601562 49.332031 16.203125 48.554688 C 16.53125 48.132812 17.160156 48.042969 17.582031 47.683594 C 18.058594 47.261719 18.359375 46.632812 18.78125 46.152344 C 18.808594 46.121094 18.871094 46.0625 18.898438 46.03125 C 18.988281 46 19.078125 45.941406 19.167969 45.882812 C 19.347656 45.730469 19.5 45.582031 19.589844 45.460938 C 20.128906 45.101562 20.695312 44.769531 21.085938 44.320312 C 22.195312 43.871094 23.394531 43.75 24.414062 43.238281 C 24.59375 43.839844 24.953125 44.921875 24.921875 44.890625 C 25.160156 45.910156 24.5625 47.320312 24.324219 48.371094 C 24.082031 49.394531 23.8125 50.355469 23.542969 51.34375 C 23.394531 51.914062 23.304688 52.574219 23.214844 53.207031 C 22.792969 54.046875 22.316406 54.828125 21.714844 55.488281 C 21.535156 55.699219 21.777344 56.027344 22.015625 55.878906 C 22.40625 55.667969 22.765625 55.335938 23.09375 54.945312 C 23.125 54.945312 23.125 54.945312 23.152344 54.917969 C 23.425781 54.617188 23.632812 54.285156 23.8125 53.925781 C 24.203125 53.265625 24.5625 52.605469 24.921875 52.066406 C 25.761719 50.835938 26.660156 49.664062 27.320312 48.34375 C 28.636719 45.671875 31.695312 43.179688 29.835938 40.265625 C 29.507812 39.878906 29.238281 39.488281 28.96875 39.035156 C 29.238281 39.007812 29.476562 38.976562 29.714844 38.945312 C 30.136719 38.585938 31.273438 37.867188 31.695312 37.625 C 32.503906 37.175781 32.980469 37.265625 33.34375 36.394531 C 33.820312 35.285156 33.433594 32.644531 33.402344 31.53125 C 33.371094 30.632812 32.742188 28.859375 33.253906 27.988281 C 33.28125 27.960938 33.28125 27.898438 33.28125 27.871094 C 33.460938 27.898438 33.671875 27.960938 33.910156 28.050781 C 34.03125 28.109375 34.121094 28.109375 34.152344 28.109375 C 34.210938 28.167969 34.269531 28.230469 34.390625 28.351562 C 34.75 28.679688 35.109375 29.3125 35.410156 29.671875 C 36.039062 30.453125 36.699219 31.292969 37.507812 31.863281 C 38.316406 32.433594 39.273438 32.671875 39.992188 33.453125 C 40.5625 34.082031 40.894531 34.863281 41.460938 35.464844 C 41.582031 35.585938 41.761719 35.675781 41.972656 35.703125 C 42.449219 36.636719 42.78125 37.746094 43.769531 38.074219 C 43.648438 38.585938 43.441406 39.097656 43.019531 39.636719 C 42.421875 40.417969 41.941406 40.988281 41.402344 41.917969 C 40.355469 43.808594 39.574219 45.429688 37.867188 46.542969 C 35.679688 47.984375 34.871094 50.472656 32.324219 51.554688 C 31.003906 52.125 30.34375 52.816406 29.476562 54.015625 C 29.265625 54.316406 29.625 54.796875 29.957031 54.648438 C 31.84375 53.894531 33.941406 53.144531 35.46875 51.734375 C 36.96875 50.355469 37.65625 48.824219 39.394531 47.710938 C 40.292969 47.140625 40.921875 46.632812 41.550781 45.699219 C 41.761719 45.402344 41.941406 45.070312 42.089844 44.742188 C 42.570312 44.441406 43.082031 44.230469 43.621094 43.960938 C 45.476562 43.089844 46.105469 41.679688 47.695312 40.449219 C 47.933594 40.238281 49.34375 39.515625 49.730469 39.097656 C 49.941406 39.667969 50.570312 40.808594 50.570312 40.777344 C 50.8125 41.46875 50.839844 41.589844 50.75 42.367188 C 50.570312 43.78125 49.550781 44.921875 49.492188 46.363281 C 49.460938 47.320312 50.273438 48.191406 50.242188 49.183594 C 50.210938 50.144531 49.761719 50.714844 49.371094 51.523438 C 49.101562 52.09375 48.832031 52.753906 48.59375 53.296875 C 48.445312 53.625 48.382812 53.925781 48.324219 54.257812 C 48.085938 54.675781 47.816406 55.097656 47.605469 55.546875 C 47.515625 55.699219 47.695312 55.90625 47.84375 55.789062 C 47.90625 55.757812 47.996094 55.699219 48.054688 55.667969 C 48.085938 55.757812 48.203125 55.816406 48.292969 55.757812 C 48.742188 55.367188 49.191406 54.917969 49.582031 54.40625 C 50.691406 53.265625 51.378906 51.945312 52.277344 50.414062 C 53.179688 48.851562 54.617188 47.621094 54.734375 45.820312 C 54.828125 44.378906 54.046875 41.46875 54.765625 40.265625 C 55.394531 39.1875 57.074219 38.167969 57.972656 37.175781 C 58.542969 36.574219 58.929688 36.003906 59.558594 35.40625 C 59.589844 35.375 59.652344 35.34375 59.679688 35.34375 C 59.621094 35.675781 59.558594 36.035156 59.5 36.394531 C 59.320312 37.535156 59.832031 38.527344 59.410156 39.605469 C 59.050781 40.566406 58.929688 41.4375 58.691406 42.429688 C 58.691406 42.488281 58.75 42.488281 58.75 42.457031 C 59.261719 41.769531 59.589844 40.628906 59.921875 39.847656 C 60.28125 39.007812 60.25 38.257812 60.429688 37.386719 C 60.667969 36.214844 61.269531 35.496094 61.148438 34.292969 C 61.089844 33.902344 61.027344 33.511719 60.9375 33.09375 C 61.296875 31.53125 61.296875 29.761719 61.808594 28.378906 C 62.226562 27.210938 63.066406 26.128906 63.753906 25.109375 C 64.144531 24.539062 65.222656 23.757812 65.222656 22.976562 C 65.253906 21.535156 62.828125 21.054688 62.015625 20.363281 C 60.699219 19.195312 61.925781 18.925781 63.125 18.023438 C 64.203125 17.242188 65.433594 16.792969 66.511719 16.042969 C 66.78125 15.863281 66.902344 15.5625 66.839844 15.261719 C 66.09375 12.46875 66.332031 10.429688 66.691406 7.515625 C 66.691406 7.457031 66.722656 7.367188 66.722656 7.304688 C 67.023438 6.707031 67.140625 6.074219 67.113281 5.324219 C 67.113281 4.816406 67.230469 4.335938 67.230469 3.824219 C 67.230469 3.644531 67.230469 3.464844 67.203125 3.253906 C 68.488281 4.695312 69.179688 6.886719 70.707031 8.207031 C 71.664062 9.046875 72.414062 8.566406 73.3125 9.257812 C 74.871094 10.429688 74.992188 12.5 76.371094 13.789062 C 76.820312 14.210938 77.269531 14.660156 77.75 15.113281 C 77.929688 15.980469 78.40625 17.09375 78.855469 17.875 C 79.335938 18.773438 80.207031 19.164062 80.714844 20.003906 C 81.222656 20.875 81.613281 22.796875 82.394531 23.90625 C 82.183594 23.996094 81.972656 24.085938 81.824219 24.148438 C 81.34375 24.355469 80.984375 24.476562 80.535156 24.835938 C 80.386719 24.957031 80.207031 25.078125 80.054688 25.199219 C 79.964844 25.226562 79.90625 25.226562 79.816406 25.257812 C 78.167969 25.796875 76.582031 26.640625 74.960938 27.300781 C 73.972656 27.691406 72.804688 27.988281 71.785156 28.441406 C 72.144531 27.929688 72.386719 27.390625 72.503906 26.820312 C 72.503906 26.757812 72.445312 26.730469 72.414062 26.789062 C 72.027344 27.597656 71.515625 27.929688 70.707031 28.289062 C 70.4375 28.410156 70.199219 28.46875 69.929688 28.679688 C 69.296875 29.160156 68.910156 29.910156 68.910156 30.691406 C 68.910156 30.839844 69 30.992188 69.117188 31.050781 C 68.96875 30.960938 68.25 32.703125 68.308594 33.09375 C 68.308594 33.152344 68.398438 33.121094 68.398438 33.09375 C 68.667969 32.371094 69.296875 31.800781 69.628906 31.113281 C 69.808594 30.78125 69.988281 30.359375 70.40625 29.972656 C 70.46875 29.941406 70.496094 29.882812 70.558594 29.851562 C 70.558594 29.882812 70.585938 29.882812 70.585938 29.910156 C 70.558594 30.210938 70.527344 30.511719 70.558594 30.871094 C 70.585938 31.113281 70.617188 31.292969 70.675781 31.472656 C 70.558594 31.863281 70.496094 32.253906 70.496094 32.492188 C 70.585938 34.171875 71.246094 34.054688 70.019531 35.164062 C 69.417969 35.703125 68.699219 36.003906 68.609375 36.875 C 68.550781 37.386719 68.757812 37.625 68.96875 37.867188 C 68.847656 38.046875 68.699219 38.257812 68.578125 38.4375 C 67.949219 39.277344 67.261719 39.726562 66.933594 40.808594 C 66.632812 41.796875 66.632812 42.277344 65.824219 43 C 65.613281 43.179688 65.402344 43.269531 65.222656 43.507812 C 64.65625 44.289062 64.894531 44.980469 64.203125 45.699219 C 64.054688 45.851562 64.023438 46.121094 64.144531 46.269531 C 64.203125 46.332031 64.234375 46.421875 64.292969 46.453125 C 64.835938 46.660156 65.882812 45.882812 66.210938 45.582031 C 66.960938 44.890625 66.78125 44.140625 67.082031 43.269531 C 67.292969 42.578125 67.742188 42.007812 68.128906 41.410156 C 68.757812 41.136719 69.238281 40.539062 69.628906 39.90625 C 69.628906 40.085938 69.660156 40.296875 69.6875 40.566406 C 69.898438 41.707031 70.738281 42.488281 70.585938 43.75 C 70.46875 45.011719 69.75 45.972656 69.988281 47.292969 C 70.078125 47.683594 70.527344 48.042969 70.945312 48.011719 C 71.335938 47.984375 71.664062 47.863281 72.027344 47.832031 C 72.144531 47.832031 72.234375 47.800781 72.296875 47.800781 C 72.324219 48.371094 72.027344 49.183594 71.996094 49.574219 C 71.875 50.894531 72.175781 51.40625 73.402344 51.824219 C 73.644531 51.914062 73.941406 51.554688 74.121094 51.613281 C 74.84375 51.855469 74.933594 52.273438 75.230469 52.816406 C 75.710938 53.6875 75.679688 54.765625 75.742188 55.757812 C 75.890625 58.039062 74.871094 59.898438 74.453125 62.0625 C 74.03125 63.082031 73.433594 64.074219 72.953125 65.003906 C 72.355469 66.203125 72.566406 65.574219 71.457031 65.453125 C 70.796875 65.363281 70.078125 65.632812 69.539062 66.023438 C 68.519531 66.746094 68.820312 67.523438 68.101562 68.335938 C 67.679688 68.816406 68.128906 68.457031 67.261719 68.09375 C 66.183594 67.644531 65.882812 68.183594 64.925781 68.546875 C 63.246094 69.207031 61.566406 69.234375 61.359375 71.457031 C 61.359375 71.546875 61.476562 71.578125 61.539062 71.515625 C 62.675781 70.496094 63.785156 70.617188 65.164062 70.167969 C 66.03125 69.898438 66.210938 69.804688 67.023438 69.925781 C 67.230469 69.957031 67.5 70.136719 67.769531 70.167969 C 70.109375 70.46875 69.777344 65.664062 71.875 67.585938 C 72.117188 67.796875 72.476562 67.945312 72.804688 67.824219 C 73.195312 67.675781 73.492188 67.464844 73.761719 67.195312 C 73.523438 67.765625 73.703125 68.367188 74.214844 69.117188 C 74.664062 69.777344 75.050781 70.558594 75.410156 71.308594 C 75.5625 71.636719 75.652344 71.816406 75.949219 71.9375 C 76.28125 72.269531 76.699219 72.507812 76.941406 72.867188 C 77.179688 73.230469 77.390625 74.128906 78.019531 73.828125 C 78.136719 73.769531 78.109375 73.617188 78.019531 73.589844 C 77.449219 73.230469 77.417969 72.269531 77.089844 71.726562 C 76.730469 71.128906 76.28125 70.496094 75.710938 70.078125 C 75.710938 69.804688 75.710938 69.535156 75.769531 69.265625 C 75.890625 68.664062 75.710938 68.425781 75.5625 67.855469 C 75.441406 67.34375 75.621094 66.835938 75.441406 66.292969 C 75.351562 65.992188 75.171875 65.695312 74.992188 65.394531 C 75.023438 65.363281 75.082031 65.304688 75.113281 65.242188 C 76.488281 61.882812 77.058594 58.160156 77.777344 54.617188 C 78.019531 53.535156 78.496094 52.425781 78.648438 51.34375 C 78.855469 49.8125 77.988281 48.402344 77.597656 46.960938 C 77.089844 44.980469 77.03125 43.871094 78.40625 42.398438 C 78.738281 42.039062 79.15625 41.679688 79.515625 41.289062 C 79.667969 41.527344 79.816406 41.769531 79.875 42.097656 C 79.9375 42.429688 79.847656 42.789062 79.964844 43.089844 C 80.207031 43.71875 80.683594 44.289062 80.894531 44.949219 C 80.925781 45.011719 80.984375 45.011719 80.984375 44.949219 C 81.015625 43.601562 81.585938 42.339844 81.015625 41.046875 C 80.773438 40.566406 80.476562 40.058594 80.144531 39.605469 C 80.144531 39.097656 79.9375 38.644531 79.636719 38.105469 C 78.257812 35.792969 76.128906 34.023438 74.183594 32.132812 C 74.992188 30.570312 76.308594 30.8125 77.628906 29.910156 C 78.46875 29.339844 78.585938 28.5 79.1875 27.75 C 79.578125 27.300781 80.207031 26.847656 80.804688 26.457031 C 80.984375 26.398438 81.164062 26.367188 81.34375 26.308594 C 82.304688 26.097656 83.230469 25.949219 83.953125 25.648438 C 83.863281 25.707031 83.5625 25.828125 83.53125 25.949219 C 83.230469 26.789062 83.890625 28.140625 84.640625 28.800781 C 84.402344 29.070312 84.042969 29.28125 84.011719 29.789062 C 84.011719 30.453125 84.402344 30.839844 84.96875 31.140625 C 85.148438 31.230469 85.449219 31.292969 85.628906 31.140625 C 85.449219 31.292969 85.957031 31.863281 86.019531 31.953125 C 86.046875 31.980469 86.109375 31.980469 86.136719 31.980469 L 86.257812 31.953125 C 86.347656 31.953125 86.347656 31.832031 86.289062 31.773438 C 86.46875 31.890625 86.046875 30.480469 86.019531 30.421875 C 85.71875 29.761719 85.390625 29.609375 85.839844 28.859375 C 85.929688 28.710938 85.929688 28.46875 85.839844 28.289062 C 85.539062 27.808594 85.238281 27.390625 84.96875 26.878906 C 84.582031 26.21875 84.699219 26.488281 84.730469 25.828125 C 84.730469 25.589844 84.761719 25.316406 84.730469 25.078125 C 85.089844 24.628906 85.210938 23.996094 84.851562 22.976562 C 84.339844 21.414062 83.921875 19.914062 83.53125 18.324219 C 82.933594 16.011719 83.113281 17.03125 84.371094 15.351562 C 85.121094 14.359375 84.820312 13.582031 84.878906 12.46875 C 84.96875 10.96875 85.6875 9.585938 86.136719 8.175781 C 86.257812 7.726562 85.628906 7.546875 85.449219 7.96875 C 85.417969 7.96875 85.390625 7.9375 85.328125 7.9375 C 85.300781 7.9375 85.300781 7.9375 85.300781 7.9375 C 85.269531 7.90625 85.269531 7.847656 85.238281 7.816406 C 86.4375 7.605469 85.957031 7.246094 86.410156 8.597656 C 86.5 8.835938 86.648438 9.316406 86.859375 9.585938 C 87.785156 10.699219 88.503906 9.828125 89.226562 11.238281 C 89.734375 12.230469 89.613281 14 90.363281 14.839844 C 91.023438 15.589844 91.171875 15.171875 92.011719 15.292969 C 94.347656 15.652344 94.917969 18.144531 96.6875 19.34375 C 97.375 19.792969 98.152344 19.855469 98.8125 20.363281 C 100.25 21.445312 101.089844 23.1875 102.320312 24.476562 C 103.546875 25.796875 105.945312 27.089844 106.304688 28.890625 C 106.484375 29.730469 106.09375 30.601562 106.753906 31.320312 C 107.53125 32.191406 108.761719 32.101562 109.75 33.03125 C 110.859375 34.113281 110.917969 35.222656 111.160156 36.664062 C 111.308594 37.625 111.1875 37.957031 112.085938 38.554688 C 112.925781 39.125 113.824219 39.097656 114.664062 39.90625 C 115.445312 40.65625 116.011719 41.617188 116.613281 42.519531 C 116.703125 42.640625 116.820312 42.667969 116.941406 42.640625 C 117.570312 44.261719 118.019531 45.699219 119.90625 46.089844 C 121.707031 46.453125 122.335938 46.691406 123.59375 48.011719 C 123.652344 48.074219 123.714844 48.164062 123.773438 48.222656 C 123.472656 48.074219 123.144531 47.953125 122.816406 47.921875 C 122.726562 47.921875 122.695312 48.011719 122.726562 48.074219 C 123.175781 48.851562 123.773438 49.785156 124.492188 50.355469 C 125.300781 50.984375 126.46875 51.316406 127.128906 52.15625 C 127.550781 52.695312 127.519531 52.9375 128.238281 53.296875 C 128.867188 53.625 129.496094 53.894531 130.15625 54.226562 C 130.214844 54.257812 130.304688 54.226562 130.304688 54.136719 C 130.277344 53.476562 129.375 53.207031 129.105469 52.636719 C 128.777344 52.003906 128.867188 51.496094 128.296875 50.984375 C 127.96875 50.683594 127.609375 50.414062 127.25 50.175781 C 128.179688 49.875 129.015625 49.214844 130.007812 49.332031 C 131.324219 49.511719 132.402344 50.714844 133.839844 50.773438 C 134.832031 50.804688 135.339844 50.445312 136.027344 49.753906 C 136.449219 49.332031 137.015625 48.914062 137.378906 48.492188 C 137.707031 48.132812 138.367188 47.773438 137.40625 47.863281 C 137.976562 47.800781 138.425781 47.320312 138.277344 46.722656 C 138.394531 47.140625 139.925781 47.800781 140.433594 48.28125 C 141.121094 48.941406 141.480469 49.574219 142.050781 50.292969 C 142.742188 51.164062 143.640625 51.945312 144.480469 52.636719 C 146.605469 54.617188 147.894531 56.898438 149.960938 58.488281 Z M 73.523438 31.683594 C 73.492188 31.652344 73.464844 31.621094 73.433594 31.59375 C 73.492188 31.5625 73.554688 31.472656 73.523438 31.382812 C 73.492188 31.261719 73.433594 31.113281 73.375 30.929688 C 73.402344 30.929688 73.402344 30.929688 73.433594 30.960938 C 73.523438 30.992188 73.613281 30.992188 73.734375 30.992188 C 73.644531 31.203125 73.582031 31.441406 73.523438 31.683594 Z M 73.523438 31.683594 " fill-opacity="1" fill-rule="nonzero"/></g><g clip-path="url(#7b7a80c2bf)"><path fill="#000000" d="M 127.457031 63.984375 C 126.320312 62.960938 126.738281 62.960938 126.199219 61.851562 C 125.75 60.921875 124.703125 60.230469 123.984375 59.511719 C 121.285156 56.867188 118.917969 53.6875 115.832031 51.496094 C 115.234375 50.59375 114.453125 49.664062 113.527344 49.242188 C 112.746094 48.914062 112.296875 49.03125 111.667969 48.554688 C 110.589844 47.710938 109.929688 46.242188 108.792969 45.371094 C 107.292969 44.199219 106.394531 43.210938 105.226562 41.679688 C 104.566406 40.777344 104.027344 40.449219 103.007812 39.847656 C 101.960938 39.246094 102.078125 39.515625 101.480469 38.375 C 101.121094 37.6875 101.269531 37.324219 100.582031 36.84375 C 100.492188 36.785156 100.429688 36.753906 100.339844 36.695312 C 100.132812 36.304688 99.921875 35.976562 99.683594 35.703125 C 99.023438 34.953125 98.515625 34.472656 97.882812 33.574219 C 97.613281 33.214844 97.523438 33.003906 97.195312 32.644531 C 96.535156 31.921875 95.816406 31.140625 95.15625 30.421875 C 94.679688 29.910156 95.1875 30.210938 94.617188 29.820312 C 94.589844 29.820312 94.558594 29.820312 94.558594 29.851562 C 94.589844 30.660156 94.886719 31.441406 95.335938 32.101562 C 95.578125 32.402344 95.816406 32.703125 96.085938 33.003906 C 96.207031 33.242188 96.265625 33.484375 96.296875 33.722656 C 96.296875 33.722656 96.296875 33.722656 96.296875 33.753906 C 96.238281 33.84375 96.265625 33.933594 96.328125 33.992188 C 96.355469 34.234375 96.328125 34.472656 96.296875 34.742188 C 96.417969 35.253906 96.566406 35.734375 96.867188 36.15625 C 97.253906 36.695312 97.792969 37.027344 98.152344 37.566406 C 98.214844 37.625 98.242188 37.714844 98.273438 37.777344 C 97.972656 38.855469 96.957031 43.808594 96.925781 44.230469 C 96.894531 44.800781 97.195312 45.730469 96.835938 45.910156 C 96.355469 46.152344 94.558594 45.460938 93.871094 45.492188 C 93.390625 45.519531 93.121094 46 93.328125 46.421875 C 93.839844 47.382812 94.109375 47.351562 93.871094 48.613281 C 93.691406 49.511719 93.417969 50.382812 93.179688 51.285156 C 92.941406 52.15625 92.730469 52.785156 92.851562 53.714844 C 92.941406 54.375 93.328125 54.167969 93.179688 54.796875 C 92.96875 55.699219 92.28125 56.027344 92.011719 56.539062 C 91.53125 56.027344 91.171875 55.398438 90.691406 54.855469 C 90.242188 54.375 89.824219 53.6875 89.226562 53.414062 C 88.925781 53.265625 88.714844 53.355469 88.414062 53.054688 C 88.296875 52.9375 88.265625 52.753906 88.144531 52.636719 C 87.90625 52.425781 87.605469 52.335938 87.367188 52.125 C 87.308594 52.09375 87.21875 52.125 87.246094 52.183594 C 87.308594 52.726562 87.816406 53.6875 88.234375 53.988281 C 88.59375 54.226562 88.835938 54.105469 89.105469 54.464844 C 89.375 54.796875 89.464844 55.425781 89.703125 55.847656 C 89.914062 56.238281 90.214844 56.71875 90.574219 56.957031 C 91.023438 57.289062 91.5625 57.320312 91.980469 57.738281 C 92.28125 58.039062 92.609375 58.578125 93.03125 58.789062 C 94.167969 60.019531 95.875 61.3125 97.105469 62.089844 C 97.703125 62.480469 98.214844 62.511719 98.902344 62.753906 C 100.339844 63.203125 100.941406 64.164062 101.691406 65.453125 C 102.828125 67.433594 103.546875 66.65625 105.285156 67.496094 C 106.933594 68.304688 108.101562 70.195312 109.78125 71.128906 C 110.621094 71.578125 110.917969 71.398438 111.789062 71.546875 C 111.847656 71.546875 111.90625 71.546875 111.90625 71.546875 C 112.148438 71.726562 112.386719 71.90625 112.566406 72.148438 C 113.078125 72.75 113.824219 73.199219 114.183594 73.769531 C 114.574219 74.339844 115.203125 74.640625 115.535156 75.238281 C 115.625 75.421875 115.921875 75.300781 115.863281 75.121094 C 115.652344 74.519531 115.203125 74.039062 114.992188 73.4375 C 114.785156 72.867188 114.605469 72.449219 114.246094 71.90625 C 114.214844 71.878906 114.183594 71.847656 114.183594 71.789062 C 114.542969 70.945312 114.003906 70.015625 113.644531 69.207031 C 112.714844 66.953125 111.1875 64.792969 109.960938 62.691406 C 108.191406 59.691406 105.34375 56.6875 104.328125 53.265625 C 104.566406 53.746094 104.746094 54.226562 105.074219 54.648438 C 105.585938 55.308594 106.605469 56.058594 107.144531 56.539062 C 108.070312 57.410156 108.941406 58.160156 109.75 59.179688 C 110.257812 59.808594 110.679688 60.621094 111.367188 61.039062 C 112.207031 61.550781 112.296875 61.070312 113.078125 62.0625 C 113.675781 62.78125 113.976562 63.652344 114.664062 64.3125 C 116.132812 65.785156 117.839844 67.015625 119.457031 68.304688 C 119.546875 68.367188 119.609375 68.394531 119.699219 68.457031 C 119.789062 68.636719 119.878906 68.816406 119.96875 69.027344 C 120.476562 70.105469 120.898438 71.21875 121.855469 72.058594 C 122.273438 72.417969 122.574219 72.386719 123.054688 72.597656 C 124.011719 73.046875 123.804688 73.5 124.074219 74.339844 C 124.402344 75.449219 125.363281 76.351562 126.410156 76.832031 C 126.5 76.859375 126.621094 76.769531 126.53125 76.679688 C 125.363281 75.449219 125.480469 74.097656 125.03125 72.628906 C 124.703125 71.515625 124.074219 71.246094 123.382812 70.46875 C 122.695312 69.6875 122.15625 68.726562 121.496094 67.886719 C 121.285156 67.644531 121.105469 67.40625 120.898438 67.195312 C 121.167969 64.464844 119.398438 60.949219 118.378906 58.640625 C 117.78125 57.257812 117.421875 55.847656 116.941406 54.558594 C 117.359375 55.066406 117.75 55.578125 118.082031 56.148438 C 119.25 58.007812 120.835938 59.511719 122.335938 61.132812 C 122.933594 61.792969 123.773438 62.332031 124.28125 63.023438 C 124.640625 63.503906 124.640625 64.101562 125.0625 64.582031 C 125.542969 65.152344 126.230469 65.394531 126.859375 65.722656 C 128.179688 66.414062 129.40625 67.195312 130.425781 68.277344 C 130.546875 68.394531 130.695312 68.277344 130.664062 68.125 C 130.574219 66.355469 128.6875 65.0625 127.457031 63.984375 Z M 127.457031 63.984375 " fill-opacity="1" fill-rule="nonzero"/></g><path fill="#000000" d="M 95.875 25.289062 C 96.386719 25.589844 96.6875 25.738281 96.925781 26.308594 C 97.046875 26.546875 97.074219 26.757812 97.226562 27 C 97.554688 27.539062 98.09375 27.929688 98.664062 28.199219 C 98.8125 28.261719 99.023438 28.109375 98.933594 27.929688 C 98.484375 27.300781 98.003906 26.789062 97.644531 26.097656 C 97.40625 25.648438 97.226562 25.257812 96.894531 24.835938 C 96.117188 23.878906 95.128906 23.214844 94.4375 22.195312 C 94.320312 22.015625 93.988281 22.074219 93.988281 22.316406 C 94.019531 23.605469 94.859375 24.628906 95.875 25.289062 Z M 95.875 25.289062 " fill-opacity="1" fill-rule="nonzero"/><path fill="#000000" d="M 89.074219 39.847656 C 89.40625 40.238281 89.34375 40.597656 89.523438 41.019531 C 89.792969 41.617188 90.421875 42.398438 90.871094 42.878906 C 91.050781 43.058594 91.351562 43.300781 91.621094 43.210938 C 92.042969 43.058594 91.953125 42.429688 91.832031 42.128906 C 91.710938 41.769531 91.351562 41.4375 91.113281 41.136719 C 90.8125 40.746094 90.632812 40.417969 90.421875 39.96875 C 90.125 39.308594 89.792969 39.066406 89.195312 38.675781 C 88.59375 38.257812 88.386719 37.6875 87.875 37.175781 C 87.816406 37.117188 87.667969 37.175781 87.695312 37.265625 C 87.964844 37.925781 87.847656 38.527344 88.296875 39.125 C 88.566406 39.425781 88.867188 39.578125 89.074219 39.847656 Z M 89.074219 39.847656 " fill-opacity="1" fill-rule="nonzero"/><path fill="#000000" d="M 87.457031 69.925781 C 86.976562 68.875 86.558594 68.425781 85.75 67.644531 C 85.03125 66.953125 84.699219 65.875 83.859375 65.242188 C 83.589844 65.0625 83.230469 65.003906 82.933594 64.851562 C 82.632812 64.671875 82.484375 64.464844 82.214844 64.28125 C 82.09375 64.222656 81.945312 64.371094 82.003906 64.492188 C 82.214844 64.792969 82.242188 65.183594 82.511719 65.453125 C 82.8125 65.722656 83.261719 65.722656 83.5625 66.023438 C 84.070312 66.535156 84.132812 67.554688 84.429688 68.15625 C 84.640625 68.546875 85.03125 68.847656 85.179688 69.234375 C 85.628906 70.347656 85.507812 71.128906 86.648438 71.816406 C 87.425781 72.269531 88.085938 72.898438 88.867188 73.320312 C 88.957031 73.378906 89.074219 73.257812 88.984375 73.167969 C 88.085938 72.207031 87.996094 71.097656 87.457031 69.925781 Z M 87.457031 69.925781 " fill-opacity="1" fill-rule="nonzero"/><path fill="#000000" d="M 94.589844 67.226562 C 94.46875 67.042969 94.320312 66.863281 94.199219 66.683594 C 93.78125 66.113281 92.789062 65.363281 92.070312 65.664062 C 92.042969 65.695312 92.042969 65.753906 92.070312 65.753906 C 92.339844 65.84375 92.371094 66.503906 92.429688 66.714844 C 92.550781 67.195312 92.609375 67.585938 92.878906 68.003906 C 93.179688 68.484375 93.628906 68.816406 94.199219 68.90625 C 94.558594 68.964844 94.679688 68.9375 95.007812 69.234375 C 95.1875 69.417969 95.21875 69.476562 95.457031 69.566406 C 95.546875 69.597656 95.667969 69.507812 95.667969 69.417969 C 95.605469 68.875 95.128906 68.605469 94.976562 68.15625 C 94.859375 67.796875 94.828125 67.523438 94.589844 67.226562 Z M 94.589844 67.226562 " fill-opacity="1" fill-rule="nonzero"/><path fill="#000000" d="M 96.984375 70.226562 C 96.714844 69.988281 96.328125 69.597656 95.9375 69.625 C 95.90625 69.625 95.875 69.6875 95.90625 69.714844 C 96.175781 69.988281 96.386719 70.316406 96.6875 70.558594 C 97.015625 70.828125 97.253906 71.246094 97.585938 71.488281 C 97.644531 71.515625 97.734375 71.488281 97.765625 71.425781 C 97.855469 70.917969 97.34375 70.496094 96.984375 70.226562 Z M 96.984375 70.226562 " fill-opacity="1" fill-rule="nonzero"/><path fill="#000000" d="M 62.046875 57.558594 C 62.585938 56.929688 62.765625 56.085938 63.425781 55.515625 C 64.113281 54.917969 64.59375 54.316406 65.222656 53.6875 C 65.3125 53.597656 65.195312 53.476562 65.105469 53.507812 C 64.382812 53.894531 63.605469 53.835938 62.945312 54.316406 C 62.226562 54.828125 61.597656 55.488281 60.9375 56.058594 C 60.371094 56.539062 59.949219 57.046875 59.5 57.617188 C 59.140625 58.097656 58.992188 58.578125 58.691406 59.058594 C 58.632812 59.148438 58.722656 59.238281 58.839844 59.238281 C 59.351562 59.148438 59.710938 58.640625 60.191406 58.460938 C 60.910156 58.25 61.507812 58.21875 62.046875 57.558594 Z M 62.046875 57.558594 " fill-opacity="1" fill-rule="nonzero"/><path fill="#000000" d="M 65.644531 53.414062 C 65.824219 53.265625 66.003906 53.175781 66.03125 52.90625 C 66.03125 52.875 66.003906 52.816406 65.941406 52.84375 C 65.792969 52.964844 65.644531 53.085938 65.492188 53.207031 C 65.34375 53.324219 65.523438 53.535156 65.644531 53.414062 Z M 65.644531 53.414062 " fill-opacity="1" fill-rule="nonzero"/><path fill="#000000" d="M 72.085938 21.234375 C 72.234375 20.785156 72.566406 20.183594 72.925781 19.882812 C 73.253906 19.613281 73.492188 19.464844 73.613281 19.042969 C 73.761719 18.5625 73.015625 18.234375 72.804688 18.714844 C 72.445312 19.523438 71.9375 20.273438 71.816406 21.175781 C 71.785156 21.324219 72.027344 21.386719 72.085938 21.234375 Z M 72.085938 21.234375 " fill-opacity="1" fill-rule="nonzero"/><path fill="#000000" d="M 76.339844 22.585938 C 76.308594 22.585938 76.308594 22.644531 76.339844 22.644531 C 76.398438 22.644531 76.398438 22.585938 76.339844 22.585938 Z M 76.339844 22.585938 " fill-opacity="1" fill-rule="nonzero"/><path fill="#000000" d="M 76.160156 23.878906 C 76.371094 23.757812 76.578125 23.667969 76.730469 23.488281 C 76.910156 23.308594 77 23.035156 77.179688 22.886719 C 77.359375 22.738281 77.597656 22.644531 77.75 22.464844 C 77.929688 22.285156 77.988281 22.074219 78.078125 21.867188 C 78.257812 21.445312 77.660156 21.085938 77.449219 21.503906 C 77.328125 21.746094 77.238281 21.925781 77.03125 22.074219 C 76.851562 22.195312 76.667969 22.316406 76.550781 22.496094 C 76.28125 22.855469 76.039062 23.277344 75.890625 23.695312 C 75.859375 23.847656 76.039062 23.96875 76.160156 23.878906 Z M 76.160156 23.878906 " fill-opacity="1" fill-rule="nonzero"/><path fill="#000000" d="M 29.507812 50.5625 C 29.445312 50.714844 29.597656 50.835938 29.746094 50.746094 C 30.433594 50.203125 30.765625 49.304688 31.363281 48.671875 C 31.992188 48.523438 32.5625 47.683594 32.53125 47.082031 C 32.503906 46.660156 32.023438 46.269531 31.605469 46.542969 C 31.214844 46.8125 30.824219 47.113281 30.585938 47.53125 C 30.496094 47.683594 30.464844 47.890625 30.496094 48.101562 C 30.316406 48.433594 30.105469 48.703125 29.984375 49.0625 C 29.804688 49.542969 29.714844 50.082031 29.507812 50.5625 Z M 29.507812 50.5625 " fill-opacity="1" fill-rule="nonzero"/><path fill="#000000" d="M 32.863281 45.28125 C 32.980469 45.101562 33.28125 45.070312 33.460938 44.949219 C 33.640625 44.800781 33.761719 44.621094 33.792969 44.378906 C 33.820312 44.019531 33.253906 44.019531 33.222656 44.378906 C 33.222656 44.53125 32.953125 44.648438 32.863281 44.769531 C 32.742188 44.921875 32.683594 45.039062 32.683594 45.25 C 32.683594 45.339844 32.800781 45.339844 32.863281 45.28125 Z M 32.863281 45.28125 " fill-opacity="1" fill-rule="nonzero"/><path fill="#000000" d="M 33.640625 39.367188 C 33.253906 39.757812 32.863281 40.386719 32.800781 40.988281 C 32.800781 41.109375 32.773438 41.679688 33.042969 41.679688 C 34.0625 41.617188 34.691406 40.238281 35.109375 39.457031 C 35.230469 39.246094 35.378906 39.035156 35.5 38.828125 C 35.53125 38.765625 35.589844 38.464844 35.621094 38.40625 C 35.828125 38.074219 36.128906 38.046875 36.070312 37.566406 C 36.070312 37.355469 35.800781 37.265625 35.679688 37.445312 C 35.589844 37.597656 35.558594 37.777344 35.46875 37.925781 C 35.347656 38.195312 35.347656 38.167969 35.109375 38.257812 C 34.628906 38.496094 34.03125 38.976562 33.640625 39.367188 Z M 33.640625 39.367188 " fill-opacity="1" fill-rule="nonzero"/><path fill="#000000" d="M 36.128906 35.976562 C 36.277344 35.792969 36.398438 35.496094 36.1875 35.285156 C 36.128906 35.222656 36.039062 35.195312 35.949219 35.222656 C 35.769531 35.285156 35.621094 35.496094 35.46875 35.644531 C 35.320312 35.824219 35.167969 36.035156 35.289062 36.273438 C 35.320312 36.363281 35.410156 36.394531 35.5 36.394531 C 35.769531 36.425781 35.980469 36.15625 36.128906 35.976562 Z M 36.128906 35.976562 " fill-opacity="1" fill-rule="nonzero"/><path fill="#000000" d="M 37.714844 54.675781 C 37.925781 54.375 38.285156 54.257812 38.527344 53.988281 C 38.796875 53.714844 39.125 53.65625 39.425781 53.445312 C 39.964844 53.085938 40.625 52.484375 40.773438 51.824219 C 40.832031 51.554688 40.714844 51.253906 40.414062 51.195312 C 39.933594 51.105469 39.605469 51.316406 39.304688 51.703125 C 39.003906 52.125 38.644531 52.367188 38.257812 52.695312 C 37.894531 52.996094 37.804688 53.265625 37.625 53.6875 C 37.476562 54.015625 37.328125 54.285156 37.417969 54.675781 C 37.507812 54.765625 37.65625 54.765625 37.714844 54.675781 Z M 37.714844 54.675781 " fill-opacity="1" fill-rule="nonzero"/><path fill="#000000" d="M 41.582031 50.203125 C 41.550781 50.203125 41.550781 50.203125 41.582031 50.203125 C 41.761719 50.203125 41.792969 50.144531 41.972656 50.265625 C 42.121094 50.355469 42.332031 50.355469 42.480469 50.265625 C 42.660156 50.175781 42.8125 50.054688 42.902344 49.84375 C 42.992188 49.632812 42.992188 49.394531 42.8125 49.214844 C 42.929688 49.332031 42.78125 49.183594 42.75 49.152344 C 42.691406 49.125 42.660156 49.125 42.601562 49.09375 C 42.480469 49.0625 42.332031 49.0625 42.210938 49.152344 C 42.03125 49.273438 41.910156 49.421875 41.792969 49.605469 C 41.730469 49.722656 41.730469 49.84375 41.730469 49.992188 C 41.761719 50.144531 41.730469 50.144531 41.582031 50.203125 Z M 41.582031 50.203125 " fill-opacity="1" fill-rule="nonzero"/><path fill="#000000" d="M 46.257812 45.191406 C 45.746094 45.222656 45.417969 45.671875 45.027344 45.972656 C 44.789062 46.152344 44.546875 46.363281 44.339844 46.601562 C 44.160156 46.8125 44.128906 47.050781 43.980469 47.292969 C 43.949219 47.382812 43.980469 47.503906 44.070312 47.503906 C 44.636719 47.621094 45.058594 47.113281 45.476562 46.78125 C 45.71875 46.601562 45.957031 46.453125 46.167969 46.210938 C 46.375 45.941406 46.375 45.730469 46.4375 45.429688 C 46.464844 45.3125 46.375 45.160156 46.257812 45.191406 Z M 46.257812 45.191406 " fill-opacity="1" fill-rule="nonzero"/><path fill="#000000" d="M 17.789062 51.195312 C 17.851562 51.015625 17.699219 50.804688 17.550781 50.746094 C 17.042969 50.59375 16.621094 50.984375 16.324219 51.34375 C 15.960938 51.734375 15.960938 52.214844 16.171875 52.695312 C 16.234375 52.816406 16.414062 52.785156 16.441406 52.695312 C 16.5625 52.457031 16.832031 52.09375 17.011719 51.976562 C 17.339844 51.765625 17.671875 51.613281 17.789062 51.195312 Z M 17.789062 51.195312 " fill-opacity="1" fill-rule="nonzero"/><path fill="#000000" d="M 18.507812 49.664062 C 18.390625 49.753906 18.269531 49.84375 18.179688 49.964844 C 18.089844 50.082031 18.238281 50.265625 18.359375 50.144531 C 18.480469 50.023438 18.660156 49.933594 18.808594 49.84375 C 18.898438 49.785156 19.019531 49.695312 19.109375 49.632812 C 19.230469 49.664062 19.320312 49.664062 19.46875 49.605469 C 19.679688 49.511719 19.769531 49.363281 19.949219 49.242188 C 20.15625 49.0625 20.066406 48.613281 19.769531 48.554688 C 19.4375 48.523438 19.140625 48.554688 18.960938 48.851562 C 18.839844 49.03125 18.808594 49.214844 18.871094 49.394531 C 18.78125 49.484375 18.628906 49.574219 18.507812 49.664062 Z M 18.507812 49.664062 " fill-opacity="1" fill-rule="nonzero"/><path fill="#000000" d="M 22.285156 46.390625 C 22.34375 46.390625 22.316406 46.332031 22.285156 46.300781 C 21.925781 46.269531 21.65625 46.601562 21.445312 46.839844 C 21.328125 46.992188 21.207031 47.113281 21.058594 47.230469 C 20.90625 47.382812 20.667969 47.683594 20.425781 47.710938 C 20.367188 47.710938 20.367188 47.773438 20.425781 47.800781 C 20.785156 47.921875 21.085938 47.621094 21.328125 47.382812 C 21.445312 47.261719 21.566406 47.140625 21.65625 46.992188 C 21.835938 46.8125 21.984375 46.480469 22.285156 46.390625 Z M 22.285156 46.390625 " fill-opacity="1" fill-rule="nonzero"/><path fill="#000000" d="M 144 64.972656 C 143.820312 64.671875 143.847656 64.34375 143.789062 64.011719 C 143.667969 63.503906 143.460938 63.113281 143.101562 62.722656 C 142.652344 62.242188 142.382812 62.273438 141.8125 62.089844 C 140.882812 61.761719 140.285156 60.980469 139.445312 60.589844 C 138.964844 60.351562 138.546875 60.230469 138.125 59.960938 C 137.886719 59.808594 137.917969 59.628906 137.585938 59.539062 C 137.527344 59.511719 137.4375 59.601562 137.46875 59.691406 C 137.855469 60.199219 137.886719 60.46875 138.425781 60.832031 C 139.203125 61.3125 139.382812 62.0625 140.074219 62.601562 C 140.554688 62.960938 140.734375 63.113281 141.003906 63.5625 C 141.242188 63.953125 141.421875 64.253906 141.78125 64.554688 C 142.5 65.152344 143.609375 65.332031 144.269531 65.964844 C 144.296875 65.992188 144.390625 65.992188 144.390625 65.933594 C 144.449219 65.632812 144.449219 65.605469 144.269531 65.332031 C 144.238281 65.125 144.089844 65.0625 144 64.972656 Z M 144 64.972656 " fill-opacity="1" fill-rule="nonzero"/><g clip-path="url(#53821f7888)"><path fill="#000000" d="M 150.5625 64.671875 C 150.230469 64.222656 149.871094 63.800781 149.511719 63.382812 C 149.183594 63.050781 148.914062 62.753906 148.402344 62.691406 C 148.222656 62.660156 148.015625 62.78125 147.835938 62.753906 C 147.59375 62.722656 147.445312 62.601562 147.234375 62.511719 C 147.054688 62.453125 146.964844 62.691406 147.054688 62.8125 C 147.207031 62.960938 147.296875 63.140625 147.476562 63.292969 C 147.625 63.414062 147.746094 63.382812 147.894531 63.5625 C 147.984375 63.683594 148.015625 63.894531 148.105469 64.011719 C 148.222656 64.191406 148.375 64.34375 148.554688 64.492188 C 148.882812 64.792969 149.242188 65.09375 149.632812 65.332031 C 149.960938 65.542969 150.351562 65.632812 150.710938 65.785156 C 150.769531 65.8125 150.800781 65.753906 150.832031 65.722656 C 150.921875 65.363281 150.769531 64.972656 150.5625 64.671875 Z M 150.5625 64.671875 " fill-opacity="1" fill-rule="nonzero"/></g><path fill="#000000" d="M 38.945312 60.921875 C 38.226562 59.808594 37.6875 57.617188 36.488281 56.957031 C 35.378906 56.359375 34.359375 57.5 33.550781 58.097656 C 32.921875 58.578125 32.382812 59.121094 31.785156 59.628906 C 31.484375 59.871094 31.453125 60.140625 31.453125 60.261719 C 31.425781 60.199219 31.335938 60.082031 31.214844 59.929688 C 31.273438 59.988281 30.824219 58.820312 30.796875 58.789062 C 30.675781 58.578125 30.40625 58.429688 30.164062 58.429688 C 27.679688 58.488281 25.730469 60.679688 24.234375 62.300781 C 23.453125 63.171875 22.015625 63.382812 21.175781 64.222656 C 20.488281 64.914062 20.15625 65.8125 19.648438 66.625 C 19.199219 66.894531 18.871094 67.34375 18.449219 67.886719 C 18.390625 67.976562 18.390625 68.09375 18.449219 68.183594 C 18.449219 68.214844 18.480469 68.246094 18.480469 68.277344 C 18.539062 68.367188 18.691406 68.425781 18.78125 68.367188 C 19.289062 67.976562 21.207031 68.15625 21.6875 68.277344 C 22.613281 68.515625 23.273438 68.875 24.292969 68.605469 C 25.550781 68.304688 25.339844 67.886719 25.550781 67.195312 C 26.75 67.824219 27.078125 68.394531 28.90625 68.425781 C 29.957031 68.457031 31.003906 68.425781 31.785156 67.675781 C 32.023438 67.464844 32.023438 67.105469 31.902344 66.835938 C 31.214844 65.453125 34.179688 64.824219 34.871094 63.773438 C 35.050781 63.503906 35.019531 63.140625 34.871094 62.871094 C 34.359375 61.941406 34.121094 60.859375 34.539062 59.839844 C 34.78125 59.269531 35.140625 59 35.257812 58.398438 C 35.558594 58.429688 35.890625 58.578125 36.308594 58.878906 C 37.445312 59.78125 38.136719 61.640625 39.035156 62.722656 C 40.082031 64.011719 41.671875 64.941406 42.902344 66.023438 C 43.320312 66.414062 43.980469 65.753906 43.53125 65.394531 C 41.882812 63.984375 40.144531 62.78125 38.945312 60.921875 Z M 33.671875 59.75 C 34 59.179688 34.359375 58.640625 34.839844 58.460938 C 34.539062 59 34.089844 59.359375 33.671875 59.75 Z M 33.671875 59.75 " fill-opacity="1" fill-rule="nonzero"/><path fill="#000000" d="M 15.394531 54.167969 C 15.0625 54.257812 14.675781 54.285156 14.40625 54.464844 C 14.015625 54.738281 13.894531 55.21875 13.476562 55.488281 C 13.027344 55.757812 12.605469 55.789062 12.277344 56.296875 C 12.066406 56.628906 12.21875 57.078125 12.066406 57.347656 C 11.949219 57.589844 11.4375 57.769531 11.257812 58.007812 C 10.839844 58.488281 10.777344 58.757812 10.121094 59.121094 C 9.519531 59.449219 9.101562 59.511719 8.921875 60.230469 C 8.859375 60.410156 9.132812 60.5 9.222656 60.351562 C 9.789062 59.511719 10.597656 59.78125 11.316406 59.238281 C 11.617188 59.03125 11.527344 59 11.769531 58.730469 C 12.277344 58.21875 12.578125 58.1875 13.207031 57.917969 C 13.835938 57.648438 14.316406 57.199219 14.613281 56.597656 C 14.972656 55.90625 15.394531 55.066406 15.601562 54.316406 C 15.632812 54.257812 15.511719 54.136719 15.394531 54.167969 Z M 15.394531 54.167969 " fill-opacity="1" fill-rule="nonzero"/><path fill="#000000" d="M 20.246094 60.921875 C 20.308594 60.832031 20.21875 60.710938 20.128906 60.742188 C 19.769531 60.769531 19.648438 61.039062 19.320312 61.160156 C 18.988281 61.3125 18.75 61.460938 18.539062 61.792969 C 18.269531 62.210938 18.058594 62.660156 17.730469 63.050781 C 17.582031 63.230469 17.371094 63.382812 17.222656 63.5625 C 17.101562 63.710938 17.042969 63.921875 16.921875 64.074219 C 16.890625 64.132812 16.953125 64.222656 17.011719 64.164062 C 17.730469 63.683594 18.300781 62.992188 18.960938 62.421875 C 19.527344 62 19.828125 61.492188 20.246094 60.921875 Z M 20.246094 60.921875 " fill-opacity="1" fill-rule="nonzero"/><path fill="#000000" d="M 21.6875 59.929688 C 21.867188 59.75 22.136719 59.601562 22.253906 59.359375 C 22.375 59.179688 22.464844 58.910156 22.34375 58.730469 C 22.226562 58.550781 22.015625 58.550781 21.804688 58.578125 C 21.445312 58.550781 21.058594 58.789062 20.847656 59.03125 C 20.695312 59.210938 20.605469 59.390625 20.578125 59.628906 C 20.546875 59.75 20.546875 59.839844 20.546875 59.960938 C 20.546875 60.019531 20.578125 60.082031 20.605469 60.140625 C 20.578125 60.050781 20.546875 60.050781 20.578125 60.140625 C 20.578125 60.320312 20.757812 60.46875 20.9375 60.410156 C 20.964844 60.410156 21.175781 60.320312 21.027344 60.351562 C 21.117188 60.320312 21.207031 60.320312 21.296875 60.261719 C 21.417969 60.199219 21.566406 60.082031 21.6875 59.929688 Z M 21.6875 59.929688 " fill-opacity="1" fill-rule="nonzero"/><path fill="#000000" d="M 55.066406 69.777344 C 54.765625 69.65625 54.796875 68.90625 54.617188 68.605469 C 54.40625 68.214844 54.015625 68.066406 53.597656 67.976562 C 53.207031 67.886719 53.117188 67.707031 52.820312 67.496094 C 52.578125 67.316406 52.277344 67.253906 52.039062 67.042969 C 51.621094 66.714844 51.441406 66.234375 51.019531 65.933594 C 50.839844 65.8125 50.660156 66.054688 50.75 66.203125 C 51.082031 66.773438 51.289062 67.105469 51.800781 67.585938 C 52.1875 67.976562 52.367188 68.515625 52.878906 68.753906 C 53.058594 68.847656 53.328125 68.816406 53.507812 68.9375 C 53.808594 69.117188 53.71875 69.386719 53.777344 69.6875 C 53.867188 70.195312 54.105469 70.585938 54.617188 70.765625 C 55.214844 70.976562 55.636719 70.015625 55.066406 69.777344 Z M 55.066406 69.777344 " fill-opacity="1" fill-rule="nonzero"/><path fill="#000000" d="M 55.84375 66.746094 C 55.996094 66.804688 55.816406 66.5625 55.785156 66.472656 C 55.695312 66.292969 55.605469 66.113281 55.484375 65.933594 C 55.277344 65.632812 55.066406 65.542969 54.765625 65.363281 C 54.464844 65.152344 54.195312 64.882812 53.898438 64.644531 C 53.539062 64.402344 53.207031 64.222656 53.027344 63.800781 C 53 63.710938 52.820312 63.683594 52.789062 63.800781 C 52.699219 64.3125 53.148438 64.582031 53.539062 64.882812 C 53.957031 65.183594 54.226562 65.542969 54.496094 65.992188 C 54.707031 66.382812 54.976562 66.773438 55.066406 67.226562 C 55.097656 67.40625 55.304688 67.554688 55.515625 67.554688 C 55.546875 67.554688 55.605469 67.554688 55.636719 67.554688 C 56.023438 67.554688 56.265625 66.925781 55.84375 66.746094 Z M 55.84375 66.746094 " fill-opacity="1" fill-rule="nonzero"/><path fill="#000000" d="M 55.964844 63.53125 C 55.816406 63.441406 55.636719 63.414062 55.515625 63.324219 C 55.277344 63.140625 55.125 62.902344 54.796875 62.84375 C 54.617188 62.8125 54.527344 63.023438 54.675781 63.113281 C 54.886719 63.261719 55.007812 63.5625 55.1875 63.742188 C 55.394531 63.953125 55.664062 64.101562 55.90625 64.28125 C 56.203125 64.523438 56.625 64.132812 56.355469 63.832031 C 56.234375 63.710938 56.113281 63.621094 55.964844 63.53125 Z M 55.964844 63.53125 " fill-opacity="1" fill-rule="nonzero"/></g></g></g><g transform="matrix(1, 0, 0, 1, 125, 167)"><g clip-path="url(#c6e7886b2f)"><g fill="#2657c1" fill-opacity="1"><g transform="translate(0.173649, 45.887243)"><g><path d="M 25.921875 -20.671875 C 25.921875 -18.898438 25.515625 -17.285156 24.703125 -15.828125 C 23.890625 -14.367188 22.644531 -13.1875 20.96875 -12.28125 C 19.289062 -11.382812 17.207031 -10.9375 14.71875 -10.9375 L 10.125 -10.9375 L 10.125 0 L 2.6875 0 L 2.6875 -30.484375 L 14.71875 -30.484375 C 17.15625 -30.484375 19.210938 -30.0625 20.890625 -29.21875 C 22.566406 -28.382812 23.820312 -27.226562 24.65625 -25.75 C 25.5 -24.269531 25.921875 -22.578125 25.921875 -20.671875 Z M 14.15625 -16.84375 C 15.570312 -16.84375 16.628906 -17.175781 17.328125 -17.84375 C 18.023438 -18.507812 18.375 -19.453125 18.375 -20.671875 C 18.375 -21.890625 18.023438 -22.828125 17.328125 -23.484375 C 16.628906 -24.148438 15.570312 -24.484375 14.15625 -24.484375 L 10.125 -24.484375 L 10.125 -16.84375 Z M 14.15625 -16.84375 "/></g></g></g><g fill="#2657c1" fill-opacity="1"><g transform="translate(26.399202, 45.887243)"><g><path d="M 6.421875 -26.75 C 5.117188 -26.75 4.054688 -27.128906 3.234375 -27.890625 C 2.410156 -28.660156 2 -29.613281 2 -30.75 C 2 -31.90625 2.410156 -32.863281 3.234375 -33.625 C 4.054688 -34.394531 5.117188 -34.78125 6.421875 -34.78125 C 7.703125 -34.78125 8.753906 -34.394531 9.578125 -33.625 C 10.398438 -32.863281 10.8125 -31.90625 10.8125 -30.75 C 10.8125 -29.613281 10.398438 -28.660156 9.578125 -27.890625 C 8.753906 -27.128906 7.703125 -26.75 6.421875 -26.75 Z M 10.125 -24.234375 L 10.125 0 L 2.6875 0 L 2.6875 -24.234375 Z M 10.125 -24.234375 "/></g></g></g><g fill="#2657c1" fill-opacity="1"><g transform="translate(38.339523, 45.887243)"><g><path d="M 17.015625 0 L 12.375 -6.734375 L 8.46875 0 L 0.4375 0 L 8.421875 -12.375 L 0.21875 -24.234375 L 8.546875 -24.234375 L 13.203125 -17.546875 L 17.109375 -24.234375 L 25.140625 -24.234375 L 17.015625 -12.03125 L 25.359375 0 Z M 17.015625 0 "/></g></g></g><g fill="#2657c1" fill-opacity="1"><g transform="translate(63.001952, 45.887243)"><g><path d="M 13.71875 0.34375 C 11.34375 0.34375 9.207031 -0.160156 7.3125 -1.171875 C 5.414062 -2.179688 3.925781 -3.628906 2.84375 -5.515625 C 1.757812 -7.398438 1.21875 -9.597656 1.21875 -12.109375 C 1.21875 -14.597656 1.765625 -16.789062 2.859375 -18.6875 C 3.960938 -20.582031 5.46875 -22.035156 7.375 -23.046875 C 9.289062 -24.066406 11.4375 -24.578125 13.8125 -24.578125 C 16.1875 -24.578125 18.328125 -24.066406 20.234375 -23.046875 C 22.140625 -22.035156 23.644531 -20.582031 24.75 -18.6875 C 25.851562 -16.789062 26.40625 -14.597656 26.40625 -12.109375 C 26.40625 -9.617188 25.847656 -7.425781 24.734375 -5.53125 C 23.617188 -3.632812 22.097656 -2.179688 20.171875 -1.171875 C 18.242188 -0.160156 16.09375 0.34375 13.71875 0.34375 Z M 13.71875 -6.078125 C 15.132812 -6.078125 16.34375 -6.597656 17.34375 -7.640625 C 18.34375 -8.679688 18.84375 -10.171875 18.84375 -12.109375 C 18.84375 -14.054688 18.359375 -15.550781 17.390625 -16.59375 C 16.421875 -17.632812 15.226562 -18.15625 13.8125 -18.15625 C 12.363281 -18.15625 11.160156 -17.640625 10.203125 -16.609375 C 9.242188 -15.578125 8.765625 -14.078125 8.765625 -12.109375 C 8.765625 -10.171875 9.234375 -8.679688 10.171875 -7.640625 C 11.117188 -6.597656 12.300781 -6.078125 13.71875 -6.078125 Z M 13.71875 -6.078125 "/></g></g></g><g fill="#2657c1" fill-opacity="1"><g transform="translate(89.79197, 45.887243)"><g><path d="M 10.125 -20.1875 C 10.988281 -21.519531 12.070312 -22.566406 13.375 -23.328125 C 14.675781 -24.097656 16.125 -24.484375 17.71875 -24.484375 L 17.71875 -16.625 L 15.671875 -16.625 C 13.816406 -16.625 12.425781 -16.226562 11.5 -15.4375 C 10.582031 -14.644531 10.125 -13.25 10.125 -11.25 L 10.125 0 L 2.6875 0 L 2.6875 -24.234375 L 10.125 -24.234375 Z M 10.125 -20.1875 "/></g></g></g><g fill="#2657c1" fill-opacity="1"><g transform="translate(107.507172, 45.887243)"><g><path d="M 1.21875 -12.15625 C 1.21875 -14.644531 1.6875 -16.828125 2.625 -18.703125 C 3.5625 -20.585938 4.84375 -22.035156 6.46875 -23.046875 C 8.09375 -24.066406 9.898438 -24.578125 11.890625 -24.578125 C 13.597656 -24.578125 15.097656 -24.226562 16.390625 -23.53125 C 17.679688 -22.84375 18.671875 -21.929688 19.359375 -20.796875 L 19.359375 -24.234375 L 26.796875 -24.234375 L 26.796875 0 L 19.359375 0 L 19.359375 -3.4375 C 18.640625 -2.300781 17.632812 -1.382812 16.34375 -0.6875 C 15.0625 0 13.566406 0.34375 11.859375 0.34375 C 9.890625 0.34375 8.09375 -0.164062 6.46875 -1.1875 C 4.84375 -2.21875 3.5625 -3.679688 2.625 -5.578125 C 1.6875 -7.472656 1.21875 -9.664062 1.21875 -12.15625 Z M 19.359375 -12.109375 C 19.359375 -13.960938 18.84375 -15.425781 17.8125 -16.5 C 16.789062 -17.570312 15.539062 -18.109375 14.0625 -18.109375 C 12.59375 -18.109375 11.34375 -17.578125 10.3125 -16.515625 C 9.28125 -15.460938 8.765625 -14.007812 8.765625 -12.15625 C 8.765625 -10.300781 9.28125 -8.832031 10.3125 -7.75 C 11.34375 -6.664062 12.59375 -6.125 14.0625 -6.125 C 15.539062 -6.125 16.789062 -6.65625 17.8125 -7.71875 C 18.84375 -8.789062 19.359375 -10.253906 19.359375 -12.109375 Z M 19.359375 -12.109375 "/></g></g></g></g></g><g mask="url(#a866a4caf3)"><g transform="matrix(1, 0, 0, 1, 178, 214)"><g clip-path="url(#52332a4682)"><g clip-path="url(#366c287525)"><g><g clip-path="url(#9ee5f8b739)"><g clip-path="url(#a2c73e1ff8)"><g fill="#000000" fill-opacity="1"><g transform="translate(0.139365, 19.235533)"><g><path d="M 10.15625 -15.078125 C 10.664062 -14.296875 10.988281 -13.398438 11.125 -12.390625 C 11.269531 -11.390625 11.28125 -10.375 11.15625 -9.34375 C 11.039062 -8.3125 10.832031 -7.351562 10.53125 -6.46875 C 10.238281 -5.582031 9.878906 -4.863281 9.453125 -4.3125 C 8.773438 -3.425781 7.976562 -2.648438 7.0625 -1.984375 C 6.15625 -1.316406 5.203125 -0.789062 4.203125 -0.40625 C 3.203125 -0.03125 2.238281 0.15625 1.3125 0.15625 C 1.132812 0.15625 0.957031 0.144531 0.78125 0.125 C 0.613281 0.101562 0.46875 0.03125 0.34375 -0.09375 C 0.226562 -0.25 0.1875 -0.421875 0.21875 -0.609375 L 2.8125 -16.96875 C 2.863281 -17.300781 3.046875 -17.472656 3.359375 -17.484375 C 3.410156 -17.484375 3.613281 -17.492188 3.96875 -17.515625 C 4.332031 -17.535156 4.785156 -17.519531 5.328125 -17.46875 C 5.867188 -17.414062 6.445312 -17.304688 7.0625 -17.140625 C 7.675781 -16.984375 8.253906 -16.738281 8.796875 -16.40625 C 9.335938 -16.070312 9.789062 -15.628906 10.15625 -15.078125 Z M 8.453125 -5.0625 C 8.828125 -5.53125 9.140625 -6.15625 9.390625 -6.9375 C 9.648438 -7.726562 9.832031 -8.578125 9.9375 -9.484375 C 10.039062 -10.390625 10.03125 -11.273438 9.90625 -12.140625 C 9.789062 -13.015625 9.523438 -13.769531 9.109375 -14.40625 C 8.835938 -14.84375 8.472656 -15.1875 8.015625 -15.4375 C 7.554688 -15.6875 7.066406 -15.875 6.546875 -16 C 6.023438 -16.125 5.535156 -16.203125 5.078125 -16.234375 C 4.617188 -16.265625 4.25 -16.28125 3.96875 -16.28125 L 1.5625 -1.109375 C 2.363281 -1.140625 3.179688 -1.320312 4.015625 -1.65625 C 4.847656 -1.988281 5.648438 -2.445312 6.421875 -3.03125 C 7.191406 -3.625 7.867188 -4.300781 8.453125 -5.0625 Z M 8.453125 -5.0625 "/></g></g></g></g><g fill="#000000" fill-opacity="1"><g transform="translate(11.428086, 19.235533)"><g><path d="M 6.453125 -2.40625 C 6.585938 -2.507812 6.738281 -2.554688 6.90625 -2.546875 C 7.070312 -2.535156 7.210938 -2.460938 7.328125 -2.328125 C 7.441406 -2.203125 7.488281 -2.050781 7.46875 -1.875 C 7.457031 -1.707031 7.382812 -1.566406 7.25 -1.453125 C 6.882812 -1.140625 6.421875 -0.835938 5.859375 -0.546875 C 5.296875 -0.265625 4.671875 -0.125 3.984375 -0.125 C 3.785156 -0.125 3.585938 -0.140625 3.390625 -0.171875 C 2.453125 -0.304688 1.738281 -0.773438 1.25 -1.578125 C 0.96875 -2.066406 0.8125 -2.617188 0.78125 -3.234375 C 0.757812 -3.285156 0.75 -3.335938 0.75 -3.390625 C 0.75 -3.390625 0.757812 -3.394531 0.78125 -3.40625 C 0.757812 -4.007812 0.867188 -4.640625 1.109375 -5.296875 C 1.359375 -5.953125 1.75 -6.546875 2.28125 -7.078125 C 2.820312 -7.609375 3.453125 -8.019531 4.171875 -8.3125 C 4.671875 -8.507812 5.148438 -8.617188 5.609375 -8.640625 C 6.066406 -8.671875 6.457031 -8.601562 6.78125 -8.4375 C 7.363281 -8.144531 7.679688 -7.695312 7.734375 -7.09375 C 7.765625 -6.664062 7.640625 -6.21875 7.359375 -5.75 C 7.085938 -5.28125 6.679688 -4.835938 6.140625 -4.421875 C 5.328125 -3.816406 4.5625 -3.394531 3.84375 -3.15625 C 3.125 -2.925781 2.535156 -2.796875 2.078125 -2.765625 C 2.148438 -2.554688 2.226562 -2.367188 2.3125 -2.203125 C 2.59375 -1.734375 3.007812 -1.46875 3.5625 -1.40625 C 4.164062 -1.300781 4.71875 -1.367188 5.21875 -1.609375 C 5.71875 -1.859375 6.128906 -2.125 6.453125 -2.40625 Z M 2.28125 -4.875 C 2.164062 -4.582031 2.09375 -4.285156 2.0625 -3.984375 C 2.425781 -4.035156 2.90625 -4.15625 3.5 -4.34375 C 4.09375 -4.539062 4.722656 -4.898438 5.390625 -5.421875 C 5.796875 -5.722656 6.082031 -6.015625 6.25 -6.296875 C 6.414062 -6.578125 6.5 -6.8125 6.5 -7 C 6.476562 -7.03125 6.453125 -7.078125 6.421875 -7.140625 C 6.390625 -7.210938 6.316406 -7.273438 6.203125 -7.328125 C 6.117188 -7.378906 5.984375 -7.40625 5.796875 -7.40625 C 5.648438 -7.40625 5.472656 -7.382812 5.265625 -7.34375 C 5.066406 -7.300781 4.851562 -7.238281 4.625 -7.15625 C 4.070312 -6.9375 3.585938 -6.625 3.171875 -6.21875 C 2.765625 -5.820312 2.46875 -5.375 2.28125 -4.875 Z M 2.28125 -4.875 "/></g></g></g><g fill="#000000" fill-opacity="1"><g transform="translate(19.907213, 19.235533)"><g><path d="M 2.9375 -7.125 C 2.769531 -7.039062 2.660156 -6.953125 2.609375 -6.859375 C 2.554688 -6.765625 2.53125 -6.675781 2.53125 -6.59375 C 2.476562 -6.332031 2.609375 -6.085938 2.921875 -5.859375 C 3.242188 -5.628906 3.765625 -5.359375 4.484375 -5.046875 C 5.109375 -4.773438 5.578125 -4.484375 5.890625 -4.171875 C 6.210938 -3.867188 6.429688 -3.570312 6.546875 -3.28125 C 6.660156 -3 6.726562 -2.765625 6.75 -2.578125 C 6.800781 -1.859375 6.515625 -1.300781 5.890625 -0.90625 C 5.328125 -0.550781 4.703125 -0.375 4.015625 -0.375 C 3.691406 -0.375 3.390625 -0.410156 3.109375 -0.484375 C 2.035156 -0.765625 1.222656 -1.441406 0.671875 -2.515625 C 0.585938 -2.660156 0.570312 -2.816406 0.625 -2.984375 C 0.675781 -3.148438 0.773438 -3.269531 0.921875 -3.34375 C 1.078125 -3.425781 1.238281 -3.441406 1.40625 -3.390625 C 1.570312 -3.335938 1.6875 -3.238281 1.75 -3.09375 C 2.15625 -2.332031 2.707031 -1.863281 3.40625 -1.6875 C 4.0625 -1.519531 4.664062 -1.609375 5.21875 -1.953125 C 5.4375 -2.085938 5.535156 -2.265625 5.515625 -2.484375 C 5.503906 -2.734375 5.363281 -2.984375 5.09375 -3.234375 C 4.820312 -3.484375 4.453125 -3.710938 3.984375 -3.921875 C 3.554688 -4.117188 3.117188 -4.335938 2.671875 -4.578125 C 2.222656 -4.816406 1.859375 -5.113281 1.578125 -5.46875 C 1.304688 -5.832031 1.21875 -6.273438 1.3125 -6.796875 C 1.40625 -7.429688 1.753906 -7.898438 2.359375 -8.203125 C 2.859375 -8.472656 3.4375 -8.59375 4.09375 -8.5625 C 4.757812 -8.539062 5.3125 -8.429688 5.75 -8.234375 C 6.4375 -7.898438 6.945312 -7.519531 7.28125 -7.09375 C 7.375 -6.96875 7.410156 -6.820312 7.390625 -6.65625 C 7.367188 -6.488281 7.289062 -6.351562 7.15625 -6.25 C 7.019531 -6.132812 6.867188 -6.085938 6.703125 -6.109375 C 6.535156 -6.128906 6.398438 -6.207031 6.296875 -6.34375 C 6.210938 -6.425781 6.09375 -6.535156 5.9375 -6.671875 C 5.78125 -6.804688 5.539062 -6.945312 5.21875 -7.09375 C 4.9375 -7.226562 4.5625 -7.304688 4.09375 -7.328125 C 3.625 -7.347656 3.238281 -7.28125 2.9375 -7.125 Z M 2.9375 -7.125 "/></g></g></g><g fill="#000000" fill-opacity="1"><g transform="translate(27.784279, 19.235533)"><g><path d="M 2.609375 -8.5625 C 2.773438 -8.519531 2.90625 -8.425781 3 -8.28125 C 3.101562 -8.144531 3.140625 -7.992188 3.109375 -7.828125 L 1.78125 -0.28125 C 1.71875 0.0703125 1.515625 0.25 1.171875 0.25 C 1.140625 0.25 1.097656 0.25 1.046875 0.25 C 0.878906 0.21875 0.75 0.132812 0.65625 0 C 0.570312 -0.144531 0.535156 -0.304688 0.546875 -0.484375 L 1.875 -8.0625 C 1.914062 -8.226562 2.003906 -8.351562 2.140625 -8.4375 C 2.285156 -8.53125 2.441406 -8.570312 2.609375 -8.5625 Z M 3.109375 -13.40625 C 3.328125 -13.40625 3.515625 -13.328125 3.671875 -13.171875 C 3.835938 -13.023438 3.921875 -12.84375 3.921875 -12.625 C 3.921875 -12.40625 3.835938 -12.210938 3.671875 -12.046875 C 3.515625 -11.890625 3.328125 -11.8125 3.109375 -11.8125 C 2.890625 -11.8125 2.703125 -11.890625 2.546875 -12.046875 C 2.398438 -12.210938 2.328125 -12.40625 2.328125 -12.625 C 2.328125 -12.84375 2.398438 -13.023438 2.546875 -13.171875 C 2.703125 -13.328125 2.890625 -13.40625 3.109375 -13.40625 Z M 3.109375 -13.40625 "/></g></g></g><g clip-path="url(#1d0966cd49)"><g fill="#000000" fill-opacity="1"><g transform="translate(31.446859, 19.235533)"><g><path d="M 7.953125 -8.40625 C 8.117188 -8.375 8.25 -8.289062 8.34375 -8.15625 C 8.445312 -8.019531 8.484375 -7.859375 8.453125 -7.671875 C 8.453125 -7.628906 8.410156 -7.359375 8.328125 -6.859375 C 8.242188 -6.367188 8.140625 -5.757812 8.015625 -5.03125 C 7.890625 -4.300781 7.757812 -3.539062 7.625 -2.75 C 7.488281 -1.96875 7.359375 -1.242188 7.234375 -0.578125 C 7.109375 0.078125 7.015625 0.570312 6.953125 0.90625 C 6.835938 1.488281 6.675781 2.128906 6.46875 2.828125 C 6.269531 3.535156 6.023438 4.238281 5.734375 4.9375 C 5.453125 5.644531 5.113281 6.289062 4.71875 6.875 C 4.332031 7.457031 3.890625 7.925781 3.390625 8.28125 C 2.890625 8.632812 2.328125 8.8125 1.703125 8.8125 C 1.691406 8.8125 1.679688 8.8125 1.671875 8.8125 C 1.660156 8.8125 1.65625 8.8125 1.65625 8.8125 C 0.957031 8.8125 0.414062 8.707031 0.03125 8.5 C -0.34375 8.300781 -0.601562 8.097656 -0.75 7.890625 C -0.90625 7.679688 -0.988281 7.550781 -1 7.5 C -1.070312 7.332031 -1.070312 7.171875 -1 7.015625 C -0.9375 6.867188 -0.820312 6.765625 -0.65625 6.703125 C -0.5 6.628906 -0.34375 6.625 -0.1875 6.6875 C -0.03125 6.757812 0.0820312 6.878906 0.15625 7.046875 C 0.15625 7.046875 0.25 7.132812 0.4375 7.3125 C 0.632812 7.488281 1.039062 7.578125 1.65625 7.578125 C 1.65625 7.578125 1.660156 7.578125 1.671875 7.578125 C 1.679688 7.578125 1.6875 7.578125 1.6875 7.578125 C 2.5 7.578125 3.265625 6.960938 3.984375 5.734375 C 4.703125 4.503906 5.289062 2.800781 5.75 0.625 C 5.8125 0.289062 5.90625 -0.226562 6.03125 -0.9375 C 6.15625 -1.644531 6.296875 -2.40625 6.453125 -3.21875 C 5.242188 -1.40625 4.125 -0.34375 3.09375 -0.03125 C 2.851562 0.0390625 2.625 0.078125 2.40625 0.078125 C 2.019531 0.078125 1.660156 -0.015625 1.328125 -0.203125 C 1.210938 -0.265625 1.085938 -0.375 0.953125 -0.53125 C 0.816406 -0.695312 0.71875 -0.929688 0.65625 -1.234375 C 0.550781 -1.617188 0.535156 -2.078125 0.609375 -2.609375 C 0.691406 -3.140625 0.832031 -3.679688 1.03125 -4.234375 C 1.226562 -4.785156 1.476562 -5.289062 1.78125 -5.75 C 2.363281 -6.632812 3.023438 -7.332031 3.765625 -7.84375 C 4.515625 -8.363281 5.21875 -8.625 5.875 -8.625 C 6.15625 -8.625 6.410156 -8.566406 6.640625 -8.453125 C 6.878906 -8.335938 7.09375 -8.195312 7.28125 -8.03125 C 7.414062 -8.332031 7.640625 -8.457031 7.953125 -8.40625 Z M 2.703125 -1.203125 C 2.921875 -1.273438 3.222656 -1.457031 3.609375 -1.75 C 3.992188 -2.050781 4.460938 -2.578125 5.015625 -3.328125 C 5.566406 -4.085938 6.203125 -5.160156 6.921875 -6.546875 C 6.804688 -6.734375 6.644531 -6.921875 6.4375 -7.109375 C 6.238281 -7.304688 6.050781 -7.40625 5.875 -7.40625 C 5.5 -7.40625 5.023438 -7.207031 4.453125 -6.8125 C 3.878906 -6.414062 3.332031 -5.832031 2.8125 -5.0625 C 2.457031 -4.550781 2.203125 -4.019531 2.046875 -3.46875 C 1.898438 -2.914062 1.820312 -2.429688 1.8125 -2.015625 C 1.8125 -1.609375 1.859375 -1.363281 1.953125 -1.28125 C 2.191406 -1.144531 2.441406 -1.117188 2.703125 -1.203125 Z M 2.703125 -1.203125 "/></g></g></g></g><g fill="#000000" fill-opacity="1"><g transform="translate(40.47788, 19.235533)"><g><path d="M 7.828125 -8.0625 C 8.097656 -7.820312 8.273438 -7.421875 8.359375 -6.859375 C 8.453125 -6.296875 8.476562 -5.644531 8.4375 -4.90625 C 8.394531 -4.164062 8.320312 -3.414062 8.21875 -2.65625 C 8.125 -1.90625 8.019531 -1.238281 7.90625 -0.65625 C 7.882812 -0.488281 7.800781 -0.351562 7.65625 -0.25 C 7.519531 -0.144531 7.367188 -0.113281 7.203125 -0.15625 C 7.035156 -0.1875 6.898438 -0.269531 6.796875 -0.40625 C 6.703125 -0.550781 6.671875 -0.707031 6.703125 -0.875 C 6.867188 -1.84375 7 -2.773438 7.09375 -3.671875 C 7.1875 -4.566406 7.226562 -5.320312 7.21875 -5.9375 C 7.207031 -6.5625 7.144531 -6.945312 7.03125 -7.09375 C 6.863281 -7.226562 6.675781 -7.273438 6.46875 -7.234375 C 6.082031 -7.128906 5.671875 -6.835938 5.234375 -6.359375 C 4.804688 -5.878906 4.378906 -5.296875 3.953125 -4.609375 C 3.523438 -3.929688 3.125 -3.222656 2.75 -2.484375 C 2.375 -1.742188 2.0625 -1.078125 1.8125 -0.484375 C 1.707031 -0.222656 1.515625 -0.09375 1.234375 -0.09375 C 1.179688 -0.09375 1.117188 -0.101562 1.046875 -0.125 C 0.898438 -0.175781 0.785156 -0.269531 0.703125 -0.40625 C 0.617188 -0.539062 0.59375 -0.679688 0.625 -0.828125 L 1.859375 -8.0625 C 1.867188 -8.226562 1.945312 -8.359375 2.09375 -8.453125 C 2.238281 -8.554688 2.394531 -8.59375 2.5625 -8.5625 C 2.726562 -8.539062 2.859375 -8.457031 2.953125 -8.3125 C 3.054688 -8.175781 3.09375 -8.023438 3.0625 -7.859375 L 2.53125 -4.671875 C 2.863281 -5.234375 3.226562 -5.78125 3.625 -6.3125 C 4.03125 -6.851562 4.445312 -7.3125 4.875 -7.6875 C 5.300781 -8.0625 5.734375 -8.3125 6.171875 -8.4375 C 6.773438 -8.582031 7.328125 -8.457031 7.828125 -8.0625 Z M 7.828125 -8.0625 "/></g></g></g><g fill="#000000" fill-opacity="1"><g transform="translate(49.960461, 19.235533)"><g><path d="M 0.90625 -1.28125 C 1.101562 -1.28125 1.273438 -1.207031 1.421875 -1.0625 C 1.578125 -0.925781 1.65625 -0.75 1.65625 -0.53125 C 1.65625 -0.320312 1.578125 -0.144531 1.421875 0 C 1.273438 0.144531 1.101562 0.21875 0.90625 0.21875 C 0.6875 0.21875 0.503906 0.144531 0.359375 0 C 0.222656 -0.144531 0.15625 -0.320312 0.15625 -0.53125 C 0.15625 -0.75 0.222656 -0.925781 0.359375 -1.0625 C 0.503906 -1.207031 0.6875 -1.28125 0.90625 -1.28125 Z M 0.90625 -1.28125 "/></g></g></g><g fill="#000000" fill-opacity="1"><g transform="translate(53.3471, 19.235533)"><g/></g></g><g fill="#000000" fill-opacity="1"><g transform="translate(60.14546, 19.235533)"><g><path d="M 10.15625 -15.078125 C 10.664062 -14.296875 10.988281 -13.398438 11.125 -12.390625 C 11.269531 -11.390625 11.28125 -10.375 11.15625 -9.34375 C 11.039062 -8.3125 10.832031 -7.351562 10.53125 -6.46875 C 10.238281 -5.582031 9.878906 -4.863281 9.453125 -4.3125 C 8.773438 -3.425781 7.976562 -2.648438 7.0625 -1.984375 C 6.15625 -1.316406 5.203125 -0.789062 4.203125 -0.40625 C 3.203125 -0.03125 2.238281 0.15625 1.3125 0.15625 C 1.132812 0.15625 0.957031 0.144531 0.78125 0.125 C 0.613281 0.101562 0.46875 0.03125 0.34375 -0.09375 C 0.226562 -0.25 0.1875 -0.421875 0.21875 -0.609375 L 2.8125 -16.96875 C 2.863281 -17.300781 3.046875 -17.472656 3.359375 -17.484375 C 3.410156 -17.484375 3.613281 -17.492188 3.96875 -17.515625 C 4.332031 -17.535156 4.785156 -17.519531 5.328125 -17.46875 C 5.867188 -17.414062 6.445312 -17.304688 7.0625 -17.140625 C 7.675781 -16.984375 8.253906 -16.738281 8.796875 -16.40625 C 9.335938 -16.070312 9.789062 -15.628906 10.15625 -15.078125 Z M 8.453125 -5.0625 C 8.828125 -5.53125 9.140625 -6.15625 9.390625 -6.9375 C 9.648438 -7.726562 9.832031 -8.578125 9.9375 -9.484375 C 10.039062 -10.390625 10.03125 -11.273438 9.90625 -12.140625 C 9.789062 -13.015625 9.523438 -13.769531 9.109375 -14.40625 C 8.835938 -14.84375 8.472656 -15.1875 8.015625 -15.4375 C 7.554688 -15.6875 7.066406 -15.875 6.546875 -16 C 6.023438 -16.125 5.535156 -16.203125 5.078125 -16.234375 C 4.617188 -16.265625 4.25 -16.28125 3.96875 -16.28125 L 1.5625 -1.109375 C 2.363281 -1.140625 3.179688 -1.320312 4.015625 -1.65625 C 4.847656 -1.988281 5.648438 -2.445312 6.421875 -3.03125 C 7.191406 -3.625 7.867188 -4.300781 8.453125 -5.0625 Z M 8.453125 -5.0625 "/></g></g></g><g fill="#000000" fill-opacity="1"><g transform="translate(71.509444, 19.235533)"><g><path d="M 7.875 -7.984375 C 8.007812 -7.878906 8.085938 -7.738281 8.109375 -7.5625 C 8.140625 -7.382812 8.101562 -7.226562 8 -7.09375 C 7.90625 -6.96875 7.773438 -6.890625 7.609375 -6.859375 C 7.441406 -6.835938 7.289062 -6.875 7.15625 -6.96875 C 7.132812 -6.96875 7.007812 -7.015625 6.78125 -7.109375 C 6.5625 -7.203125 6.25 -7.234375 5.84375 -7.203125 C 5.445312 -7.171875 4.988281 -6.96875 4.46875 -6.59375 C 4.195312 -6.414062 3.929688 -6.097656 3.671875 -5.640625 C 3.410156 -5.191406 3.164062 -4.675781 2.9375 -4.09375 C 2.71875 -3.507812 2.515625 -2.921875 2.328125 -2.328125 C 2.148438 -1.734375 2.007812 -1.203125 1.90625 -0.734375 C 1.84375 -0.410156 1.644531 -0.25 1.3125 -0.25 C 1.257812 -0.25 1.210938 -0.257812 1.171875 -0.28125 C 1.023438 -0.289062 0.898438 -0.367188 0.796875 -0.515625 C 0.703125 -0.660156 0.671875 -0.816406 0.703125 -0.984375 L 1.828125 -8.25 C 1.847656 -8.414062 1.925781 -8.550781 2.0625 -8.65625 C 2.207031 -8.757812 2.363281 -8.800781 2.53125 -8.78125 C 2.695312 -8.75 2.832031 -8.664062 2.9375 -8.53125 C 3.039062 -8.394531 3.082031 -8.242188 3.0625 -8.078125 L 2.828125 -6.625 C 3.128906 -7.070312 3.441406 -7.40625 3.765625 -7.625 C 4.335938 -8.03125 4.875 -8.28125 5.375 -8.375 C 5.875 -8.476562 6.304688 -8.492188 6.671875 -8.421875 C 7.046875 -8.359375 7.335938 -8.269531 7.546875 -8.15625 C 7.753906 -8.039062 7.863281 -7.984375 7.875 -7.984375 Z M 7.875 -7.984375 "/></g></g></g><g fill="#000000" fill-opacity="1"><g transform="translate(79.160691, 19.235533)"><g><path d="M 7.5 -6.53125 C 7.570312 -5.6875 7.519531 -4.945312 7.34375 -4.3125 C 7.164062 -3.675781 6.9375 -3.132812 6.65625 -2.6875 C 6.382812 -2.25 6.128906 -1.90625 5.890625 -1.65625 C 5.503906 -1.238281 5.097656 -0.914062 4.671875 -0.6875 C 4.253906 -0.457031 3.851562 -0.34375 3.46875 -0.34375 C 2.644531 -0.34375 2 -0.585938 1.53125 -1.078125 C 0.976562 -1.679688 0.742188 -2.601562 0.828125 -3.84375 C 0.878906 -4.65625 1.054688 -5.367188 1.359375 -5.984375 C 1.671875 -6.597656 2.046875 -7.109375 2.484375 -7.515625 C 2.921875 -7.921875 3.335938 -8.226562 3.734375 -8.4375 C 4.691406 -8.882812 5.554688 -8.890625 6.328125 -8.453125 C 7.046875 -8.035156 7.4375 -7.394531 7.5 -6.53125 Z M 5 -2.515625 C 5.175781 -2.710938 5.375 -2.984375 5.59375 -3.328125 C 5.8125 -3.679688 5.988281 -4.113281 6.125 -4.625 C 6.269531 -5.132812 6.320312 -5.734375 6.28125 -6.421875 C 6.238281 -6.859375 6.046875 -7.175781 5.703125 -7.375 C 5.535156 -7.476562 5.34375 -7.53125 5.125 -7.53125 C 4.851562 -7.53125 4.578125 -7.460938 4.296875 -7.328125 C 3.773438 -7.078125 3.285156 -6.640625 2.828125 -6.015625 C 2.378906 -5.398438 2.125 -4.648438 2.0625 -3.765625 C 1.988281 -2.890625 2.113281 -2.28125 2.4375 -1.9375 C 2.664062 -1.695312 3.007812 -1.578125 3.46875 -1.578125 C 3.632812 -1.578125 3.851562 -1.648438 4.125 -1.796875 C 4.40625 -1.953125 4.695312 -2.191406 5 -2.515625 Z M 5 -2.515625 "/></g></g></g><g fill="#000000" fill-opacity="1"><g transform="translate(87.313698, 19.235533)"><g><path d="M 8.3125 -6.90625 C 8.601562 -6.144531 8.609375 -5.269531 8.328125 -4.28125 C 8.054688 -3.300781 7.546875 -2.375 6.796875 -1.5 C 6.316406 -0.9375 5.710938 -0.484375 4.984375 -0.140625 C 4.253906 0.203125 3.546875 0.375 2.859375 0.375 C 2.773438 0.375 2.703125 0.363281 2.640625 0.34375 C 2.335938 0.332031 2.039062 0.269531 1.75 0.15625 L 0.421875 8.234375 C 0.359375 8.578125 0.148438 8.75 -0.203125 8.75 C -0.234375 8.75 -0.265625 8.742188 -0.296875 8.734375 C -0.460938 8.710938 -0.597656 8.628906 -0.703125 8.484375 C -0.804688 8.347656 -0.835938 8.195312 -0.796875 8.03125 L 1.859375 -7.921875 C 1.867188 -8.097656 1.945312 -8.226562 2.09375 -8.3125 C 2.238281 -8.40625 2.394531 -8.445312 2.5625 -8.4375 C 2.726562 -8.394531 2.859375 -8.304688 2.953125 -8.171875 C 3.054688 -8.046875 3.101562 -7.890625 3.09375 -7.703125 L 2.78125 -5.890625 C 2.96875 -6.128906 3.171875 -6.359375 3.390625 -6.578125 C 3.617188 -6.804688 3.867188 -7.023438 4.140625 -7.234375 C 4.492188 -7.492188 4.945312 -7.71875 5.5 -7.90625 C 6.050781 -8.101562 6.582031 -8.128906 7.09375 -7.984375 C 7.664062 -7.828125 8.070312 -7.46875 8.3125 -6.90625 Z M 5.875 -2.328125 C 6.5625 -3.117188 6.988281 -3.894531 7.15625 -4.65625 C 7.320312 -5.414062 7.320312 -6.015625 7.15625 -6.453125 C 7.070312 -6.628906 6.9375 -6.742188 6.75 -6.796875 C 6.53125 -6.867188 6.238281 -6.847656 5.875 -6.734375 C 5.519531 -6.628906 5.1875 -6.457031 4.875 -6.21875 C 4.332031 -5.832031 3.890625 -5.390625 3.546875 -4.890625 C 3.203125 -4.390625 2.929688 -3.882812 2.734375 -3.375 C 2.535156 -2.863281 2.382812 -2.398438 2.28125 -1.984375 C 2.1875 -1.578125 2.128906 -1.265625 2.109375 -1.046875 C 2.191406 -0.984375 2.289062 -0.9375 2.40625 -0.90625 C 2.519531 -0.882812 2.617188 -0.875 2.703125 -0.875 C 3.140625 -0.84375 3.660156 -0.945312 4.265625 -1.1875 C 4.878906 -1.4375 5.414062 -1.816406 5.875 -2.328125 Z M 5.875 -2.328125 "/></g></g></g><g fill="#000000" fill-opacity="1"><g transform="translate(96.445065, 19.235533)"><g><path d="M 0.90625 -1.28125 C 1.101562 -1.28125 1.273438 -1.207031 1.421875 -1.0625 C 1.578125 -0.925781 1.65625 -0.75 1.65625 -0.53125 C 1.65625 -0.320312 1.578125 -0.144531 1.421875 0 C 1.273438 0.144531 1.101562 0.21875 0.90625 0.21875 C 0.6875 0.21875 0.503906 0.144531 0.359375 0 C 0.222656 -0.144531 0.15625 -0.320312 0.15625 -0.53125 C 0.15625 -0.75 0.222656 -0.925781 0.359375 -1.0625 C 0.503906 -1.207031 0.6875 -1.28125 0.90625 -1.28125 Z M 0.90625 -1.28125 "/></g></g></g><g fill="#000000" fill-opacity="1"><g transform="translate(99.831703, 19.235533)"><g/></g></g><g fill="#000000" fill-opacity="1"><g transform="translate(106.630064, 19.235533)"><g><path d="M 10.15625 -15.078125 C 10.664062 -14.296875 10.988281 -13.398438 11.125 -12.390625 C 11.269531 -11.390625 11.28125 -10.375 11.15625 -9.34375 C 11.039062 -8.3125 10.832031 -7.351562 10.53125 -6.46875 C 10.238281 -5.582031 9.878906 -4.863281 9.453125 -4.3125 C 8.773438 -3.425781 7.976562 -2.648438 7.0625 -1.984375 C 6.15625 -1.316406 5.203125 -0.789062 4.203125 -0.40625 C 3.203125 -0.03125 2.238281 0.15625 1.3125 0.15625 C 1.132812 0.15625 0.957031 0.144531 0.78125 0.125 C 0.613281 0.101562 0.46875 0.03125 0.34375 -0.09375 C 0.226562 -0.25 0.1875 -0.421875 0.21875 -0.609375 L 2.8125 -16.96875 C 2.863281 -17.300781 3.046875 -17.472656 3.359375 -17.484375 C 3.410156 -17.484375 3.613281 -17.492188 3.96875 -17.515625 C 4.332031 -17.535156 4.785156 -17.519531 5.328125 -17.46875 C 5.867188 -17.414062 6.445312 -17.304688 7.0625 -17.140625 C 7.675781 -16.984375 8.253906 -16.738281 8.796875 -16.40625 C 9.335938 -16.070312 9.789062 -15.628906 10.15625 -15.078125 Z M 8.453125 -5.0625 C 8.828125 -5.53125 9.140625 -6.15625 9.390625 -6.9375 C 9.648438 -7.726562 9.832031 -8.578125 9.9375 -9.484375 C 10.039062 -10.390625 10.03125 -11.273438 9.90625 -12.140625 C 9.789062 -13.015625 9.523438 -13.769531 9.109375 -14.40625 C 8.835938 -14.84375 8.472656 -15.1875 8.015625 -15.4375 C 7.554688 -15.6875 7.066406 -15.875 6.546875 -16 C 6.023438 -16.125 5.535156 -16.203125 5.078125 -16.234375 C 4.617188 -16.265625 4.25 -16.28125 3.96875 -16.28125 L 1.5625 -1.109375 C 2.363281 -1.140625 3.179688 -1.320312 4.015625 -1.65625 C 4.847656 -1.988281 5.648438 -2.445312 6.421875 -3.03125 C 7.191406 -3.625 7.867188 -4.300781 8.453125 -5.0625 Z M 8.453125 -5.0625 "/></g></g></g><g fill="#000000" fill-opacity="1"><g transform="translate(117.918785, 19.235533)"><g><path d="M 6.453125 -2.40625 C 6.585938 -2.507812 6.738281 -2.554688 6.90625 -2.546875 C 7.070312 -2.535156 7.210938 -2.460938 7.328125 -2.328125 C 7.441406 -2.203125 7.488281 -2.050781 7.46875 -1.875 C 7.457031 -1.707031 7.382812 -1.566406 7.25 -1.453125 C 6.882812 -1.140625 6.421875 -0.835938 5.859375 -0.546875 C 5.296875 -0.265625 4.671875 -0.125 3.984375 -0.125 C 3.785156 -0.125 3.585938 -0.140625 3.390625 -0.171875 C 2.453125 -0.304688 1.738281 -0.773438 1.25 -1.578125 C 0.96875 -2.066406 0.8125 -2.617188 0.78125 -3.234375 C 0.757812 -3.285156 0.75 -3.335938 0.75 -3.390625 C 0.75 -3.390625 0.757812 -3.394531 0.78125 -3.40625 C 0.757812 -4.007812 0.867188 -4.640625 1.109375 -5.296875 C 1.359375 -5.953125 1.75 -6.546875 2.28125 -7.078125 C 2.820312 -7.609375 3.453125 -8.019531 4.171875 -8.3125 C 4.671875 -8.507812 5.148438 -8.617188 5.609375 -8.640625 C 6.066406 -8.671875 6.457031 -8.601562 6.78125 -8.4375 C 7.363281 -8.144531 7.679688 -7.695312 7.734375 -7.09375 C 7.765625 -6.664062 7.640625 -6.21875 7.359375 -5.75 C 7.085938 -5.28125 6.679688 -4.835938 6.140625 -4.421875 C 5.328125 -3.816406 4.5625 -3.394531 3.84375 -3.15625 C 3.125 -2.925781 2.535156 -2.796875 2.078125 -2.765625 C 2.148438 -2.554688 2.226562 -2.367188 2.3125 -2.203125 C 2.59375 -1.734375 3.007812 -1.46875 3.5625 -1.40625 C 4.164062 -1.300781 4.71875 -1.367188 5.21875 -1.609375 C 5.71875 -1.859375 6.128906 -2.125 6.453125 -2.40625 Z M 2.28125 -4.875 C 2.164062 -4.582031 2.09375 -4.285156 2.0625 -3.984375 C 2.425781 -4.035156 2.90625 -4.15625 3.5 -4.34375 C 4.09375 -4.539062 4.722656 -4.898438 5.390625 -5.421875 C 5.796875 -5.722656 6.082031 -6.015625 6.25 -6.296875 C 6.414062 -6.578125 6.5 -6.8125 6.5 -7 C 6.476562 -7.03125 6.453125 -7.078125 6.421875 -7.140625 C 6.390625 -7.210938 6.316406 -7.273438 6.203125 -7.328125 C 6.117188 -7.378906 5.984375 -7.40625 5.796875 -7.40625 C 5.648438 -7.40625 5.472656 -7.382812 5.265625 -7.34375 C 5.066406 -7.300781 4.851562 -7.238281 4.625 -7.15625 C 4.070312 -6.9375 3.585938 -6.625 3.171875 -6.21875 C 2.765625 -5.820312 2.46875 -5.375 2.28125 -4.875 Z M 2.28125 -4.875 "/></g></g></g><g fill="#000000" fill-opacity="1"><g transform="translate(126.397912, 19.235533)"><g><path d="M 8.3125 -6.90625 C 8.601562 -6.144531 8.609375 -5.269531 8.328125 -4.28125 C 8.054688 -3.300781 7.546875 -2.375 6.796875 -1.5 C 6.316406 -0.9375 5.710938 -0.484375 4.984375 -0.140625 C 4.253906 0.203125 3.546875 0.375 2.859375 0.375 C 2.773438 0.375 2.703125 0.363281 2.640625 0.34375 C 2.335938 0.332031 2.039062 0.269531 1.75 0.15625 L 0.421875 8.234375 C 0.359375 8.578125 0.148438 8.75 -0.203125 8.75 C -0.234375 8.75 -0.265625 8.742188 -0.296875 8.734375 C -0.460938 8.710938 -0.597656 8.628906 -0.703125 8.484375 C -0.804688 8.347656 -0.835938 8.195312 -0.796875 8.03125 L 1.859375 -7.921875 C 1.867188 -8.097656 1.945312 -8.226562 2.09375 -8.3125 C 2.238281 -8.40625 2.394531 -8.445312 2.5625 -8.4375 C 2.726562 -8.394531 2.859375 -8.304688 2.953125 -8.171875 C 3.054688 -8.046875 3.101562 -7.890625 3.09375 -7.703125 L 2.78125 -5.890625 C 2.96875 -6.128906 3.171875 -6.359375 3.390625 -6.578125 C 3.617188 -6.804688 3.867188 -7.023438 4.140625 -7.234375 C 4.492188 -7.492188 4.945312 -7.71875 5.5 -7.90625 C 6.050781 -8.101562 6.582031 -8.128906 7.09375 -7.984375 C 7.664062 -7.828125 8.070312 -7.46875 8.3125 -6.90625 Z M 5.875 -2.328125 C 6.5625 -3.117188 6.988281 -3.894531 7.15625 -4.65625 C 7.320312 -5.414062 7.320312 -6.015625 7.15625 -6.453125 C 7.070312 -6.628906 6.9375 -6.742188 6.75 -6.796875 C 6.53125 -6.867188 6.238281 -6.847656 5.875 -6.734375 C 5.519531 -6.628906 5.1875 -6.457031 4.875 -6.21875 C 4.332031 -5.832031 3.890625 -5.390625 3.546875 -4.890625 C 3.203125 -4.390625 2.929688 -3.882812 2.734375 -3.375 C 2.535156 -2.863281 2.382812 -2.398438 2.28125 -1.984375 C 2.1875 -1.578125 2.128906 -1.265625 2.109375 -1.046875 C 2.191406 -0.984375 2.289062 -0.9375 2.40625 -0.90625 C 2.519531 -0.882812 2.617188 -0.875 2.703125 -0.875 C 3.140625 -0.84375 3.660156 -0.945312 4.265625 -1.1875 C 4.878906 -1.4375 5.414062 -1.816406 5.875 -2.328125 Z M 5.875 -2.328125 "/></g></g></g><g fill="#000000" fill-opacity="1"><g transform="translate(135.529279, 19.235533)"><g><path d="M 3.921875 -17.21875 C 4.085938 -17.1875 4.21875 -17.101562 4.3125 -16.96875 C 4.414062 -16.832031 4.453125 -16.679688 4.421875 -16.515625 L 1.875 -0.546875 C 1.832031 -0.203125 1.632812 -0.03125 1.28125 -0.03125 C 1.25 -0.03125 1.210938 -0.0351562 1.171875 -0.046875 C 1.003906 -0.0664062 0.867188 -0.144531 0.765625 -0.28125 C 0.671875 -0.425781 0.632812 -0.582031 0.65625 -0.75 L 3.1875 -16.6875 C 3.21875 -16.851562 3.300781 -16.988281 3.4375 -17.09375 C 3.582031 -17.207031 3.742188 -17.25 3.921875 -17.21875 Z M 3.921875 -17.21875 "/></g></g></g><g fill="#000000" fill-opacity="1"><g transform="translate(138.51447, 19.235533)"><g><path d="M 7.5 -6.53125 C 7.570312 -5.6875 7.519531 -4.945312 7.34375 -4.3125 C 7.164062 -3.675781 6.9375 -3.132812 6.65625 -2.6875 C 6.382812 -2.25 6.128906 -1.90625 5.890625 -1.65625 C 5.503906 -1.238281 5.097656 -0.914062 4.671875 -0.6875 C 4.253906 -0.457031 3.851562 -0.34375 3.46875 -0.34375 C 2.644531 -0.34375 2 -0.585938 1.53125 -1.078125 C 0.976562 -1.679688 0.742188 -2.601562 0.828125 -3.84375 C 0.878906 -4.65625 1.054688 -5.367188 1.359375 -5.984375 C 1.671875 -6.597656 2.046875 -7.109375 2.484375 -7.515625 C 2.921875 -7.921875 3.335938 -8.226562 3.734375 -8.4375 C 4.691406 -8.882812 5.554688 -8.890625 6.328125 -8.453125 C 7.046875 -8.035156 7.4375 -7.394531 7.5 -6.53125 Z M 5 -2.515625 C 5.175781 -2.710938 5.375 -2.984375 5.59375 -3.328125 C 5.8125 -3.679688 5.988281 -4.113281 6.125 -4.625 C 6.269531 -5.132812 6.320312 -5.734375 6.28125 -6.421875 C 6.238281 -6.859375 6.046875 -7.175781 5.703125 -7.375 C 5.535156 -7.476562 5.34375 -7.53125 5.125 -7.53125 C 4.851562 -7.53125 4.578125 -7.460938 4.296875 -7.328125 C 3.773438 -7.078125 3.285156 -6.640625 2.828125 -6.015625 C 2.378906 -5.398438 2.125 -4.648438 2.0625 -3.765625 C 1.988281 -2.890625 2.113281 -2.28125 2.4375 -1.9375 C 2.664062 -1.695312 3.007812 -1.578125 3.46875 -1.578125 C 3.632812 -1.578125 3.851562 -1.648438 4.125 -1.796875 C 4.40625 -1.953125 4.695312 -2.191406 5 -2.515625 Z M 5 -2.515625 "/></g></g></g><g fill="#000000" fill-opacity="1"><g transform="translate(146.667477, 19.235533)"><g><path d="M 8.234375 -8.359375 C 8.378906 -8.328125 8.5 -8.242188 8.59375 -8.109375 C 8.695312 -7.972656 8.734375 -7.820312 8.703125 -7.65625 C 8.703125 -7.582031 8.660156 -7.265625 8.578125 -6.703125 C 8.492188 -6.148438 8.390625 -5.457031 8.265625 -4.625 C 8.140625 -3.800781 8.003906 -2.929688 7.859375 -2.015625 C 7.722656 -1.109375 7.585938 -0.257812 7.453125 0.53125 C 7.316406 1.332031 7.207031 1.96875 7.125 2.4375 C 6.988281 3.082031 6.78125 3.773438 6.5 4.515625 C 6.226562 5.265625 5.890625 5.957031 5.484375 6.59375 C 5.085938 7.226562 4.625 7.71875 4.09375 8.0625 C 3.738281 8.257812 3.3125 8.421875 2.8125 8.546875 C 2.3125 8.671875 1.816406 8.734375 1.328125 8.734375 C 0.929688 8.734375 0.554688 8.691406 0.203125 8.609375 C -0.148438 8.523438 -0.441406 8.382812 -0.671875 8.1875 C -0.804688 8.082031 -0.882812 7.945312 -0.90625 7.78125 C -0.9375 7.613281 -0.894531 7.460938 -0.78125 7.328125 C -0.675781 7.191406 -0.539062 7.109375 -0.375 7.078125 C -0.207031 7.054688 -0.0546875 7.109375 0.078125 7.234375 C 0.253906 7.359375 0.546875 7.4375 0.953125 7.46875 C 1.359375 7.507812 1.789062 7.488281 2.25 7.40625 C 2.707031 7.320312 3.101562 7.175781 3.4375 6.96875 C 3.9375 6.675781 4.414062 6.082031 4.875 5.1875 C 5.34375 4.289062 5.679688 3.289062 5.890625 2.1875 C 5.992188 1.695312 6.113281 1.015625 6.25 0.140625 C 6.394531 -0.734375 6.546875 -1.660156 6.703125 -2.640625 C 5.984375 -1.453125 5.203125 -0.640625 4.359375 -0.203125 C 3.640625 0.179688 2.972656 0.265625 2.359375 0.046875 C 1.910156 -0.117188 1.582031 -0.4375 1.375 -0.90625 C 1.175781 -1.382812 1.0625 -1.953125 1.03125 -2.609375 C 1.007812 -3.265625 1.039062 -3.929688 1.125 -4.609375 C 1.207031 -5.296875 1.3125 -5.929688 1.4375 -6.515625 C 1.5625 -7.109375 1.664062 -7.570312 1.75 -7.90625 C 1.789062 -8.050781 1.882812 -8.171875 2.03125 -8.265625 C 2.1875 -8.359375 2.347656 -8.378906 2.515625 -8.328125 C 2.679688 -8.296875 2.804688 -8.203125 2.890625 -8.046875 C 2.972656 -7.898438 3 -7.742188 2.96875 -7.578125 C 2.664062 -6.410156 2.460938 -5.351562 2.359375 -4.40625 C 2.253906 -3.457031 2.242188 -2.691406 2.328125 -2.109375 C 2.410156 -1.523438 2.554688 -1.195312 2.765625 -1.125 C 2.941406 -1.0625 3.125 -1.050781 3.3125 -1.09375 C 3.5 -1.144531 3.660156 -1.207031 3.796875 -1.28125 C 3.921875 -1.363281 4.117188 -1.519531 4.390625 -1.75 C 4.671875 -1.988281 4.988281 -2.347656 5.34375 -2.828125 C 5.707031 -3.316406 6.070312 -3.96875 6.4375 -4.78125 C 6.8125 -5.601562 7.164062 -6.644531 7.5 -7.90625 C 7.53125 -8.050781 7.617188 -8.164062 7.765625 -8.25 C 7.910156 -8.332031 8.066406 -8.367188 8.234375 -8.359375 Z M 8.234375 -8.359375 "/></g></g></g></g></g></g></g></g></g></svg>